Gelasio (Autosaved).glyphspackage
{
glyphname = dollar;
kernLeft = dollar;
kernRight = dollar;
layers = (
{
layerId = "DD6F9F34-BC40-4E8F-B1D3-DF3B42A9710F";
shapes = (
{
closed = 1;
nodes = (
(707,-245,l),
(707,-29,l),
(931,-18,o),
(1092,108,o),
(1092,352,cs),
(1092,551,o),
(900,671,o),
(715,765,cs),
(559,844,o),
(409,932,o),
(409,1049,cs),
(409,1214,o),
(507,1272,o),
(645,1272,cs),
(790,1272,o),
(917,1180,o),
(953,965,cs),
(955,953,o),
(974,942,o),
(992,942,cs),
(1013,942,o),
(1035,956,o),
(1035,996,cs),
(1035,1001,o),
(1035,1007,o),
(1034,1014,cs),
(1018,1124,o),
(1009,1271,o),
(1009,1296,cs),
(1009,1316,o),
(989,1334,o),
(966,1334,cs),
(958,1334,o),
(950,1332,o),
(942,1327,cs),
(923,1315,o),
(917,1300,o),
(886,1300,cs),
(879,1300,o),
(870,1301,o),
(860,1303,cs),
(834,1308,o),
(782,1333,o),
(707,1345,c),
(707,1548,l,{
name = L;
}),
(601,1548,l,{
name = L;
}),
(601,1350,l),
(423,1340,o),
(211,1234,o),
(211,1005,cs),
(211,782,o),
(410,664,o),
(594,576,cs),
(749,502,o),
(888,426,o),
(888,311,cs),
(888,132,o),
(778,59,o),
(658,59,cs),
(554,59,o),
(388,121,o),
(316,274,cs),
(262,389,o),
(253,434,o),
(246,468,cs),
(240,496,o),
(219,510,o),
(199,510,cs),
(177,510,o),
(156,494,o),
(156,460,cs),
(156,453,o),
(177,287,o),
(177,154,cs),
(177,127,o),
(177,99,o),
(175,72,cs),
(173,44,o),
(187,24,o),
(210,24,cs),
(228,24,o),
(250,37,o),
(276,65,cs),
(287,77,o),
(296,82,o),
(306,82,cs),
(328,82,o),
(351,55,o),
(390,41,cs),
(427,28,o),
(488,-13,o),
(601,-26,c),
(601,-245,l)
);
}
);
width = 1249;
},
{
layerId = "62CA62AF-CD91-478A-AB8B-28A62CC47DA0";
shapes = (
{
closed = 1;
nodes = (
(708,-238,l),
(708,-29,l,{
name = hr02;
}),
(1008,-29,o),
(1230,147,o),
(1230,380,cs),
(1230,584,o),
(1038,696,o),
(826,790,cs),
(650,868,o),
(466,964,o),
(466,1104,cs),
(466,1227,o),
(555,1274,o),
(685,1274,cs),
(804,1274,o),
(989,1211,o),
(1041,980,cs),
(1044,968,o),
(1068,958,o),
(1094,958,cs),
(1123,958,o),
(1154,972,o),
(1154,1012,cs),
(1154,1017,o),
(1154,1021,o),
(1153,1026,c),
(1140,1129,o),
(1129,1277,o),
(1129,1301,cs),
(1129,1320,o),
(1090,1336,o),
(1058,1336,cs),
(1048,1336,o),
(1038,1334,o),
(1030,1330,cs),
(1011,1318,o),
(1010,1302,o),
(979,1302,cs),
(973,1302,o),
(965,1302,o),
(956,1304,cs),
(924,1309,o),
(851,1346,o),
(734,1350,c),
(734,1548,l,{
name = L;
}),
(620,1548,l,{
name = L;
}),
(620,1346,l),
(380,1346,o),
(167,1210,o),
(167,997,cs),
(167,774,o),
(351,637,o),
(531,560,cs),
(724,478,o),
(919,386,o),
(919,246,cs),
(919,88,o),
(800,55,o),
(662,55,cs),
(555,55,o),
(393,130,o),
(319,273,c),
(266,380,o),
(253,413,o),
(246,445,cs),
(240,471,o),
(214,484,o),
(186,484,cs),
(155,484,o),
(123,465,o),
(128,426,c),
(135,365,o),
(148,262,o),
(148,147,cs),
(148,120,o),
(146,88,o),
(146,48,cs,{
name = hr01;
}),
(146,21,o),
(168,3,o),
(199,3,cs),
(222,3,o),
(253,12,o),
(275,41,cs),
(287,57,o),
(305,62,o),
(316,62,cs),
(332,62,o),
(347,54,o),
(380,36,cs),
(415,17,o),
(495,-10,o),
(594,-24,c),
(594,-238,l)
);
}
);
width = 1312;
}
);
unicode = 36;
}
{
glyphname = percent;
kernLeft = percent;
kernRight = percent;
layers = (
{
layerId = "DD6F9F34-BC40-4E8F-B1D3-DF3B42A9710F";
shapes = (
{
closed = 1;
nodes = (
(506,0,l),
(1300,1419,l),
(1153,1419,l),
(361,0,l)
);
},
{
closed = 1;
nodes = (
(645,711,o),
(779,852,o),
(779,1076,cs),
(779,1305,o),
(649,1449,o),
(442,1449,cs),
(241,1449,o),
(109,1305,o),
(109,1076,cs),
(109,852,o),
(237,711,o),
(438,711,cs)
);
},
{
closed = 1;
nodes = (
(314,788,o),
(268,882,o),
(268,1076,cs),
(268,1274,o),
(312,1372,o),
(437,1372,cs),
(562,1372,o),
(609,1274,o),
(609,1076,cs),
(609,882,o),
(565,788,o),
(440,788,cs)
);
},
{
closed = 1;
nodes = (
(1431,-29,o),
(1565,112,o),
(1565,336,cs),
(1565,565,o),
(1435,709,o),
(1228,709,cs),
(1027,709,o),
(895,565,o),
(895,336,cs),
(895,112,o),
(1023,-29,o),
(1224,-29,cs)
);
},
{
closed = 1;
nodes = (
(1100,48,o),
(1054,142,o),
(1054,336,cs),
(1054,534,o),
(1098,632,o),
(1223,632,cs),
(1348,632,o),
(1395,534,o),
(1395,336,cs),
(1395,142,o),
(1351,48,o),
(1226,48,cs)
);
}
);
width = 1674;
},
{
layerId = "62CA62AF-CD91-478A-AB8B-28A62CC47DA0";
shapes = (
{
closed = 1;
nodes = (
(531,0,l),
(1410,1419,l,{
name = hr02;
}),
(1263,1419,l),
(386,0,l)
);
},
{
closed = 1;
nodes = (
(707,711,o),
(861,852,o),
(861,1076,cs),
(861,1305,o),
(711,1449,o),
(474,1449,cs),
(243,1449,o),
(91,1305,o),
(91,1076,cs),
(91,852,o),
(239,711,o),
(470,711,cs,{
name = hr01;
})
);
},
{
closed = 1;
nodes = (
(377,788,o),
(345,882,o),
(345,1076,cs),
(345,1274,o),
(377,1372,o),
(474,1372,cs,{
name = hr03;
}),
(578,1372,o),
(606,1304,o),
(606,1076,cs),
(606,882,o),
(578,788,o),
(474,788,cs)
);
},
{
closed = 1;
nodes = (
(1556,-35,o),
(1710,106,o),
(1710,330,cs),
(1710,559,o),
(1560,703,o),
(1323,703,cs),
(1092,703,o),
(940,559,o),
(940,330,cs,{
name = hr05;
}),
(940,106,o),
(1088,-35,o),
(1319,-35,cs)
);
},
{
closed = 1;
nodes = (
(1226,42,o),
(1194,136,o),
(1194,330,cs),
(1194,528,o),
(1226,626,o),
(1323,626,cs),
(1427,626,o),
(1455,558,o),
(1455,330,cs),
(1455,136,o),
(1427,42,o),
(1323,42,cs)
);
}
);
width = 1801;
}
);
unicode = 37;
}
{
glyphname = one;
kernLeft = one;
kernRight = one;
layers = (
{
layerId = "DD6F9F34-BC40-4E8F-B1D3-DF3B42A9710F";
shapes = (
{
closed = 1;
nodes = (
(751,0,ls),
(774,0,o),
(785,26,o),
(785,41,cs),
(785,71,o),
(777,76,o),
(749,78,cs),
(670,84,o),
(567,98,o),
(567,150,cs),
(568,1189,l),
(473,1189,l),
(381,1116,o),
(247,1076,o),
(186,1072,cs),
(158,1070,o),
(150,1055,o),
(150,1025,cs),
(150,1010,o),
(160,960,o),
(196,960,cs),
(254,960,o),
(314,986,o),
(371,1018,c),
(370,142,ls),
(370,98,o),
(259,83,o),
(195,78,c),
(169,75,o),
(162,62,o),
(162,41,cs),
(162,26,o),
(173,0,o),
(196,0,cs)
);
}
);
width = 880;
},
{
layerId = "62CA62AF-CD91-478A-AB8B-28A62CC47DA0";
shapes = (
{
closed = 1;
nodes = (
(868,0,ls),
(891,0,o),
(902,26,o),
(902,41,cs),
(902,71,o),
(894,84,o),
(866,85,cs),
(764,89,o),
(684,110,o),
(684,182,cs),
(685,1189,l),
(486,1189,l),
(435,1127,o),
(224,1037,o),
(163,1033,cs),
(135,1031,o),
(127,987,o),
(127,957,cs),
(127,942,o),
(136,893,o),
(182,893,cs),
(227,893,o),
(301,923,o),
(358,969,c),
(357,149,ls),
(357,105,o),
(226,90,o),
(162,85,c),
(136,82,o),
(129,62,o),
(129,41,cs,{
name = hr00;
}),
(129,26,o),
(140,0,o),
(163,0,cs)
);
}
);
width = 1003;
}
);
unicode = 49;
}
{
glyphname = question;
kernLeft = question;
kernRight = question;
layers = (
{
layerId = "DD6F9F34-BC40-4E8F-B1D3-DF3B42A9710F";
shapes = (
{
closed = 1;
nodes = (
(509,377,l),
(509,460,l),
(509,739,o),
(913,867,o),
(913,1141,cs),
(913,1325,o),
(801,1528,o),
(496,1528,cs),
(271,1528,o),
(133,1402,o),
(89,1284,cs),
(76,1251,o),
(71,1223,o),
(71,1199,cs),
(71,1113,o),
(136,1079,o),
(177,1079,cs),
(218,1079,o),
(237,1087,o),
(244,1117,c),
(284,1347,l),
(284,1347,o),
(343,1443,o),
(480,1443,cs),
(670,1443,o),
(712,1266,o),
(712,1141,cs),
(712,841,o),
(397,792,o),
(397,489,c),
(397,377,l)
);
},
{
closed = 1;
nodes = (
(538,-20,o),
(600,47,o),
(600,122,cs),
(600,197,o),
(538,257,o),
(459,257,cs),
(380,257,o),
(319,197,o),
(319,122,cs),
(319,47,o),
(380,-20,o),
(459,-20,cs)
);
}
);
width = 980;
},
{
layerId = "62CA62AF-CD91-478A-AB8B-28A62CC47DA0";
shapes = (
{
closed = 1;
nodes = (
(613,478,l),
(613,532,l),
(615,792,o),
(1031,830,o),
(1033,1160,cs),
(1033,1371,o),
(869,1528,o),
(548,1528,cs),
(330,1528,o),
(150,1402,o),
(105,1284,c),
(93,1253,o),
(88,1225,o),
(88,1200,cs),
(88,1103,o),
(158,1049,o),
(200,1049,cs),
(270,1049,o),
(307,1057,o),
(319,1087,c),
(339,1367,l),
(339,1367,o),
(399,1443,o),
(522,1443,cs),
(706,1443,o),
(729,1257,o),
(729,1132,cs),
(729,832,o),
(451,864,o),
(451,542,cs),
(451,478,l,{
name = hr00;
})
);
},
{
closed = 1;
nodes = (
(636,-20,o),
(722,72,o),
(722,176,cs),
(722,279,o),
(636,362,o),
(527,362,cs),
(418,362,o),
(334,279,o),
(334,176,cs),
(334,72,o),
(418,-20,o),
(527,-20,cs)
);
}
);
width = 1123;
}
);
unicode = 63;
userData = {
com.typemytype.robofont.mark = (
0.967,
0.6,
1,
1
);
};
}
{
glyphname = B;
kernLeft = H;
kernRight = B;
layers = (
{
anchors = (
{
name = bottom;
pos = (688,0);
},
{
name = top;
pos = (694,1419);
}
);
background = {
shapes = (
{
closed = 1;
nodes = (
(631,0,ls),
(654,0,o),
(665,36,o),
(665,51,cs),
(665,81,o),
(657,85,o),
(629,88,cs),
(568,95,o),
(477,99,o),
(477,185,cs),
(478,1267,ls),
(478,1311,o),
(559,1326,o),
(623,1331,cs),
(649,1333,o),
(656,1347,o),
(656,1368,cs),
(656,1383,o),
(645,1419,o),
(622,1419,cs),
(130,1419,ls),
(107,1419,o),
(96,1383,o),
(96,1368,cs),
(96,1338,o),
(104,1334,o),
(132,1331,cs),
(193,1324,o),
(274,1320,o),
(274,1234,c),
(273,152,ls),
(273,108,o),
(202,93,o),
(138,88,cs),
(112,86,o),
(105,72,o),
(105,51,cs),
(105,36,o),
(116,0,o),
(139,0,cs)
);
}
);
};
layerId = "DD6F9F34-BC40-4E8F-B1D3-DF3B42A9710F";
shapes = (
{
closed = 1;
nodes = (
(742,0,ls),
(981,0,o),
(1257,124,o),
(1257,416,cs),
(1257,691,o),
(1026,766,o),
(859,778,c),
(855,771,l),
(1016,793,o),
(1172,901,o),
(1172,1100,cs),
(1172,1349,o),
(938,1419,o),
(697,1419,cs),
(91,1419,ls),
(68,1419,o),
(57,1383,o),
(57,1368,cs),
(57,1338,o),
(65,1334,o),
(93,1331,c),
(166,1326,o),
(275,1320,o),
(275,1234,cs),
(274,152,ls),
(274,108,o),
(178,93,o),
(99,88,c),
(73,85,o),
(66,72,o),
(66,51,cs),
(66,36,o),
(77,0,o),
(100,0,cs)
);
},
{
closed = 1;
nodes = (
(478,1334,l),
(660,1334,ls),
(829,1334,o),
(955,1268,o),
(955,1085,cs),
(955,881,o),
(801,814,o),
(646,814,cs),
(478,814,l)
);
},
{
closed = 1;
nodes = (
(469,102,o),
(478,139,o),
(478,139,cs),
(478,718,l),
(619,718,ls),
(764,718,o),
(1035,725,o),
(1035,421,cs),
(1035,140,o),
(804,102,o),
(666,102,cs)
);
}
);
width = 1339;
},
{
anchors = (
{
name = bottom;
pos = (779,0);
},
{
name = top;
pos = (778,1419);
}
);
layerId = "62CA62AF-CD91-478A-AB8B-28A62CC47DA0";
shapes = (
{
closed = 1;
nodes = (
(890,0,ls),
(1284,0,o),
(1476,139,o),
(1476,421,cs),
(1476,638,o),
(1284,767,o),
(998,767,c),
(998,762,l),
(1205,762,o),
(1379,881,o),
(1379,1110,cs),
(1379,1329,o),
(1180,1419,o),
(829,1419,cs),
(135,1419,ls),
(112,1419,o),
(101,1383,o),
(101,1368,cs),
(101,1338,o),
(109,1334,o),
(137,1331,c),
(210,1326,o),
(319,1320,o),
(319,1234,cs),
(318,152,ls),
(318,108,o),
(222,93,o),
(143,88,c),
(117,85,o),
(110,72,o),
(110,51,cs,{
name = hr00;
}),
(110,36,o),
(121,0,o),
(144,0,cs)
);
},
{
closed = 1;
nodes = (
(655,1322,l),
(768,1322,ls),
(937,1322,o),
(1052,1256,o),
(1052,1073,cs),
(1052,869,o),
(896,802,o),
(741,802,cs),
(655,802,l)
);
},
{
closed = 1;
nodes = (
(656,101,o),
(655,138,o),
(655,138,c),
(655,706,l),
(744,706,ls),
(888,706,o),
(1112,713,o),
(1112,418,cs),
(1112,141,o),
(950,101,o),
(811,101,cs)
);
}
);
width = 1551;
}
);
unicode = 66;
}
{
glyphname = E;
kernLeft = H;
kernRight = E;
layers = (
{
anchors = (
{
name = bottom;
pos = (708,0);
},
{
name = ogonek;
pos = (1081,10);
},
{
name = top;
pos = (674,1419);
}
);
background = {
shapes = (
{
closed = 1;
nodes = (
(609,0,ls),
(631,0,o),
(643,16,o),
(643,31,cs),
(643,61,o),
(659,100,o),
(607,100,cs),
(558,100,o),
(495,111,o),
(495,197,cs),
(496,1335,l),
(600,1419,l),
(135,1419,ls),
(112,1419,o),
(101,1383,o),
(101,1368,cs),
(101,1338,o),
(109,1334,o),
(137,1331,cs),
(198,1326,o),
(289,1320,o),
(289,1234,cs),
(288,152,ls),
(288,108,o),
(207,93,o),
(143,88,cs),
(117,85,o),
(110,72,o),
(110,51,cs),
(110,36,o),
(121,0,o),
(144,0,cs)
);
},
{
closed = 1;
nodes = (
(1253,1,l),
(1296,372,l),
(1296,395,o),
(1281,406,o),
(1256,406,cs),
(1235,406,o),
(1207,398,o),
(1199,373,cs),
(1186,332,o),
(1072,101,o),
(979,101,cs),
(377,101,l),
(344,1,l)
);
},
{
closed = 1;
nodes = (
(936,470,o),
(962,481,o),
(962,504,cs),
(962,947,ls),
(962,970,o),
(936,981,o),
(921,981,cs),
(900,981,o),
(872,974,o),
(869,948,cs),
(864,908,o),
(826,780,o),
(774,773,c),
(399,773,l),
(399,687,l),
(768,687,ls),
(824,687,o),
(864,546,o),
(869,503,cs),
(872,477,o),
(900,470,o),
(921,470,cs)
);
},
{
closed = 1;
nodes = (
(1183,1060,o),
(1209,1071,o),
(1209,1094,cs),
(1174,1418,l),
(600,1419,l),
(377,1320,l),
(909,1320,ls),
(1017,1320,o),
(1110,1134,o),
(1115,1093,cs),
(1118,1067,o),
(1147,1060,o),
(1168,1060,cs)
);
}
);
};
layerId = "DD6F9F34-BC40-4E8F-B1D3-DF3B42A9710F";
shapes = (
{
closed = 1;
nodes = (
(105,36,o),
(116,0,o),
(139,0,cs),
(1199,1,l),
(1249,373,l),
(1246,396,o),
(1225,407,o),
(1200,407,cs),
(1179,407,o),
(1138,399,o),
(1132,374,cs),
(1084,173,o),
(992,102,o),
(872,102,cs),
(587,101,l),
(543,105,o),
(498,124,o),
(498,197,cs),
(498,682,l),
(726,683,ls),
(782,683,o),
(827,547,o),
(830,504,c),
(833,478,o),
(858,471,o),
(879,471,cs),
(894,471,o),
(920,482,o),
(920,505,cs),
(920,948,ls),
(920,971,o),
(894,982,o),
(879,982,cs),
(858,982,o),
(836,976,o),
(833,950,cs),
(828,910,o),
(784,786,o),
(732,779,c),
(498,778,l),
(498,1320,l),
(838,1321,ls),
(946,1321,o),
(964,1244,o),
(1044,1094,cs),
(1060,1064,o),
(1087,1061,o),
(1108,1061,cs),
(1123,1061,o),
(1147,1072,o),
(1145,1095,cs),
(1110,1420,l),
(130,1419,ls),
(107,1419,o),
(96,1383,o),
(96,1368,cs),
(96,1338,o),
(104,1334,o),
(132,1331,cs),
(193,1324,o),
(284,1320,o),
(284,1234,cs),
(284,152,ls),
(284,108,o),
(202,93,o),
(138,88,c),
(112,85,o),
(105,72,o),
(105,51,cs,{
name = hr00;
})
);
}
);
width = 1338;
},
{
anchors = (
{
name = bottom;
pos = (800,0);
},
{
name = ogonek;
pos = (1195,10);
},
{
name = top;
pos = (791,1419);
}
);
layerId = "62CA62AF-CD91-478A-AB8B-28A62CC47DA0";
shapes = (
{
closed = 1;
nodes = (
(110,36,o),
(121,0,o),
(144,0,cs),
(1369,0,l),
(1409,372,l),
(1406,395,o),
(1372,406,o),
(1347,406,cs),
(1326,406,o),
(1290,397,o),
(1279,373,cs),
(1187,173,o),
(1123,101,o),
(1003,101,cs),
(714,101,l),
(670,105,o),
(623,124,o),
(623,197,cs),
(623,682,l),
(884,682,ls),
(940,682,o),
(985,546,o),
(988,503,c),
(991,477,o),
(1016,470,o),
(1037,470,cs),
(1052,470,o),
(1092,481,o),
(1092,504,cs),
(1092,947,ls),
(1092,970,o),
(1052,981,o),
(1037,981,cs),
(1016,981,o),
(994,975,o),
(991,949,cs),
(986,909,o),
(942,785,o),
(890,778,c),
(623,778,l),
(623,1320,l),
(1014,1320,ls),
(1122,1320,o),
(1131,1243,o),
(1211,1093,cs),
(1227,1063,o),
(1262,1060,o),
(1283,1060,cs),
(1298,1060,o),
(1331,1071,o),
(1329,1094,cs),
(1294,1419,l),
(135,1419,ls),
(112,1419,o),
(101,1383,o),
(101,1368,cs),
(101,1338,o),
(109,1334,o),
(137,1331,cs),
(198,1324,o),
(289,1320,o),
(289,1234,cs),
(289,152,ls),
(289,108,o),
(207,93,o),
(143,88,c),
(117,85,o),
(110,72,o),
(110,51,cs,{
name = hr00;
})
);
}
);
width = 1477;
}
);
unicode = 69;
}
{
glyphname = L;
kernLeft = H;
kernRight = L;
layers = (
{
anchors = (
{
name = Lslash;
pos = (442,816);
},
{
name = bottom;
pos = (615,0);
},
{
name = center;
pos = (615,710);
},
{
name = top;
pos = (378,1419);
},
{
name = topright;
pos = (1005,994);
}
);
background = {
shapes = (
{
closed = 1;
nodes = (
(631,0,ls),
(654,0,o),
(665,36,o),
(665,51,cs),
(665,81,o),
(657,85,o),
(629,88,cs),
(568,95,o),
(477,99,o),
(477,185,cs),
(478,1267,ls),
(478,1311,o),
(559,1326,o),
(623,1331,cs),
(649,1333,o),
(656,1347,o),
(656,1368,cs),
(656,1383,o),
(645,1419,o),
(622,1419,cs),
(130,1419,ls),
(107,1419,o),
(96,1383,o),
(96,1368,cs),
(96,1338,o),
(104,1334,o),
(132,1331,cs),
(193,1324,o),
(274,1320,o),
(274,1234,c),
(273,152,ls),
(273,108,o),
(202,93,o),
(138,88,cs),
(112,86,o),
(105,72,o),
(105,51,cs),
(105,36,o),
(116,0,o),
(139,0,cs)
);
}
);
};
layerId = "DD6F9F34-BC40-4E8F-B1D3-DF3B42A9710F";
shapes = (
{
closed = 1;
nodes = (
(1136,0,l),
(1185,439,ls),
(1188,462,o),
(1170,473,o),
(1145,473,cs),
(1124,473,o),
(1105,464,o),
(1097,440,cs),
(1049,295,o),
(960,101,o),
(867,101,cs),
(582,101,ls),
(533,101,o),
(477,111,o),
(477,177,c),
(478,1237,l),
(478,1311,o),
(578,1331,o),
(644,1331,cs),
(670,1331,o),
(677,1347,o),
(677,1368,cs),
(677,1383,o),
(666,1419,o),
(643,1419,cs),
(130,1419,ls),
(107,1419,o),
(96,1383,o),
(96,1368,cs),
(96,1338,o),
(104,1334,o),
(132,1331,cs),
(193,1324,o),
(274,1320,o),
(274,1234,c),
(273,152,l),
(273,108,o),
(202,93,o),
(138,88,cs),
(112,85,o),
(105,72,o),
(105,51,cs),
(105,36,o),
(116,0,o),
(139,0,c)
);
}
);
width = 1236;
},
{
anchors = (
{
name = Lslash;
pos = (532,816);
},
{
name = bottom;
pos = (677,0);
},
{
name = center;
pos = (677,710);
},
{
name = top;
pos = (465,1419);
},
{
name = topright;
pos = (1115,975);
}
);
layerId = "62CA62AF-CD91-478A-AB8B-28A62CC47DA0";
shapes = (
{
closed = 1;
nodes = (
(1312,0,l),
(1371,439,ls),
(1374,462,o),
(1339,473,o),
(1314,473,cs),
(1293,473,o),
(1243,464,o),
(1235,440,cs),
(1187,295,o),
(1085,101,o),
(992,101,cs),
(718,101,ls),
(669,101,o),
(629,111,o),
(629,177,c),
(629,1237,l),
(629,1311,o),
(707,1331,o),
(821,1331,cs),
(847,1331,o),
(854,1347,o),
(854,1368,cs),
(854,1383,o),
(843,1419,o),
(820,1419,cs),
(135,1419,ls),
(112,1419,o),
(101,1383,o),
(101,1368,cs),
(101,1338,o),
(109,1333,o),
(137,1331,cs),
(208,1326,o),
(289,1320,o),
(289,1234,c),
(289,162,l),
(289,118,o),
(208,94,o),
(144,88,cs),
(118,86,o),
(111,72,o),
(111,51,cs,{
name = hr00;
}),
(111,36,o),
(122,0,o),
(145,0,c)
);
}
);
width = 1404;
}
);
unicode = 76;
}
{
glyphname = M;
kernLeft = M;
kernRight = M;
layers = (
{
anchors = (
{
name = bottom;
pos = (961,0);
},
{
name = top;
pos = (989,1311);
}
);
layerId = "DD6F9F34-BC40-4E8F-B1D3-DF3B42A9710F";
shapes = (
{
closed = 1;
nodes = (
(589,0,ls),
(612,0,o),
(623,36,o),
(623,51,cs),
(623,81,o),
(615,85,o),
(587,88,c),
(514,93,o),
(395,99,o),
(395,185,cs),
(395,1281,l),
(432,1281,l),
(908,0,l),
(959,0,l),
(1388,1281,l),
(1425,1281,l),
(1424,152,ls),
(1424,108,o),
(1335,93,o),
(1271,88,c),
(1245,85,o),
(1238,72,o),
(1238,51,cs),
(1238,36,o),
(1249,0,o),
(1272,0,cs),
(1785,0,ls),
(1808,0,o),
(1819,36,o),
(1819,51,cs),
(1819,81,o),
(1811,85,o),
(1783,88,cs),
(1722,95,o),
(1628,99,o),
(1628,185,cs),
(1629,1267,ls),
(1629,1311,o),
(1710,1326,o),
(1774,1331,c),
(1800,1334,o),
(1807,1347,o),
(1807,1368,cs),
(1807,1383,o),
(1796,1419,o),
(1773,1419,cs),
(1329,1419,l),
(1319,1373,o),
(1303,1326,o),
(1276,1246,cs),
(981,366,l),
(969,366,l),
(612,1419,l),
(115,1419,l),
(92,1418,o),
(81,1383,o),
(81,1368,cs),
(81,1338,o),
(89,1334,o),
(117,1331,c),
(190,1326,o),
(298,1320,o),
(298,1234,cs),
(298,184,ls),
(298,100,o),
(202,93,o),
(123,88,c),
(97,85,o),
(90,72,o),
(90,51,cs),
(90,36,o),
(101,0,o),
(124,0,cs)
);
}
);
width = 1899;
},
{
anchors = (
{
name = bottom;
pos = (1011,0);
},
{
name = top;
pos = (1082,1326);
}
);
layerId = "62CA62AF-CD91-478A-AB8B-28A62CC47DA0";
shapes = (
{
closed = 1;
nodes = (
(573,0,ls),
(596,0,o),
(607,36,o),
(607,51,cs),
(607,81,o),
(599,85,o),
(571,88,c),
(498,93,o),
(379,99,o),
(379,185,cs),
(379,1281,l),
(417,1281,l),
(941,0,l),
(998,0,l),
(1478,1281,l),
(1506,1281,l),
(1506,152,ls),
(1506,108,o),
(1415,93,o),
(1351,88,c),
(1325,85,o),
(1318,72,o),
(1318,51,cs),
(1318,36,o),
(1329,0,o),
(1352,0,cs),
(1997,0,ls),
(2020,0,o),
(2031,36,o),
(2031,51,cs),
(2031,81,o),
(2023,85,o),
(1995,88,cs),
(1934,95,o),
(1844,99,o),
(1844,185,cs),
(1844,1267,ls),
(1844,1311,o),
(1921,1326,o),
(1989,1331,c),
(2015,1334,o),
(2022,1347,o),
(2022,1368,cs),
(2022,1383,o),
(2011,1419,o),
(1988,1419,cs),
(1411,1419,l),
(1411,1398,o),
(1401,1350,o),
(1394,1331,cs),
(1074,482,l),
(739,1414,l),
(739,1419,l),
(99,1419,l),
(76,1418,o),
(65,1383,o),
(65,1368,cs),
(65,1338,o),
(73,1334,o),
(101,1331,c),
(174,1326,o),
(282,1320,o),
(282,1234,cs),
(282,184,ls),
(282,100,o),
(186,93,o),
(107,88,c),
(81,85,o),
(74,72,o),
(74,51,cs,{
name = hr00;
}),
(74,36,o),
(85,0,o),
(108,0,cs)
);
}
);
width = 2096;
}
);
unicode = 77;
userData = {
com.typemytype.robofont.guides = (
{
angle = 0;
isGlobal = 0;
magnetic = 5;
x = 0;
y = 1281;
}
);
};
}
{
glyphname = N;
kernLeft = H;
kernRight = H;
layers = (
{
anchors = (
{
name = bottom;
pos = (759,0);
},
{
name = top;
pos = (787,1419);
}
);
layerId = "DD6F9F34-BC40-4E8F-B1D3-DF3B42A9710F";
shapes = (
{
closed = 1;
nodes = (
(521,0,ls),
(544,0,o),
(555,36,o),
(555,51,cs),
(555,81,o),
(547,85,o),
(519,88,cs),
(458,95,o),
(349,99,o),
(349,185,cs),
(349,1154,l),
(366,1154,l),
(1205,-8,l),
(1215,-20,o),
(1238,-30,o),
(1259,-30,cs),
(1287,-30,o),
(1323,-16,o),
(1319,40,cs),
(1316,78,o),
(1313,88,o),
(1313,113,cs),
(1313,1234,ls),
(1313,1320,o),
(1427,1324,o),
(1488,1331,cs),
(1514,1334,o),
(1521,1347,o),
(1521,1368,cs),
(1521,1383,o),
(1510,1419,o),
(1487,1419,cs),
(1032,1419,ls),
(1009,1419,o),
(998,1383,o),
(998,1368,cs),
(998,1338,o),
(1006,1334,o),
(1034,1331,cs),
(1095,1324,o),
(1214,1320,o),
(1214,1234,cs),
(1214,313,l),
(1202,313,l),
(425,1419,l),
(87,1419,ls),
(64,1419,o),
(53,1383,o),
(53,1368,cs),
(53,1338,o),
(61,1334,o),
(89,1331,cs),
(150,1324,o),
(250,1320,o),
(250,1234,cs),
(250,172,ls),
(250,108,o),
(159,93,o),
(95,88,c),
(69,85,o),
(62,72,o),
(62,51,cs),
(62,36,o),
(73,0,o),
(96,0,cs)
);
}
);
width = 1571;
},
{
anchors = (
{
name = bottom;
pos = (860,0);
},
{
name = top;
pos = (883,1419);
}
);
layerId = "62CA62AF-CD91-478A-AB8B-28A62CC47DA0";
shapes = (
{
closed = 1;
nodes = (
(598,0,ls),
(621,0,o),
(632,36,o),
(632,51,cs),
(632,81,o),
(624,85,o),
(596,88,cs),
(535,95,o),
(394,99,o),
(394,185,cs),
(394,1090,l),
(411,1090,l),
(1343,-8,ls,{
name = hr02;
}),
(1353,-20,o),
(1376,-30,o),
(1397,-30,cs),
(1438,-30,o),
(1511,-12,o),
(1507,40,cs),
(1504,78,o),
(1501,88,o),
(1501,113,cs),
(1501,1239,ls),
(1501,1306,o),
(1615,1324,o),
(1676,1331,cs),
(1702,1334,o),
(1709,1347,o),
(1709,1368,cs),
(1709,1383,o),
(1698,1419,o),
(1675,1419,cs),
(1200,1419,ls),
(1177,1419,o),
(1166,1383,o),
(1166,1368,cs),
(1166,1338,o),
(1174,1334,o),
(1202,1331,cs),
(1263,1324,o),
(1384,1320,o),
(1384,1234,cs),
(1384,467,l),
(1372,467,l),
(562,1419,l),
(74,1419,ls),
(51,1419,o),
(40,1383,o),
(40,1368,cs),
(40,1338,o),
(48,1334,o),
(76,1331,cs),
(137,1324,o),
(267,1266,o),
(267,1180,cs),
(267,172,ls),
(267,108,o),
(146,93,o),
(82,88,c,{
name = hr03;
}),
(56,85,o),
(49,72,o),
(49,51,cs,{
name = hr01;
}),
(49,36,o),
(60,0,o),
(83,0,cs)
);
}
);
width = 1719;
}
);
unicode = 78;
}
{
glyphname = Q;
kernLeft = O;
kernRight = O;
layers = (
{
anchors = (
{
name = bottom;
pos = (748,0);
},
{
name = center;
pos = (748,710);
},
{
name = ogonek;
pos = (1358,10);
},
{
name = top;
pos = (748,1419);
},
{
name = topleft;
pos = (6,1419);
},
{
name = topright;
pos = (1490,1419);
}
);
background = {
shapes = (
{
closed = 1;
nodes = (
(1365,-393,c),
(1365,-393,o),
(1365,-323,o),
(1365,-323,c),
(993,-330,o),
(928,-76,o),
(925,29,cs),
(925,29,o),
(673,0,o),
(673,0,c),
(733,-369,o),
(974,-427,o),
(1196,-427,cs),
(1305,-427,o),
(1365,-393,o)
);
}
);
};
layerId = "DD6F9F34-BC40-4E8F-B1D3-DF3B42A9710F";
shapes = (
{
closed = 1;
nodes = (
(1241,59,o),
(1430,359,o),
(1430,716,cs),
(1430,1126,o),
(1191,1449,o),
(769,1449,cs),
(347,1449,o),
(94,1126,o),
(94,716,cs),
(94,339,o),
(301,25,o),
(662,-23,c),
(722,-358,o),
(978,-426,o),
(1169,-426,cs),
(1259,-426,o),
(1324,-405,o),
(1351,-393,c),
(1351,-324,l),
(1046,-324,o),
(943,-165,o),
(914,-13,c)
);
},
{
closed = 1;
nodes = (
(342,1116,o),
(425,1356,o),
(758,1356,cs),
(1088,1356,o),
(1180,1116,o),
(1180,714,cs),
(1180,312,o),
(1094,65,o),
(763,65,cs),
(432,65,o),
(342,312,o),
(342,714,cs)
);
}
);
width = 1524;
},
{
anchors = (
{
name = bottom;
pos = (852,0);
},
{
name = center;
pos = (840,710);
},
{
name = ogonek;
pos = (1511,10);
},
{
name = top;
pos = (852,1419);
},
{
name = topleft;
pos = (20,1419);
},
{
name = topright;
pos = (1659,1419);
}
);
layerId = "62CA62AF-CD91-478A-AB8B-28A62CC47DA0";
shapes = (
{
closed = 1;
nodes = (
(1385,80,o),
(1584,372,o),
(1584,716,cs),
(1584,1126,o),
(1303,1449,o),
(839,1449,cs),
(375,1449,o),
(95,1126,o),
(95,716,cs),
(95,360,o),
(307,60,o),
(666,-12,c),
(732,-365,o),
(1013,-419,o),
(1232,-419,cs),
(1341,-419,o),
(1418,-405,o),
(1445,-393,c),
(1445,-303,l),
(1114,-309,o),
(1058,-119,o),
(1047,-4,c)
);
},
{
closed = 1;
nodes = (
(477,1116,o),
(584,1356,o),
(837,1356,cs),
(1090,1356,o),
(1201,1116,o),
(1201,714,cs),
(1201,312,o),
(1096,65,o),
(843,65,cs),
(590,65,o),
(477,312,o),
(477,714,cs)
);
}
);
width = 1679;
}
);
unicode = 81;
}
{
glyphname = bracketleft;
kernLeft = bracketleft;
kernRight = bracketleft;
layers = (
{
layerId = "DD6F9F34-BC40-4E8F-B1D3-DF3B42A9710F";
shapes = (
{
closed = 1;
nodes = (
(612,-328,l),
(612,-231,l),
(359,-231,l),
(359,1439,l),
(612,1439,l),
(612,1536,l),
(170,1535,l),
(170,-327,l)
);
}
);
width = 768;
},
{
layerId = "62CA62AF-CD91-478A-AB8B-28A62CC47DA0";
shapes = (
{
closed = 1;
nodes = (
(752,-328,l),
(752,-211,l),
(503,-211,l),
(503,1419,l),
(752,1419,l),
(752,1536,l),
(190,1535,l),
(190,-327,l,{
name = hr00;
})
);
}
);
width = 915;
}
);
unicode = 91;
}
{
glyphname = bracketright;
kernLeft = bracketright;
kernRight = bracketright;
layers = (
{
layerId = "DD6F9F34-BC40-4E8F-B1D3-DF3B42A9710F";
shapes = (
{
closed = 1;
nodes = (
(595,-327,l),
(595,1535,l),
(156,1536,l),
(156,1439,l),
(409,1439,l),
(409,-231,l),
(156,-231,l),
(156,-328,l)
);
}
);
width = 768;
},
{
layerId = "62CA62AF-CD91-478A-AB8B-28A62CC47DA0";
shapes = (
{
closed = 1;
nodes = (
(725,-327,l,{
name = hr00;
}),
(725,1535,l),
(163,1536,l),
(163,1419,l),
(412,1419,l),
(412,-211,l),
(163,-211,l),
(163,-328,l)
);
}
);
width = 915;
}
);
unicode = 93;
}
{
glyphname = asciicircum;
kernLeft = asciicircum;
kernRight = asciicircum;
layers = (
{
layerId = "DD6F9F34-BC40-4E8F-B1D3-DF3B42A9710F";
shapes = (
{
closed = 1;
nodes = (
(277,300,l),
(657,1270,l),
(1048,300,l),
(1194,300,l),
(717,1428,l),
(598,1428,l),
(123,300,l)
);
}
);
width = 1317;
},
{
layerId = "62CA62AF-CD91-478A-AB8B-28A62CC47DA0";
shapes = (
{
closed = 1;
nodes = (
(389,299,l),
(719,1130,l),
(1050,299,l),
(1256,299,l),
(779,1428,l),
(660,1428,l),
(185,299,l,{
name = hr00;
})
);
}
);
width = 1440;
}
);
unicode = 94;
}
{
glyphname = c;
kernLeft = o;
kernRight = c;
layers = (
{
anchors = (
{
name = bottom;
pos = (475,0);
},
{
name = top;
pos = (543,994);
}
);
layerId = "DD6F9F34-BC40-4E8F-B1D3-DF3B42A9710F";
shapes = (
{
closed = 1;
nodes = (
(682,-29,o),
(799,55,o),
(858,173,cs),
(860,177,o),
(864,183,o),
(864,188,cs),
(864,193,o),
(861,197,o),
(853,201,cs),
(803,224,ls),
(791,230,o),
(788,216,o),
(784,208,cs),
(741,122,o),
(651,75,o),
(550,75,cs),
(445,75,o),
(284,178,o),
(284,490,cs),
(284,805,o),
(394,918,o),
(556,918,cs),
(613,918,o),
(640,897,o),
(640,897,c),
(724,710,ls),
(744,666,o),
(767,662,o),
(806,662,cs),
(841,662,o),
(877,697,o),
(877,757,cs),
(877,792,o),
(865,836,o),
(834,887,cs),
(772,989,o),
(655,1014,o),
(541,1014,cs),
(275,1014,o),
(69,824,o),
(69,500,cs),
(69,176,o),
(220,-29,o),
(512,-29,cs)
);
}
);
width = 930;
},
{
anchors = (
{
name = bottom;
pos = (566,0);
},
{
name = top;
pos = (663,994);
}
);
layerId = "62CA62AF-CD91-478A-AB8B-28A62CC47DA0";
shapes = (
{
closed = 1;
nodes = (
(795,-29,o),
(940,55,o),
(1007,173,cs),
(1011,180,o),
(1013,185,o),
(1013,190,cs),
(1013,195,o),
(1010,199,o),
(1003,202,c),
(959,223,l),
(946,226,o),
(939,215,o),
(933,208,cs),
(874,140,o),
(774,105,o),
(669,105,cs),
(542,105,o),
(415,224,o),
(415,490,cs),
(415,807,o),
(515,929,o),
(638,929,cs),
(665,929,o),
(684,921,o),
(694,912,c),
(797,667,ls),
(808,642,o),
(851,607,o),
(900,607,cs),
(949,607,o),
(1043,648,o),
(1043,755,cs),
(1043,777,o),
(1041,792,o),
(1029,820,cs),
(973,951,o),
(848,1014,o),
(643,1014,cs),
(303,1014,o),
(70,817,o),
(70,490,cs,{
name = hr00;
}),
(70,176,o),
(244,-29,o),
(643,-29,cs)
);
}
);
width = 1088;
}
);
unicode = 99;
}
{
glyphname = e;
kernLeft = o;
kernRight = e;
layers = (
{
anchors = (
{
name = bottom;
pos = (520,0);
},
{
name = ogonek;
pos = (662,10);
},
{
name = top;
pos = (520,994);
}
);
layerId = "DD6F9F34-BC40-4E8F-B1D3-DF3B42A9710F";
shapes = (
{
closed = 1;
nodes = (
(702,-29,o),
(807,55,o),
(866,173,cs),
(868,177,o),
(872,183,o),
(872,189,cs),
(872,193,o),
(869,198,o),
(861,201,c),
(811,224,l),
(798,227,o),
(796,216,o),
(792,208,cs),
(749,122,o),
(659,75,o),
(558,75,cs),
(426,75,o),
(286,186,o),
(284,503,c),
(922,503,l),
(922,562,o),
(919,618,o),
(910,669,cs),
(874,875,o),
(772,1014,o),
(520,1014,cs),
(281,1014,o),
(69,834,o),
(69,500,cs),
(69,166,o),
(226,-29,o),
(532,-29,cs)
);
},
{
closed = 1;
nodes = (
(297,873,o),
(376,918,o),
(519,918,cs),
(621,918,o),
(700,827,o),
(700,595,c),
(286,589,l)
);
}
);
width = 990;
},
{
anchors = (
{
name = bottom;
pos = (647,0);
},
{
name = ogonek;
pos = (830,10);
},
{
name = top;
pos = (633,994);
}
);
layerId = "62CA62AF-CD91-478A-AB8B-28A62CC47DA0";
shapes = (
{
closed = 1;
nodes = (
(853,-29,o),
(988,54,o),
(1056,173,cs),
(1060,180,o),
(1062,185,o),
(1062,190,cs),
(1062,195,o),
(1059,199,o),
(1052,202,cs),
(1008,223,l),
(995,226,o),
(988,215,o),
(982,208,cs),
(918,133,o),
(838,105,o),
(718,105,cs),
(578,105,o),
(409,200,o),
(409,508,c),
(1103,509,l),
(1103,564,o),
(1102,626,o),
(1094,674,cs),
(1059,885,o),
(935,1014,o),
(626,1014,cs),
(329,1014,o),
(69,836,o),
(69,502,cs,{
name = hr01;
}),
(69,168,o),
(246,-29,o),
(642,-29,cs)
);
},
{
closed = 1;
nodes = (
(431,838,o),
(524,929,o),
(623,929,cs),
(725,929,o),
(770,833,o),
(770,601,c),
(412,601,l)
);
}
);
width = 1171;
}
);
unicode = 101;
}
{
glyphname = g;
kernLeft = o;
kernRight = g;
layers = (
{
anchors = (
{
name = bottom;
pos = (476,-421);
},
{
name = top;
pos = (518,994);
}
);
layerId = "DD6F9F34-BC40-4E8F-B1D3-DF3B42A9710F";
shapes = (
{
closed = 1;
nodes = (
(801,-480,o),
(949,-301,o),
(950,-131,cs),
(951,105,o),
(833,160,o),
(621,160,cs),
(395,160,ls),
(315,160,o),
(257,200,o),
(257,271,cs),
(257,310,o),
(276,348,o),
(326,365,c),
(361,348,o),
(415,343,o),
(485,343,cs),
(711,343,o),
(847,497,o),
(847,680,cs),
(847,753,o),
(828,818,o),
(791,872,c),
(823,911,o),
(838,924,o),
(868,931,c),
(973,766,l),
(1010,766,o),
(1049,804,o),
(1049,868,cs),
(1049,955,o),
(1001,1022,o),
(913,1022,cs),
(843,1022,o),
(785,980,o),
(750,920,c),
(689,978,o),
(602,1014,o),
(491,1014,cs),
(265,1014,o),
(128,866,o),
(128,680,cs),
(128,580,o),
(168,466,o),
(261,404,c),
(185,382,o),
(116,288,o),
(116,204,cs),
(116,122,o),
(148,64,o),
(221,32,c),
(143,9,o),
(57,-47,o),
(57,-168,cs),
(57,-343,o),
(237,-480,o),
(503,-480,cs)
);
},
{
closed = 1;
nodes = (
(379,-383,o),
(239,-314,o),
(239,-149,cs),
(239,-73,o),
(266,-28,o),
(289,0,c,{
name = L;
}),
(319,-10,o),
(352,-19,o),
(434,-19,cs),
(612,-19,ls),
(724,-19,o),
(819,-54,o),
(819,-162,cs),
(819,-340,o),
(629,-383,o),
(523,-383,cs)
);
},
{
closed = 1;
nodes = (
(350,439,o),
(314,550,o),
(314,682,cs),
(314,817,o),
(348,921,o),
(485,921,cs),
(621,921,o),
(659,817,o),
(659,682,cs),
(659,550,o),
(625,439,o),
(489,439,cs)
);
}
);
width = 1043;
},
{
anchors = (
{
name = bottom;
pos = (561,-415);
},
{
name = top;
pos = (561,994);
}
);
layerId = "62CA62AF-CD91-478A-AB8B-28A62CC47DA0";
shapes = (
{
closed = 1;
nodes = (
(935,-477,o),
(1117,-278,o),
(1117,-108,cs),
(1117,94,o),
(963,214,o),
(754,214,cs),
(476,214,ls),
(377,214,o),
(308,218,o),
(308,273,cs,{
name = hr02;
}),
(308,310,o),
(329,349,o),
(359,374,c),
(409,362,o),
(462,356,o),
(529,356,cs),
(848,356,o),
(968,501,o),
(968,692,cs),
(968,765,o),
(947,826,o),
(908,878,c),
(927,888,o),
(948,894,o),
(982,894,c),
(1105,718,l),
(1172,718,o),
(1199,765,o),
(1199,854,cs),
(1199,972,o),
(1112,1014,o),
(1031,1014,cs),
(964,1014,o),
(899,972,o),
(855,931,c),
(786,983,o),
(705,1014,o),
(554,1014,cs),
(243,1014,o),
(94,879,o),
(94,688,cs,{
name = hr03;
}),
(94,569,o),
(150,451,o),
(298,393,c),
(196,361,o),
(97,292,o),
(97,191,cs,{
name = hr04;
}),
(97,124,o),
(114,57,o),
(239,5,c),
(114,-35,o),
(43,-103,o),
(43,-215,cs,{
name = hr01;
}),
(43,-412,o),
(308,-477,o),
(553,-477,cs)
);
},
{
closed = 1;
nodes = (
(471,-379,o),
(301,-325,o),
(301,-160,cs),
(301,-86,o),
(311,-56,o),
(324,-21,c,{
name = hr07;
}),
(354,-36,o),
(464,-43,o),
(494,-43,c),
(687,-43,l),
(823,-43,o),
(855,-123,o),
(855,-195,cs),
(855,-301,o),
(745,-379,o),
(583,-379,cs)
);
},
{
closed = 1;
nodes = (
(423,443,o),
(399,556,o),
(399,684,cs),
(399,812,o),
(424,926,o),
(534,926,cs),
(644,926,o),
(679,820,o),
(679,692,cs),
(679,564,o),
(644,443,o),
(534,443,cs,{
name = hr06;
})
);
}
);
width = 1181;
}
);
unicode = 103;
}
{
glyphname = m;
kernLeft = n;
kernRight = n;
layers = (
{
anchors = (
{
name = bottom;
pos = (934,0);
},
{
name = top;
pos = (915,994);
}
);
background = {
shapes = (
{
pos = (595,0);
ref = n;
}
);
};
layerId = "DD6F9F34-BC40-4E8F-B1D3-DF3B42A9710F";
shapes = (
{
closed = 1;
nodes = (
(520,0,ls),
(542,0,o),
(554,26,o),
(554,41,cs),
(554,71,o),
(546,75,o),
(518,78,cs),
(469,83,o),
(406,89,o),
(406,175,cs),
(406,771,l),
(461,822,o),
(568,896,o),
(693,896,cs),
(811,896,o),
(822,829,o),
(822,795,cs),
(822,142,ls),
(822,104,o),
(758,81,o),
(716,78,cs),
(690,76,o),
(685,62,o),
(685,41,cs),
(685,26,o),
(696,0,o),
(719,0,cs),
(1136,0,ls),
(1159,0,o),
(1170,26,o),
(1170,41,cs),
(1170,70,o),
(1159,75,o),
(1137,78,cs),
(1087,85,o),
(1010,79,o),
(1010,175,c),
(1010,741,l),
(1010,750,o),
(1010,761,o),
(1010,771,c),
(1068,822,o),
(1171,896,o),
(1297,896,cs),
(1415,896,o),
(1426,829,o),
(1426,795,cs),
(1426,142,ls),
(1426,104,o),
(1362,81,o),
(1320,78,cs),
(1294,76,o),
(1289,62,o),
(1289,41,cs),
(1289,26,o),
(1300,0,o),
(1323,0,cs),
(1750,0,ls),
(1773,0,o),
(1784,26,o),
(1784,41,cs),
(1784,70,o),
(1773,75,o),
(1751,78,cs),
(1701,85,o),
(1614,79,o),
(1614,175,cs),
(1614,766,ls),
(1614,974,o),
(1505,1014,o),
(1372,1014,cs),
(1180,1014,o),
(1041,893,o),
(1001,850,c),
(970,985,o),
(857,1014,o),
(764,1014,cs),
(571,1014,o),
(431,880,o),
(396,845,c),
(396,957,l),
(393,989,o),
(377,997,o),
(366,997,cs),
(311,997,o),
(200,996,o),
(71,988,cs,{
name = L;
}),
(55,987,o),
(47,959,o),
(47,943,cs),
(47,918,o),
(57,909,o),
(71,903,c),
(121,889,o),
(220,902,o),
(220,778,cs),
(220,142,ls),
(220,98,o),
(153,84,o),
(104,78,cs),
(78,75,o),
(71,62,o),
(71,41,cs),
(71,26,o),
(82,0,o),
(105,0,cs)
);
}
);
width = 1804;
},
{
anchors = (
{
name = bottom;
pos = (1071,0);
},
{
name = top;
pos = (1048,994);
}
);
layerId = "62CA62AF-CD91-478A-AB8B-28A62CC47DA0";
shapes = (
{
closed = 1;
nodes = (
(637,0,ls),
(659,0,o),
(671,26,o),
(671,41,cs),
(671,71,o),
(663,75,o),
(635,78,cs),
(586,82,o),
(533,88,o),
(533,165,cs),
(533,737,l),
(590,788,o),
(656,862,o),
(785,862,cs),
(904,862,o),
(913,760,o),
(913,711,cs),
(913,132,ls),
(913,100,o),
(851,81,o),
(809,78,c),
(783,75,o),
(778,62,o),
(778,41,cs),
(778,26,o),
(789,0,o),
(812,0,cs),
(1329,0,ls),
(1352,0,o),
(1363,26,o),
(1363,41,cs),
(1363,70,o),
(1352,75,o),
(1330,78,cs),
(1280,84,o),
(1221,79,o),
(1221,165,cs),
(1221,716,ls),
(1221,731,o),
(1220,745,o),
(1219,759,c),
(1279,808,o),
(1365,862,o),
(1469,862,cs),
(1588,862,o),
(1588,760,o),
(1588,711,cs),
(1588,132,ls),
(1588,100,o),
(1534,81,o),
(1492,78,c),
(1466,75,o),
(1461,62,o),
(1461,41,cs),
(1461,26,o),
(1472,0,o),
(1495,0,cs),
(2032,0,ls),
(2055,0,o),
(2066,26,o),
(2066,41,cs),
(2066,70,o),
(2055,75,o),
(2033,78,cs),
(1983,84,o),
(1906,79,o),
(1906,165,cs),
(1906,716,ls),
(1906,964,o),
(1782,1014,o),
(1634,1014,cs),
(1428,1014,o),
(1265,909,o),
(1200,860,c),
(1156,984,o),
(1051,1014,o),
(940,1014,cs),
(742,1014,o),
(565,890,o),
(523,845,c),
(523,957,l,{
name = hr02;
}),
(520,989,o),
(504,997,o),
(493,997,cs),
(415,996,o),
(252,991,o),
(68,983,cs),
(52,982,o),
(44,955,o),
(44,939,cs),
(44,914,o),
(54,905,o),
(68,899,c),
(118,885,o),
(217,902,o),
(217,778,cs),
(217,132,ls),
(217,95,o),
(160,82,o),
(111,78,c),
(85,75,o),
(78,62,o),
(78,41,cs,{
name = hr01;
}),
(78,26,o),
(89,0,o),
(112,0,cs)
);
}
);
width = 2080;
}
);
unicode = 109;
userData = {
com.typemytype.robofont.mark = (
0.967,
0.6,
1,
1
);
};
}
{
glyphname = o;
kernLeft = o;
kernRight = o;
layers = (
{
anchors = (
{
name = bottom;
pos = (545,0);
},
{
name = center;
pos = (545,497);
},
{
name = ogonek;
pos = (692,10);
},
{
name = top;
pos = (545,994);
},
{
name = topright;
pos = (1077,994);
}
);
layerId = "DD6F9F34-BC40-4E8F-B1D3-DF3B42A9710F";
shapes = (
{
closed = 1;
nodes = (
(77,204,o),
(250,-29,o),
(550,-29,cs),
(850,-29,o),
(1027,204,o),
(1027,492,cs),
(1027,780,o),
(857,1014,o),
(557,1014,cs),
(257,1014,o),
(77,780,o),
(77,492,cs)
);
},
{
closed = 1;
nodes = (
(292,759,o),
(347,918,o),
(549,918,cs),
(750,918,o),
(810,760,o),
(810,492,cs),
(810,224,o),
(754,66,o),
(553,66,cs),
(351,66,o),
(292,224,o),
(292,492,cs)
);
}
);
width = 1104;
},
{
anchors = (
{
name = bottom;
pos = (652,0);
},
{
name = center;
pos = (652,497);
},
{
name = ogonek;
pos = (832,10);
},
{
name = top;
pos = (652,994);
},
{
name = topright;
pos = (1283,994);
}
);
layerId = "62CA62AF-CD91-478A-AB8B-28A62CC47DA0";
shapes = (
{
closed = 1;
nodes = (
(76,146,o),
(301,-29,o),
(650,-29,cs),
(1000,-29,o),
(1226,146,o),
(1226,492,cs),
(1226,838,o),
(1007,1014,o),
(657,1014,cs),
(309,1014,o),
(76,838,o),
(76,492,cs,{
name = hr00;
})
);
},
{
closed = 1;
nodes = (
(427,759,o),
(471,918,o),
(649,918,cs),
(826,918,o),
(875,760,o),
(875,492,cs),
(875,224,o),
(830,66,o),
(653,66,cs),
(475,66,o),
(427,224,o),
(427,492,cs)
);
}
);
width = 1302;
}
);
unicode = 111;
}
{
glyphname = p;
kernLeft = p;
kernRight = o;
layers = (
{
anchors = (
{
name = bottom;
pos = (592,0);
},
{
name = top;
pos = (592,994);
}
);
layerId = "DD6F9F34-BC40-4E8F-B1D3-DF3B42A9710F";
shapes = (
{
closed = 1;
nodes = (
(545,-426,ls),
(568,-426,o),
(579,-400,o),
(579,-385,cs),
(579,-364,o),
(572,-351,o),
(546,-348,c),
(467,-343,o),
(370,-328,o),
(370,-284,cs),
(370,-29,l),
(360,43,l),
(422,-12,o),
(520,-30,o),
(625,-30,cs),
(941,-30,o),
(1078,223,o),
(1078,492,cs),
(1078,762,o),
(962,1014,o),
(647,1014,cs),
(554,1014,o),
(441,967,o),
(370,894,c),
(370,957,l),
(367,989,o),
(351,997,o),
(340,997,cs),
(285,997,o),
(164,996,o),
(35,988,cs,{
name = L;
}),
(19,987,o),
(11,959,o),
(11,943,cs),
(11,918,o),
(21,909,o),
(35,903,c),
(85,889,o),
(184,902,o),
(184,778,cs),
(184,-251,ls),
(184,-337,o),
(111,-343,o),
(62,-348,cs),
(34,-351,o),
(26,-355,o),
(26,-385,cs),
(26,-400,o),
(38,-426,o),
(60,-426,cs)
);
},
{
closed = 1;
nodes = (
(484,65,o),
(410,95,o),
(370,158,c),
(370,817,l),
(417,872,o),
(511,918,o),
(584,918,cs),
(807,918,o),
(864,732,o),
(864,492,cs),
(864,252,o),
(811,65,o),
(588,65,cs)
);
}
);
width = 1170;
},
{
anchors = (
{
name = bottom;
pos = (672,0);
},
{
name = top;
pos = (672,994);
}
);
background = {
shapes = (
{
closed = 1;
nodes = (
(594,0,ls),
(617,0,o),
(628,26,o),
(628,41,cs),
(628,71,o),
(620,75,o),
(592,78,cs),
(543,83,o),
(495,88,o),
(495,165,cs),
(495,340,l),
(620,461,l),
(686,333,o),
(818,0,o),
(858,0,cs),
(1257,0,ls),
(1280,0,o),
(1291,26,o),
(1291,41,cs),
(1291,70,o),
(1280,75,o),
(1258,78,cs),
(1208,85,o),
(1150,132,o),
(1110,198,cs),
(1029,332,o),
(925,494,o),
(840,666,c),
(1027,837,l),
(1076,876,o),
(1151,906,o),
(1215,906,cs),
(1237,906,o),
(1248,925,o),
(1248,949,cs),
(1248,964,o),
(1237,994,o),
(1214,994,cs),
(757,994,ls),
(734,994,o),
(723,964,o),
(723,949,cs),
(723,928,o),
(727,909,o),
(754,906,c),
(807,903,o),
(878,884,o),
(878,857,cs),
(878,852,o),
(875,847,o),
(869,842,c),
(495,485,l),
(495,1508,ls),
(495,1540,o),
(476,1548,o),
(465,1548,cs),
(383,1548,o),
(224,1546,o),
(35,1534,cs),
(19,1533,o),
(11,1506,o),
(11,1490,cs),
(11,1465,o),
(21,1456,o),
(35,1450,c),
(89,1436,o),
(184,1453,o),
(184,1329,cs),
(184,132,ls),
(184,95,o),
(137,82,o),
(88,78,c),
(62,75,o),
(55,62,o),
(55,41,cs,{
name = hr00;
}),
(55,26,o),
(66,0,o),
(89,0,cs)
);
}
);
};
layerId = "62CA62AF-CD91-478A-AB8B-28A62CC47DA0";
shapes = (
{
closed = 1;
nodes = (
(675,-426,ls),
(698,-426,o),
(709,-400,o),
(709,-385,cs),
(709,-364,o),
(702,-351,o),
(676,-348,c),
(597,-343,o),
(496,-328,o),
(496,-284,cs),
(496,-87,l),
(490,9,l),
(578,-21,o),
(670,-29,o),
(756,-29,cs),
(1100,-29,o),
(1266,224,o),
(1266,493,cs),
(1266,763,o),
(1147,1014,o),
(818,1014,cs),
(702,1014,o),
(558,969,o),
(490,876,c),
(490,957,l,{
name = hr02;
}),
(487,989,o),
(471,997,o),
(460,997,cs),
(382,996,o),
(219,991,o),
(35,983,cs),
(19,982,o),
(11,955,o),
(11,939,cs),
(11,914,o),
(21,905,o),
(35,899,c),
(85,885,o),
(184,902,o),
(184,778,cs),
(184,-251,ls,{
name = hr01;
}),
(184,-337,o),
(111,-343,o),
(62,-348,cs),
(34,-351,o),
(26,-355,o),
(26,-385,cs),
(26,-400,o),
(38,-426,o),
(60,-426,cs)
);
},
{
closed = 1;
nodes = (
(596,76,o),
(513,125,o),
(496,164,c),
(496,776,l,{
name = hr03;
}),
(530,838,o),
(614,869,o),
(675,869,cs),
(865,869,o),
(929,712,o),
(929,493,cs),
(929,245,o),
(865,76,o),
(659,76,cs)
);
}
);
width = 1347;
}
);
unicode = 112;
userData = {
com.typemytype.robofont.mark = (
0.967,
0.6,
1,
1
);
};
}
{
glyphname = braceleft;
kernLeft = braceleft;
kernRight = braceleft;
layers = (
{
layerId = "DD6F9F34-BC40-4E8F-B1D3-DF3B42A9710F";
shapes = (
{
closed = 1;
nodes = (
(821,-328,l),
(821,-241,l),
(708,-241,ls),
(600,-241,o),
(562,-148,o),
(562,-72,cs),
(562,325,ls),
(562,480,o),
(392,588,o),
(230,604,c),
(230,609,l),
(402,616,o),
(562,720,o),
(562,883,cs),
(562,1280,ls),
(562,1356,o),
(600,1449,o),
(708,1449,cs),
(821,1449,l),
(821,1536,l),
(688,1536,ls),
(548,1536,o),
(361,1459,o),
(361,1237,cs),
(361,850,ls),
(361,741,o),
(247,659,o),
(142,659,cs),
(72,659,l),
(72,549,l),
(142,549,ls),
(247,549,o),
(361,467,o),
(361,358,cs),
(361,-29,ls),
(361,-251,o),
(548,-328,o),
(688,-328,cs)
);
}
);
width = 881;
},
{
layerId = "62CA62AF-CD91-478A-AB8B-28A62CC47DA0";
shapes = (
{
closed = 1;
nodes = (
(901,-328,l),
(901,-221,l),
(788,-221,ls),
(680,-221,o),
(642,-128,o),
(642,-52,cs),
(642,325,ls),
(642,488,o),
(474,579,o),
(290,587,c),
(290,618,l,{
name = hr02;
}),
(470,628,o),
(642,723,o),
(642,883,cs,{
name = hr03;
}),
(642,1260,ls),
(642,1336,o),
(678,1429,o),
(788,1429,cs),
(901,1429,l),
(901,1536,l),
(728,1536,ls),
(548,1536,o),
(311,1459,o),
(311,1237,cs),
(311,850,ls),
(311,741,o),
(197,654,o),
(92,654,cs),
(72,654,l,{
name = hr04;
}),
(72,554,l),
(92,554,ls),
(197,554,o),
(311,467,o),
(311,358,cs,{
name = hr05;
}),
(311,-29,ls,{
name = hr01;
}),
(311,-251,o),
(548,-328,o),
(728,-328,cs)
);
}
);
width = 1024;
}
);
unicode = 123;
}
{
glyphname = asciitilde;
kernLeft = asciitilde;
kernRight = asciitilde;
layers = (
{
layerId = "DD6F9F34-BC40-4E8F-B1D3-DF3B42A9710F";
shapes = (
{
closed = 1;
nodes = (
(918,425,o),
(986,463,o),
(1027,510,cs),
(1067,556,o),
(1093,597,o),
(1116,642,cs),
(1119,648,o),
(1122,655,o),
(1122,662,cs),
(1122,683,o),
(1104,703,o),
(1083,703,cs),
(1079,703,o),
(1076,703,o),
(1072,702,c),
(1032,686,o),
(990,574,o),
(870,574,cs),
(834,574,o),
(791,584,o),
(740,609,cs),
(649,648,o),
(581,705,o),
(472,705,cs),
(406,705,o),
(349,679,o),
(301,630,cs),
(261,590,o),
(231,537,o),
(202,488,cs),
(198,482,o),
(196,475,o),
(196,468,cs),
(196,447,o),
(214,427,o),
(235,427,cs),
(239,427,o),
(242,427,o),
(246,428,c),
(286,444,o),
(328,556,o),
(448,556,cs),
(484,556,o),
(527,546,o),
(578,521,cs),
(672,482,o),
(742,425,o),
(856,425,cs)
);
}
);
width = 1317;
},
{
background = {
shapes = (
{
closed = 1;
nodes = (
(1045,395,o),
(1138,492,o),
(1187,609,cs),
(1193,623,o),
(1201,663,o),
(1192,674,cs),
(1176,693,o),
(1154,715,o),
(1139,712,c),
(1100,696,o),
(1052,592,o),
(934,592,cs),
(792,592,o),
(678,735,o),
(529,735,cs,{
name = hr04;
}),
(397,735,o),
(307,626,o),
(252,518,cs),
(245,504,o),
(241,469,o),
(250,456,cs),
(265,436,o),
(288,415,o),
(303,418,c,{
name = hr01;
}),
(342,434,o),
(384,538,o),
(499,538,cs,{
name = hr02;
}),
(642,538,o),
(761,395,o),
(913,395,cs,{
name = hr03;
})
);
}
);
};
layerId = "62CA62AF-CD91-478A-AB8B-28A62CC47DA0";
shapes = (
{
closed = 1;
nodes = (
(979,425,o),
(1047,469,o),
(1088,523,cs),
(1128,575,o),
(1155,602,o),
(1177,654,cs),
(1180,661,o),
(1183,669,o),
(1183,677,cs),
(1183,701,o),
(1165,724,o),
(1144,724,cs),
(1140,724,o),
(1137,724,o),
(1133,723,c),
(1093,705,o),
(1051,596,o),
(931,596,cs),
(895,596,o),
(852,607,o),
(801,636,cs),
(712,686,o),
(642,747,o),
(533,747,cs),
(467,747,o),
(411,716,o),
(362,660,cs),
(322,614,o),
(295,572,o),
(263,517,cs),
(259,510,o),
(257,502,o),
(257,494,cs),
(257,470,o),
(275,447,o),
(296,447,cs),
(300,447,o),
(303,447,o),
(307,448,c),
(347,467,o),
(389,575,o),
(509,575,cs),
(545,575,o),
(588,564,o),
(639,535,cs),
(730,484,o),
(803,425,o),
(917,425,cs)
);
}
);
width = 1440;
}
);
unicode = 126;
}
{
glyphname = sterling;
kernLeft = sterling;
kernRight = sterling;
layers = (
{
layerId = "DD6F9F34-BC40-4E8F-B1D3-DF3B42A9710F";
shapes = (
{
closed = 1;
nodes = (
(1018,-16,o),
(1206,89,o),
(1206,275,cs),
(1206,382,o),
(1150,479,o),
(1055,479,cs),
(997,479,o),
(951,437,o),
(950,418,c),
(1008,268,l),
(995,169,o),
(908,80,o),
(732,88,cs),
(573,95,o),
(535,154,o),
(403,193,c),
(464,253,o),
(525,406,o),
(525,603,cs),
(525,679,l),
(808,679,l),
(822,685,o),
(832,707,o),
(832,732,cs),
(832,748,o),
(824,765,o),
(808,766,c),
(524,766,l),
(524,873,ls),
(524,1233,o),
(612,1356,o),
(774,1356,c),
(813,1356,l),
(966,1106,ls),
(973,1094,o),
(985,1089,o),
(999,1089,cs),
(1052,1089,o),
(1138,1165,o),
(1138,1218,cs),
(1138,1287,o),
(1038,1448,o),
(808,1448,cs),
(442,1448,o),
(318,1208,o),
(318,871,cs),
(318,766,l),
(119,766,l),
(105,760,o),
(95,738,o),
(95,713,cs),
(95,697,o),
(103,680,o),
(119,679,c),
(318,679,l),
(318,473,ls),
(318,395,o),
(311,295,o),
(284,236,c),
(254,219,o),
(52,200,o),
(52,92,cs),
(52,12,o),
(113,0,o),
(150,0,cs),
(237,0,o),
(290,86,o),
(305,118,c),
(318,118,l),
(404,118,o),
(522,-16,o),
(821,-16,cs)
);
}
);
width = 1274;
},
{
layerId = "62CA62AF-CD91-478A-AB8B-28A62CC47DA0";
shapes = (
{
closed = 1;
nodes = (
(1116,-16,o),
(1323,115,o),
(1323,340,cs),
(1323,441,o),
(1242,510,o),
(1145,510,cs),
(1056,510,o),
(997,439,o),
(996,418,c),
(1074,216,l),
(1042,149,o),
(953,107,o),
(803,107,cs),
(671,107,o),
(617,145,o),
(497,198,c),
(574,279,o),
(611,406,o),
(611,603,cs),
(611,690,l),
(927,690,l),
(941,696,o),
(951,738,o),
(951,763,cs),
(951,779,o),
(943,796,o),
(927,797,c),
(611,797,l,{
name = hr03;
}),
(611,920,l),
(611,1244,o),
(681,1357,o),
(799,1357,c),
(825,1357,l),
(975,1100,ls),
(1003,1053,o),
(1048,1029,o),
(1093,1029,cs),
(1161,1029,o),
(1228,1083,o),
(1228,1190,cs),
(1228,1259,o),
(1124,1448,o),
(833,1448,cs),
(415,1448,o),
(292,1208,o),
(292,871,cs),
(292,797,l),
(154,797,l),
(140,791,o),
(130,769,o),
(130,744,cs),
(130,728,o),
(138,691,o),
(154,690,c),
(292,690,l,{
name = hr04;
}),
(292,493,ls),
(292,366,o),
(282,257,o),
(265,246,c),
(138,239,o),
(55,166,o),
(55,91,cs,{
name = hr01;
}),
(55,31,o),
(109,0,o),
(163,0,cs),
(289,0,o),
(317,82,o),
(361,112,c),
(372,112,l),
(463,96,o),
(580,-16,o),
(812,-16,cs,{
name = hr02;
})
);
}
);
width = 1413;
}
);
unicode = 163;
}
{
glyphname = brokenbar;
kernLeft = brokenbar;
kernRight = brokenbar;
layers = (
{
layerId = "DD6F9F34-BC40-4E8F-B1D3-DF3B42A9710F";
shapes = (
{
closed = 1;
nodes = (
(457,765,l),
(457,1535,l),
(312,1535,l),
(312,765,l)
);
},
{
closed = 1;
nodes = (
(457,-369,l),
(457,401,l),
(312,401,l),
(312,-369,l)
);
}
);
width = 768;
},
{
layerId = "62CA62AF-CD91-478A-AB8B-28A62CC47DA0";
shapes = (
{
closed = 1;
nodes = (
(475,765,l),
(475,1535,l),
(320,1535,l),
(320,765,l,{
name = hr00;
})
);
},
{
closed = 1;
nodes = (
(475,-369,l),
(475,401,l),
(320,401,l),
(320,-369,l)
);
}
);
width = 794;
}
);
unicode = 166;
}
{
glyphname = AE;
kernLeft = A;
kernRight = E;
layers = (
{
anchors = (
{
name = top;
pos = (1030,1419);
}
);
background = {
shapes = (
{
closed = 1;
nodes = (
(391,0,ls),
(414,0,o),
(425,36,o),
(425,51,cs),
(425,72,o),
(418,85,o),
(392,88,c),
(288,92,o),
(229,97,o),
(229,126,cs),
(229,130,o),
(231,136,o),
(234,142,cs),
(475,657,l),
(871,657,l),
(871,152,ls),
(871,108,o),
(780,93,o),
(716,88,c),
(690,85,o),
(683,72,o),
(683,51,cs),
(683,36,o),
(694,0,o),
(717,0,cs),
(1812,1,l),
(1855,412,l),
(1855,435,o),
(1829,446,o),
(1814,446,cs),
(1793,446,o),
(1770,439,o),
(1767,413,cs),
(1761,364,o),
(1636,101,o),
(1543,101,cs),
(1167,101,l),
(1123,105,o),
(1078,124,o),
(1078,197,cs),
(1078,657,l),
(1332,657,ls),
(1388,657,o),
(1428,516,o),
(1433,473,cs),
(1436,447,o),
(1469,440,o),
(1490,440,cs),
(1505,440,o),
(1531,451,o),
(1531,474,cs),
(1531,917,ls),
(1531,940,o),
(1505,951,o),
(1490,951,cs),
(1469,951,o),
(1436,944,o),
(1433,918,cs),
(1428,878,o),
(1390,750,o),
(1338,743,c),
(1078,743,l),
(1079,1320,l),
(1473,1320,ls),
(1581,1320,o),
(1673,1102,o),
(1679,1053,cs),
(1682,1027,o),
(1705,1020,o),
(1726,1020,cs),
(1741,1020,o),
(1767,1031,o),
(1767,1054,c),
(1732,1418,l),
(451,1419,ls),
(428,1419,o),
(417,1393,o),
(417,1378,cs),
(417,1348,o),
(425,1333,o),
(453,1331,cs),
(510,1327,o),
(603,1322,o),
(686,1318,c),
(100,165,ls),
(58,82,o),
(-12,93,o),
(-61,88,cs),
(-89,85,o),
(-97,81,o),
(-97,51,cs),
(-97,36,o),
(-85,0,o),
(-63,0,cs)
);
},
{
closed = 1;
nodes = (
(794,1313,l),
(806,1312,o),
(860,1312,o),
(872,1311,c),
(872,743,l),
(520,743,l)
);
}
);
};
guides = (
{
pos = (1640,951);
}
);
layerId = "DD6F9F34-BC40-4E8F-B1D3-DF3B42A9710F";
shapes = (
{
closed = 1;
nodes = (
(391,0,ls),
(408,0,o),
(425,25,o),
(425,51,cs),
(425,75,o),
(416,87,o),
(388,88,cs),
(298,91,o),
(229,99,o),
(229,124,cs),
(229,129,o),
(231,136,o),
(234,142,cs),
(475,657,l),
(871,657,l),
(871,152,ls),
(871,108,o),
(780,93,o),
(716,88,cs),
(690,85,o),
(683,72,o),
(683,51,cs),
(683,36,o),
(694,0,o),
(717,0,cs),
(1812,1,l),
(1855,412,l),
(1855,435,o),
(1829,446,o),
(1814,446,cs),
(1793,446,o),
(1770,439,o),
(1767,413,cs),
(1761,364,o),
(1636,101,o),
(1543,101,cs),
(1167,101,ls),
(1123,101,o),
(1078,124,o),
(1078,197,cs),
(1078,657,l),
(1332,657,ls),
(1388,657,o),
(1428,516,o),
(1433,473,cs),
(1436,447,o),
(1469,440,o),
(1490,440,cs),
(1505,440,o),
(1531,451,o),
(1531,474,cs),
(1531,917,ls),
(1531,940,o),
(1505,951,o),
(1490,951,cs),
(1469,951,o),
(1436,944,o),
(1433,918,cs),
(1428,878,o),
(1390,750,o),
(1338,743,c),
(1078,743,l),
(1079,1320,l),
(1473,1320,ls),
(1581,1320,o),
(1673,1102,o),
(1679,1053,cs),
(1682,1027,o),
(1705,1020,o),
(1726,1020,cs),
(1741,1020,o),
(1767,1031,o),
(1767,1054,c),
(1732,1418,l),
(451,1419,ls),
(433,1419,o),
(417,1401,o),
(417,1378,cs),
(417,1343,o),
(429,1333,o),
(453,1331,cs),
(510,1327,o),
(603,1322,o),
(686,1318,c),
(100,165,ls),
(58,82,o),
(-12,93,o),
(-61,88,cs),
(-91,85,o),
(-97,78,o),
(-97,51,cs),
(-97,36,o),
(-85,0,o),
(-63,0,cs)
);
},
{
closed = 1;
nodes = (
(794,1313,l),
(806,1312,o),
(860,1312,o),
(872,1311,c),
(872,743,l),
(520,743,l)
);
}
);
width = 1988;
},
{
anchors = (
{
name = top;
pos = (1168,1419);
}
);
background = {
shapes = (
{
closed = 1;
nodes = (
(470,0,ls),
(493,0,o),
(504,36,o),
(504,51,cs),
(504,72,o),
(497,85,o),
(471,88,c,{
name = hr02;
}),
(343,88,o),
(296,102,o),
(296,140,cs),
(296,153,o),
(301,168,o),
(310,186,cs),
(493,550,l),
(1000,550,l),
(1000,152,ls),
(1000,108,o),
(909,93,o),
(845,88,cs,{
name = hr03;
}),
(819,85,o),
(812,72,o),
(812,51,cs),
(812,36,o),
(823,0,o),
(846,0,cs),
(2123,0,l),
(2123,372,l),
(2125,395,o),
(2094,406,o),
(2074,406,cs),
(2043,406,o),
(2013,395,o),
(2005,370,cs),
(1989,320,o),
(1960,101,o),
(1817,101,cs),
(1428,101,ls),
(1384,101,o),
(1339,124,o),
(1339,197,cs),
(1339,682,l),
(1610,682,ls),
(1666,682,o),
(1711,546,o),
(1714,503,c),
(1717,477,o),
(1742,470,o),
(1763,470,cs),
(1778,470,o),
(1804,481,o),
(1804,504,cs),
(1804,947,ls),
(1804,970,o),
(1778,981,o),
(1763,981,cs),
(1742,981,o),
(1720,975,o),
(1717,949,cs),
(1712,909,o),
(1668,785,o),
(1616,778,c),
(1339,778,l),
(1339,1320,l),
(1735,1320,ls),
(1867,1320,o),
(1890,1176,o),
(1942,1093,cs),
(1957,1069,o),
(1981,1060,o),
(2002,1060,cs),
(2017,1060,o),
(2043,1071,o),
(2043,1094,c),
(2008,1419,l),
(523,1419,ls),
(500,1419,o),
(489,1393,o),
(489,1378,cs),
(489,1348,o),
(497,1333,o),
(525,1331,cs,{
name = hr04;
}),
(574,1327,o),
(669,1319,o),
(765,1310,c),
(154,165,ls),
(110,82,o),
(17,93,o),
(-32,88,cs),
(-60,85,o),
(-68,81,o),
(-68,51,cs),
(-68,36,o),
(-56,0,o),
(-34,0,cs,{
name = hr01;
})
);
},
{
closed = 1;
nodes = (
(870,1300,l,{
name = hr06;
}),
(922,1294,o),
(968,1288,o),
(1000,1283,c),
(1000,646,l),
(541,646,l)
);
}
);
};
guides = (
{
pos = (1812,981);
},
{
pos = (2101,406);
}
);
layerId = "62CA62AF-CD91-478A-AB8B-28A62CC47DA0";
shapes = (
{
closed = 1;
nodes = (
(470,0,ls),
(488,0,o),
(504,26,o),
(504,51,cs),
(504,76,o),
(492,88,o),
(468,88,cs,{
name = hr02;
}),
(344,89,o),
(296,102,o),
(296,140,cs),
(296,153,o),
(301,168,o),
(310,186,cs),
(493,550,l),
(1000,550,l),
(1000,152,ls),
(1000,108,o),
(909,93,o),
(845,88,cs,{
name = hr03;
}),
(819,85,o),
(812,72,o),
(812,51,cs),
(812,36,o),
(823,0,o),
(846,0,cs),
(2123,0,l),
(2123,372,l),
(2125,395,o),
(2094,406,o),
(2074,406,cs),
(2043,406,o),
(2013,395,o),
(2005,370,cs),
(1989,320,o),
(1960,101,o),
(1817,101,cs),
(1428,101,ls),
(1384,101,o),
(1339,124,o),
(1339,197,cs),
(1339,682,l),
(1610,682,ls),
(1666,682,o),
(1711,546,o),
(1714,503,cs),
(1717,477,o),
(1742,470,o),
(1763,470,cs),
(1778,470,o),
(1804,481,o),
(1804,504,cs),
(1804,947,ls),
(1804,970,o),
(1778,981,o),
(1763,981,cs),
(1742,981,o),
(1720,975,o),
(1717,949,cs),
(1712,909,o),
(1668,785,o),
(1616,778,c),
(1339,778,l),
(1339,1320,l),
(1735,1320,ls),
(1867,1320,o),
(1890,1176,o),
(1942,1093,cs),
(1957,1069,o),
(1981,1060,o),
(2002,1060,cs),
(2017,1060,o),
(2043,1071,o),
(2043,1094,c),
(2008,1419,l),
(523,1419,ls),
(500,1419,o),
(489,1393,o),
(489,1378,cs),
(489,1348,o),
(497,1333,o),
(525,1331,cs,{
name = hr04;
}),
(574,1327,o),
(669,1319,o),
(765,1310,c),
(154,165,ls),
(110,82,o),
(17,93,o),
(-32,88,cs),
(-60,85,o),
(-68,81,o),
(-68,51,cs),
(-68,36,o),
(-56,0,o),
(-34,0,cs,{
name = hr01;
})
);
},
{
closed = 1;
nodes = (
(870,1300,l,{
name = hr06;
}),
(922,1294,o),
(968,1288,o),
(1000,1283,c),
(1000,646,l),
(541,646,l)
);
}
);
width = 2191;
}
);
unicode = 198;
}
{
glyphname = Thorn;
kernLeft = H;
kernRight = Thorn;
layers = (
{
layerId = "DD6F9F34-BC40-4E8F-B1D3-DF3B42A9710F";
shapes = (
{
closed = 1;
nodes = (
(694,0,ls),
(717,0,o),
(728,36,o),
(728,51,cs),
(728,81,o),
(720,85,o),
(692,88,cs),
(631,93,o),
(490,99,o),
(490,185,cs),
(490,309,l),
(699,309,ls),
(999,309,o),
(1192,492,o),
(1192,754,cs),
(1192,1057,o),
(975,1155,o),
(740,1155,cs),
(491,1153,l),
(491,1267,ls),
(491,1311,o),
(572,1326,o),
(636,1331,c),
(662,1334,o),
(669,1347,o),
(669,1368,cs),
(669,1383,o),
(658,1419,o),
(635,1419,cs),
(130,1419,ls),
(107,1419,o),
(96,1383,o),
(96,1368,cs),
(96,1338,o),
(104,1334,o),
(132,1331,cs),
(193,1326,o),
(284,1320,o),
(284,1234,cs),
(283,152,ls),
(283,108,o),
(202,93,o),
(138,88,c),
(112,85,o),
(105,72,o),
(105,51,cs),
(105,36,o),
(116,0,o),
(139,0,cs)
);
},
{
closed = 1;
nodes = (
(491,1076,l),
(663,1076,ls),
(822,1076,o),
(971,1001,o),
(971,733,cs),
(971,473,o),
(771,395,o),
(696,395,cs),
(490,395,l)
);
}
);
width = 1258;
},
{
layerId = "62CA62AF-CD91-478A-AB8B-28A62CC47DA0";
shapes = (
{
closed = 1;
nodes = (
(769,0,ls),
(792,0,o),
(803,36,o),
(803,51,cs),
(803,81,o),
(795,85,o),
(767,88,cs),
(706,95,o),
(616,99,o),
(616,185,cs),
(616,318,l),
(821,318,ls),
(1226,318,o),
(1394,503,o),
(1394,749,cs),
(1394,1024,o),
(1190,1145,o),
(792,1140,cs),
(616,1138,l),
(616,1267,ls),
(616,1311,o),
(693,1326,o),
(761,1331,c),
(787,1334,o),
(794,1347,o),
(794,1368,cs),
(794,1383,o),
(783,1419,o),
(760,1419,cs),
(135,1419,ls),
(112,1419,o),
(101,1383,o),
(101,1368,cs),
(101,1338,o),
(109,1334,o),
(137,1331,cs),
(198,1324,o),
(279,1320,o),
(279,1234,cs),
(279,152,ls),
(279,108,o),
(207,93,o),
(143,88,c),
(117,85,o),
(110,72,o),
(110,51,cs,{
name = hr00;
}),
(110,36,o),
(121,0,o),
(144,0,cs)
);
},
{
closed = 1;
nodes = (
(616,1061,l),
(681,1061,ls),
(839,1061,o),
(1026,1018,o),
(1026,728,cs),
(1026,436,o),
(793,401,o),
(718,401,cs),
(616,401,l)
);
}
);
width = 1450;
}
);
unicode = 222;
}
{
color = 1;
glyphname = Dhook;
layers = (
{
anchors = (
{
name = bottom;
pos = (766,0);
},
{
name = center;
pos = (766,710);
},
{
name = top;
pos = (766,1419);
}
);
layerId = "DD6F9F34-BC40-4E8F-B1D3-DF3B42A9710F";
shapes = (
{
closed = 1;
nodes = (
(778,0,ls),
(1078,0,o),
(1456,217,o),
(1456,738,cs),
(1456,1083,o),
(1270,1419,o),
(726,1419,cs),
(286,1419,ls),
(-18,1418,o),
(-161,1256,o),
(-161,1065,cs),
(-161,937,o),
(-100,873,o),
(-29,873,cs),
(51,873,o),
(103,946,o),
(103,981,cs),
(103,986,o),
(102,990,o),
(100,992,c),
(-63,1101,l),
(-63,1167,o),
(-22,1325,o),
(284,1320,c),
(284,152,ls),
(284,108,o),
(203,93,o),
(139,88,cs),
(113,85,o),
(106,72,o),
(106,51,cs,{
name = hr00;
}),
(106,36,o),
(117,0,o),
(140,0,cs)
);
},
{
closed = 1;
nodes = (
(530,101,o),
(496,140,o),
(496,168,cs),
(497,1322,l),
(694,1322,ls),
(927,1322,o),
(1210,1229,o),
(1210,734,cs),
(1210,161,o),
(947,101,o),
(704,101,cs)
);
}
);
width = 1534;
},
{
anchors = (
{
name = bottom;
pos = (1002,0);
},
{
name = center;
pos = (1049,710);
},
{
name = top;
pos = (1049,1419);
}
);
layerId = "62CA62AF-CD91-478A-AB8B-28A62CC47DA0";
shapes = (
{
closed = 1;
nodes = (
(1126,0,ls),
(1426,0,o),
(1864,217,o),
(1864,738,cs),
(1864,1083,o),
(1598,1417,o),
(1054,1419,cs),
(517,1419,ls),
(194,1419,o),
(10,1229,o),
(10,985,cs),
(10,832,o),
(79,756,o),
(157,756,cs),
(239,756,o),
(299,809,o),
(298,874,c),
(298,874,o),
(297,885,o),
(295,885,c),
(124,1013,l),
(124,1066,o),
(177,1322,o),
(512,1322,c),
(512,152,ls),
(512,108,o),
(431,93,o),
(367,88,cs),
(341,85,o),
(334,72,o),
(334,51,cs,{
name = hr00;
}),
(334,36,o),
(345,0,o),
(368,0,cs)
);
},
{
closed = 1;
nodes = (
(883,101,o),
(849,140,o),
(849,168,cs),
(850,1322,l),
(1047,1322,ls),
(1280,1322,o),
(1474,1229,o),
(1474,734,cs),
(1474,161,o),
(1300,101,o),
(1057,101,cs)
);
}
);
width = 1931;
}
);
metricRight = D;
unicode = 394;
}
{
glyphname = Schwa;
kernLeft = O;
kernRight = O;
layers = (
{
anchors = (
{
name = bottom;
pos = (743,0);
},
{
name = top;
pos = (743,1419);
}
);
layerId = "DD6F9F34-BC40-4E8F-B1D3-DF3B42A9710F";
shapes = (
{
closed = 1;
nodes = (
(994,-30,o),
(1392,153,o),
(1392,706,cs),
(1392,1256,o),
(989,1449,o),
(693,1449,cs),
(428,1449,o),
(299,1392,o),
(228,1361,c),
(206,1051,l),
(203,1028,o),
(226,1011,o),
(242,1011,cs),
(246,1011,o),
(249,1010,o),
(253,1010,cs),
(271,1010,o),
(287,1017,o),
(290,1039,c),
(337,1207,o),
(459,1355,o),
(695,1353,cs),
(847,1352,o),
(1143,1260,o),
(1143,706,cs),
(1143,217,o),
(876,65,o),
(706,65,cs),
(486,65,o),
(341,272,o),
(341,522,cs),
(341,580,o),
(349,612,o),
(352,628,c),
(1170,628,l),
(1198,631,o),
(1206,635,o),
(1206,665,cs),
(1206,680,o),
(1195,716,o),
(1172,716,cs),
(152,716,ls),
(140,716,o),
(128,662,o),
(128,583,cs),
(128,331,o),
(270,-30,o),
(722,-30,cs)
);
}
);
width = 1485;
},
{
anchors = (
{
name = bottom;
pos = (827,0);
},
{
name = top;
pos = (827,1419);
}
);
layerId = "62CA62AF-CD91-478A-AB8B-28A62CC47DA0";
shapes = (
{
closed = 1;
nodes = (
(1082,-30,o),
(1555,153,o),
(1555,706,cs,{
name = hr00;
}),
(1555,1256,o),
(1080,1449,o),
(736,1449,cs),
(476,1449,o),
(298,1392,o),
(228,1361,c),
(206,1051,ls),
(204,1028,o),
(245,1011,o),
(262,1011,cs),
(266,1011,o),
(270,1010,o),
(276,1010,cs),
(302,1010,o),
(344,1017,o),
(348,1039,c),
(394,1207,o),
(494,1353,o),
(738,1353,cs),
(882,1353,o),
(1176,1260,o),
(1176,706,cs),
(1176,217,o),
(957,65,o),
(749,65,cs),
(558,65,o),
(457,248,o),
(457,424,cs),
(457,465,o),
(458,513,o),
(469,546,c),
(1249,553,l),
(1277,555,o),
(1285,560,o),
(1285,590,cs),
(1285,605,o),
(1274,641,o),
(1251,641,cs),
(133,641,ls),
(119,641,o),
(104,590,o),
(104,517,cs),
(104,286,o),
(287,-30,o),
(766,-30,cs)
);
}
);
width = 1653;
}
);
unicode = 399;
}
{
glyphname = Ohorn;
kernLeft = O;
kernRight = O;
layers = (
{
anchors = (
{
name = bottom;
pos = (762,0);
},
{
name = top;
pos = (762,1419);
}
);
layerId = "DD6F9F34-BC40-4E8F-B1D3-DF3B42A9710F";
shapes = (
{
closed = 1;
nodes = (
(1242,1322,o),
(1474,1398,o),
(1474,1633,cs),
(1474,1648,o),
(1472,1663,o),
(1469,1680,c),
(1296,1680,l),
(1297,1671,o),
(1297,1659,o),
(1297,1644,cs),
(1297,1499,o),
(1181,1401,o),
(1022,1398,c),
(1133,1322,l)
);
},
{
pos = (-11,0);
ref = O;
}
);
width = 1524;
},
{
anchors = (
{
name = bottom;
pos = (875,0);
},
{
name = top;
pos = (875,1419);
}
);
layerId = "62CA62AF-CD91-478A-AB8B-28A62CC47DA0";
shapes = (
{
closed = 1;
nodes = (
(1342,1329,o),
(1560,1421,o),
(1560,1627,cs),
(1560,1645,o),
(1557,1717,o),
(1554,1738,c),
(1338,1738,l),
(1340,1727,o),
(1340,1712,o),
(1340,1694,cs),
(1340,1596,o),
(1289,1413,o),
(1073,1413,c),
(1283,1329,l)
);
},
{
pos = (11,0);
ref = O;
}
);
width = 1679;
}
);
unicode = 416;
}
{
glyphname = ohorn;
kernLeft = o;
kernRight = o;
layers = (
{
anchors = (
{
name = bottom;
pos = (552,0);
},
{
name = center;
pos = (545,497);
},
{
name = ogonek;
pos = (987,10);
},
{
name = top;
pos = (552,1024);
},
{
name = topright;
pos = (1077,994);
}
);
layerId = "DD6F9F34-BC40-4E8F-B1D3-DF3B42A9710F";
shapes = (
{
closed = 1;
nodes = (
(77,204,o),
(250,-29,o),
(550,-29,cs),
(850,-29,o),
(1027,204,o),
(1027,492,cs),
(1027,780,o),
(857,1014,o),
(557,1014,cs),
(257,1014,o),
(77,780,o),
(77,492,cs)
);
},
{
closed = 1;
nodes = (
(292,759,o),
(347,918,o),
(549,918,cs),
(750,918,o),
(810,760,o),
(810,492,cs),
(810,224,o),
(754,66,o),
(553,66,cs),
(351,66,o),
(292,224,o),
(292,492,cs)
);
},
{
closed = 1;
nodes = (
(832,922,l),
(941,922,o),
(1109,1011,o),
(1109,1172,cs),
(1109,1231,o),
(1110,1246,o),
(1107,1263,c),
(934,1263,l),
(935,1254,o),
(935,1242,o),
(935,1227,cs),
(935,1055,o),
(852,994,o),
(693,994,c)
);
}
);
width = 1104;
},
{
anchors = (
{
name = bottom;
pos = (636,0);
},
{
name = center;
pos = (652,497);
},
{
name = ogonek;
pos = (1173,10);
},
{
name = top;
pos = (636,1024);
},
{
name = topright;
pos = (1283,994);
}
);
layerId = "62CA62AF-CD91-478A-AB8B-28A62CC47DA0";
shapes = (
{
closed = 1;
nodes = (
(76,146,o),
(301,-29,o),
(650,-29,cs),
(1000,-29,o),
(1226,146,o),
(1226,492,cs),
(1226,838,o),
(1007,1014,o),
(657,1014,cs),
(309,1014,o),
(76,838,o),
(76,492,cs,{
name = hr00;
})
);
},
{
closed = 1;
nodes = (
(427,759,o),
(471,918,o),
(649,918,cs),
(826,918,o),
(875,760,o),
(875,492,cs),
(875,224,o),
(830,66,o),
(653,66,cs),
(475,66,o),
(427,224,o),
(427,492,cs)
);
},
{
closed = 1;
nodes = (
(992,927,l),
(1051,927,o),
(1299,946,o),
(1299,1208,cs),
(1299,1226,o),
(1296,1298,o),
(1293,1319,c),
(1077,1319,l),
(1079,1308,o),
(1079,1293,o),
(1079,1275,cs),
(1079,1177,o),
(1034,994,o),
(788,994,c)
);
}
);
width = 1303;
}
);
unicode = 417;
}
{
color = 9;
glyphname = yhook;
layers = (
{
anchors = (
{
name = bottom;
pos = (807,0);
},
{
name = top;
pos = (613,986);
}
);
layerId = "DD6F9F34-BC40-4E8F-B1D3-DF3B42A9710F";
shapes = (
{
closed = 1;
nodes = (
(435,-449,o),
(531,-164,o),
(589,-9,cs),
(941,957,ls),
(980,1065,o),
(1031,1077,o),
(1083,1076,c),
(1083,907,l),
(1212,907,o),
(1267,978,o),
(1267,1058,cs),
(1267,1129,o),
(1216,1209,o),
(1121,1209,cs),
(999,1209,o),
(874,1134,o),
(811,942,cs),
(566,199,l),
(322,862,l),
(322,906,o),
(379,911,o),
(428,916,cs),
(454,919,o),
(461,932,o),
(461,953,cs),
(461,968,o),
(450,994,o),
(427,994,cs),
(14,994,ls),
(-8,994,o),
(-19,968,o),
(-19,953,cs),
(-19,923,o),
(-11,919,o),
(17,916,cs),
(66,911,o),
(99,895,o),
(139,829,c),
(477,-28,l),
(393,-261,o),
(331,-316,o),
(280,-326,c),
(156,-204,l),
(127,-204,o),
(70,-235,o),
(70,-326,cs),
(70,-395,o),
(151,-449,o),
(246,-449,cs)
);
}
);
width = 1238;
},
{
anchors = (
{
name = bottom;
pos = (881,0);
},
{
name = top;
pos = (675,994);
}
);
layerId = "62CA62AF-CD91-478A-AB8B-28A62CC47DA0";
shapes = (
{
closed = 1;
nodes = (
(511,-449,o),
(606,-165,o),
(753,156,cs),
(1086,882,ls),
(1140,1000,o),
(1169,1043,o),
(1237,1043,c),
(1242,870,l),
(1411,869,o),
(1486,975,o),
(1486,1057,cs),
(1486,1135,o),
(1410,1204,o),
(1303,1204,cs),
(1137,1204,o),
(1046,1072,o),
(987,938,cs),
(696,282,l),
(465,873,l),
(465,904,o),
(529,911,o),
(573,916,cs),
(599,919,o),
(606,932,o),
(606,953,cs),
(606,968,o),
(595,994,o),
(572,994,cs),
(5,994,ls),
(-17,994,o),
(-28,968,o),
(-28,953,cs),
(-28,923,o),
(-20,919,o),
(8,916,cs),
(57,911,o),
(97,899,o),
(130,829,cs),
(541,-39,l),
(453,-197,o),
(400,-283,o),
(287,-283,c),
(175,-156,l,{
name = hr00;
}),
(107,-156,o),
(63,-206,o),
(63,-279,cs),
(63,-376,o),
(180,-449,o),
(274,-449,cs)
);
}
);
width = 1393;
}
);
metricLeft = y;
unicode = 436;
}
{
color = 1;
glyphname = Ezh;
layers = (
{
anchors = (
{
name = bottom;
pos = (672,0);
},
{
name = top;
pos = (675,1419);
}
);
layerId = "DD6F9F34-BC40-4E8F-B1D3-DF3B42A9710F";
shapes = (
{
closed = 1;
nodes = (
(923,-27,o),
(1210,132,o),
(1210,404,cs),
(1210,701,o),
(945,816,o),
(736,798,c),
(1225,1340,ls),
(1234,1351,o),
(1237,1359,o),
(1237,1369,cs),
(1237,1395,ls),
(1237,1414,o),
(1230,1419,o),
(1211,1419,cs),
(226,1419,ls),
(201,1419,o),
(183,1405,o),
(169,1378,c),
(134,1020,ls),
(132,999,o),
(145,986,o),
(165,986,cs),
(197,986,o),
(208,998,o),
(209,1019,cs),
(212,1081,o),
(326,1336,o),
(458,1336,cs),
(951,1336,l),
(815,1201,l),
(511,849,l),
(487,827,o),
(481,810,o),
(481,790,cs),
(481,768,o),
(480,733,o),
(513,733,cs),
(582,733,ls),
(689,733,o),
(979,701,o),
(979,386,cs),
(979,203,o),
(807,68,o),
(580,68,cs),
(404,68,o),
(328,141,o),
(290,198,c),
(343,376,l),
(345,428,o),
(274,459,o),
(238,459,cs),
(163,459,o),
(90,391,o),
(90,298,cs),
(90,66,o),
(404,-27,o),
(599,-27,cs)
);
}
);
width = 1324;
},
{
anchors = (
{
name = bottom;
pos = (740,0);
},
{
name = top;
pos = (741,1419);
}
);
layerId = "62CA62AF-CD91-478A-AB8B-28A62CC47DA0";
shapes = (
{
closed = 1;
nodes = (
(1186,-20,o),
(1371,163,o),
(1371,415,cs),
(1371,644,o),
(1144,785,o),
(865,784,c),
(1369,1340,ls),
(1378,1350,o),
(1381,1367,o),
(1381,1378,cs),
(1381,1393,ls),
(1381,1412,o),
(1363,1419,o),
(1345,1419,cs),
(240,1419,ls),
(215,1419,o),
(197,1405,o),
(183,1378,c),
(149,1020,l),
(148,997,o),
(192,986,o),
(209,986,cs),
(238,986,o),
(249,997,o),
(254,1022,cs),
(285,1175,o),
(397,1336,o),
(502,1336,cs),
(949,1336,l),
(817,1205,l),
(487,831,l),
(464,804,o),
(450,773,o),
(450,747,cs),
(450,696,o),
(457,691,o),
(480,691,cs),
(599,691,ls),
(784,691,o),
(970,649,o),
(970,387,cs),
(970,185,o),
(858,75,o),
(627,75,cs),
(422,75,o),
(347,177,o),
(336,172,c),
(405,421,l),
(397,453,o),
(345,491,o),
(262,491,cs),
(190,491,o),
(82,423,o),
(82,293,cs,{
name = hr01;
}),
(82,97,o),
(369,-20,o),
(640,-20,cs)
);
}
);
width = 1474;
}
);
unicode = 439;
}
{
glyphname = jdotless;
kernLeft = j;
kernRight = j;
layers = (
{
anchors = (
{
name = top;
pos = (302,994);
}
);
layerId = "DD6F9F34-BC40-4E8F-B1D3-DF3B42A9710F";
shapes = (
{
closed = 1;
nodes = (
(345,-449,o),
(418,-234,o),
(418,16,cs),
(419,957,l),
(416,989,o),
(400,997,o),
(389,997,cs),
(332,997,o),
(207,995,o),
(74,987,cs,{
name = L;
}),
(58,986,o),
(50,959,o),
(50,943,cs),
(50,918,o),
(60,909,o),
(74,903,c),
(128,889,o),
(233,902,o),
(233,778,cs),
(232,-16,ls),
(232,-234,o),
(219,-343,o),
(152,-347,c),
(98,-247,o),
(96,-199,o),
(56,-199,cs),
(18,-199,o),
(-51,-235,o),
(-51,-310,cs),
(-51,-379,o),
(-11,-449,o),
(117,-449,cs)
);
}
);
width = 598;
},
{
anchors = (
{
name = top;
pos = (358,994);
}
);
layerId = "62CA62AF-CD91-478A-AB8B-28A62CC47DA0";
shapes = (
{
closed = 1;
nodes = (
(489,-449,o),
(547,-187,o),
(547,88,cs),
(548,957,ls),
(548,989,o),
(529,997,o),
(518,997,cs),
(437,997,o),
(261,995,o),
(73,983,cs),
(57,982,o),
(49,955,o),
(49,939,cs),
(49,914,o),
(59,905,o),
(73,899,c),
(127,885,o),
(232,902,o),
(232,778,cs),
(231,-57,ls),
(231,-268,o),
(191,-347,o),
(141,-347,c),
(21,-140,o),
(16,-116,o),
(-44,-116,cs,{
name = hr00;
}),
(-113,-116,o),
(-172,-180,o),
(-172,-254,cs),
(-172,-336,o),
(-70,-449,o),
(103,-449,cs)
);
}
);
width = 709;
}
);
unicode = 567;
}
{
glyphname = eopen;
layers = (
{
anchors = (
{
name = bottom;
pos = (501,0);
},
{
name = top;
pos = (511,986);
}
);
layerId = "DD6F9F34-BC40-4E8F-B1D3-DF3B42A9710F";
shapes = (
{
closed = 1;
nodes = (
(683,-17,o),
(881,57,o),
(881,206,cs),
(881,286,o),
(817,333,o),
(769,333,cs),
(723,333,o),
(685,308,o),
(682,280,c),
(725,129,l),
(710,112,o),
(661,50,o),
(531,50,cs),
(378,50,o),
(284,124,o),
(284,271,cs),
(284,460,o),
(455,486,o),
(559,486,cs),
(619,486,l),
(637,486,o),
(639,501,o),
(639,526,cs),
(639,550,o),
(638,565,o),
(619,565,c),
(565,565,ls),
(473,565,o),
(336,623,o),
(336,769,cs),
(336,826,o),
(363,945,o),
(513,945,cs),
(609,945,o),
(635,918,o),
(657,870,c),
(668,829,o),
(678,783,o),
(685,756,cs),
(694,723,o),
(715,701,o),
(750,701,cs),
(790,701,o),
(857,734,o),
(857,795,cs),
(857,921,o),
(696,1012,o),
(525,1012,cs),
(271,1012,o),
(133,918,o),
(133,770,cs),
(133,626,o),
(277,552,o),
(403,531,c),
(230,530,o),
(77,454,o),
(77,287,cs),
(77,104,o),
(245,-17,o),
(521,-17,cs)
);
}
);
width = 941;
},
{
anchors = (
{
name = bottom;
pos = (574,0);
},
{
name = top;
pos = (608,994);
}
);
layerId = "62CA62AF-CD91-478A-AB8B-28A62CC47DA0";
shapes = (
{
closed = 1;
nodes = (
(890,-10,o),
(1047,88,o),
(1047,201,cs,{
name = hr01;
}),
(1047,317,o),
(949,365,o),
(907,365,cs),
(812,365,o),
(798,333,o),
(784,325,c),
(841,103,l),
(857,147,o),
(810,57,o),
(659,57,cs),
(535,57,o),
(456,149,o),
(456,272,cs),
(456,410,o),
(480,484,o),
(664,484,cs),
(752,484,ls),
(758,484,o),
(768,468,o),
(768,523,cs),
(768,576,o),
(756,561,o),
(752,561,cs),
(691,561,ls),
(560,561,o),
(472,589,o),
(472,752,cs),
(472,857,o),
(511,944,o),
(643,944,cs),
(648,944,o),
(711,957,o),
(754,870,c),
(774,819,o),
(789,773,o),
(805,741,cs),
(830,690,o),
(875,680,o),
(909,680,cs,{
name = L;
}),
(981,680,o),
(1027,751,o),
(1027,799,cs),
(1027,932,o),
(822,1010,o),
(631,1010,cs),
(307,1010,o),
(148,922,o),
(148,752,cs,{
name = hr02;
}),
(148,657,o),
(232,548,o),
(430,527,c),
(273,526,o),
(76,474,o),
(76,282,cs),
(76,103,o),
(249,-10,o),
(600,-10,cs)
);
}
);
width = 1107;
}
);
metricLeft = o;
unicode = 603;
}
{
glyphname = hturned;
layers = (
{
anchors = (
{
name = bottom;
pos = (582,0);
},
{
name = top;
pos = (582,994);
}
);
layerId = "DD6F9F34-BC40-4E8F-B1D3-DF3B42A9710F";
shapes = (
{
closed = 1;
nodes = (
(622,-27,o),
(760,66,o),
(795,131,c),
(795,47,o),
(801,-300,o),
(801,-344,cs),
(801,-393,o),
(854,-426,o),
(911,-426,cs),
(1019,-426,o),
(1090,-379,o),
(1103,-364,c),
(1107,-361,o),
(1109,-355,o),
(1109,-348,cs),
(1109,-328,o),
(1092,-298,o),
(1069,-305,cs),
(1053,-310,o),
(1041,-313,o),
(1022,-313,cs),
(1000,-313,o),
(981,-288,o),
(981,-234,cs),
(981,958,ls),
(981,979,o),
(972,994,o),
(944,994,cs),
(641,994,ls),
(619,994,o),
(607,968,o),
(607,953,cs),
(607,923,o),
(615,919,o),
(643,916,cs),
(710,909,o),
(795,905,o),
(795,819,cs),
(795,220,l),
(730,150,o),
(655,113,o),
(520,113,cs),
(402,113,o),
(391,212,o),
(391,261,cs),
(391,958,ls),
(391,979,o),
(382,994,o),
(354,994,cs),
(83,994,ls),
(61,994,o),
(49,968,o),
(49,953,cs),
(49,923,o),
(57,919,o),
(85,916,cs),
(134,911,o),
(203,905,o),
(203,819,cs),
(203,270,ls),
(203,22,o),
(344,-27,o),
(489,-27,cs)
);
}
);
width = 1178;
},
{
anchors = (
{
name = bottom;
pos = (674,0);
},
{
name = top;
pos = (674,994);
}
);
layerId = "62CA62AF-CD91-478A-AB8B-28A62CC47DA0";
shapes = (
{
closed = 1;
nodes = (
(674,-27,o),
(812,56,o),
(876,152,c),
(876,89,o),
(876,-202,o),
(876,-273,cs),
(876,-333,o),
(899,-426,o),
(1018,-426,cs),
(1186,-426,o),
(1290,-384,o),
(1320,-364,cs),
(1323,-362,o),
(1325,-355,o),
(1325,-347,cs),
(1325,-317,o),
(1308,-264,o),
(1286,-275,cs),
(1272,-282,o),
(1253,-283,o),
(1234,-283,cs),
(1212,-283,o),
(1190,-273,o),
(1190,-179,cs),
(1190,958,ls),
(1190,979,o),
(1180,994,o),
(1153,994,cs),
(730,994,ls),
(707,994,o),
(696,968,o),
(696,953,cs),
(696,923,o),
(704,919,o),
(732,916,c),
(796,911,o),
(874,905,o),
(874,819,cs),
(874,238,l),
(809,168,o),
(734,127,o),
(619,127,cs),
(537,127,o),
(508,223,o),
(508,361,cs),
(508,958,ls),
(508,979,o),
(499,994,o),
(471,994,cs),
(80,994,ls),
(58,994,o),
(46,968,o),
(46,953,cs),
(46,923,o),
(54,919,o),
(82,916,cs),
(131,911,o),
(192,905,o),
(192,819,cs),
(192,270,ls,{
name = hr00;
}),
(192,22,o),
(337,-27,o),
(528,-27,cs)
);
}
);
width = 1386;
}
);
unicode = 613;
}
{
color = 1;
glyphname = ezh;
layers = (
{
anchors = (
{
name = bottom;
pos = (522,-433);
},
{
name = top;
pos = (554,986);
}
);
layerId = "DD6F9F34-BC40-4E8F-B1D3-DF3B42A9710F";
shapes = (
{
closed = 1;
nodes = (
(760,-421,o),
(996,-264,o),
(996,10,cs),
(996,292,o),
(784,366,o),
(604,368,c),
(986,907,ls),
(993,917,o),
(996,924,o),
(996,935,cs),
(996,962,ls),
(996,981,o),
(988,986,o),
(972,986,cs),
(170,986,ls),
(150,986,o),
(135,972,o),
(123,945,c),
(94,647,ls),
(92,624,o),
(110,613,o),
(125,613,cs),
(146,613,o),
(159,620,o),
(162,646,cs),
(168,695,o),
(281,903,o),
(369,903,cs),
(730,903,l),
(619,768,l),
(395,417,l),
(375,395,o),
(369,379,o),
(369,360,cs),
(369,341,o),
(369,303,o),
(395,303,cs),
(458,303,ls),
(561,303,o),
(799,312,o),
(799,-7,cs),
(799,-232,o),
(641,-326,o),
(451,-326,cs),
(298,-326,o),
(235,-253,o),
(209,-193,c),
(256,-21,l),
(256,32,o),
(201,63,o),
(162,63,cs),
(100,63,o),
(33,-5,o),
(33,-95,cs),
(33,-330,o),
(290,-421,o),
(466,-421,cs)
);
}
);
width = 1050;
},
{
anchors = (
{
name = bottom;
pos = (559,-403);
},
{
name = top;
pos = (597,994);
}
);
layerId = "62CA62AF-CD91-478A-AB8B-28A62CC47DA0";
shapes = (
{
closed = 1;
nodes = (
(955,-446,o),
(1118,-265,o),
(1118,-11,cs),
(1118,223,o),
(957,330,o),
(726,332,c),
(1089,915,ls),
(1096,926,o),
(1098,943,o),
(1098,952,cs),
(1098,968,ls),
(1098,987,o),
(1079,994,o),
(1065,994,cs),
(195,994,ls),
(179,994,o),
(164,983,o),
(152,953,c),
(126,595,l),
(127,572,o),
(174,561,o),
(188,561,cs),
(206,561,o),
(215,567,o),
(222,594,cs),
(261,743,o),
(330,911,o),
(408,911,cs),
(738,911,l),
(648,780,l),
(389,381,l),
(381,360,o),
(368,350,o),
(368,325,cs),
(368,277,o),
(377,269,o),
(389,269,cs),
(480,269,ls),
(662,269,o),
(746,228,o),
(746,-38,cs),
(746,-239,o),
(704,-351,o),
(528,-351,cs),
(359,-351,o),
(283,-251,o),
(289,-251,c),
(350,-8,l),
(339,24,o),
(312,63,o),
(222,63,cs),
(170,63,o),
(69,-5,o),
(69,-132,cs,{
name = hr01;
}),
(69,-331,o),
(290,-446,o),
(535,-446,cs)
);
}
);
width = 1117;
}
);
unicode = 658;
}
{
color = 4;
glyphname = glottalstopmod;
layers = (
{
layerId = "DD6F9F34-BC40-4E8F-B1D3-DF3B42A9710F";
shapes = (
{
closed = 1;
nodes = (
(614,634,ls),
(634,634,o),
(646,650,o),
(646,670,cs),
(646,688,o),
(640,695,o),
(617,697,cs),
(577,701,o),
(517,706,o),
(517,775,cs),
(517,1005,l),
(512,1231,o),
(826,1334,o),
(826,1555,cs),
(826,1704,o),
(722,1868,o),
(471,1868,cs),
(311,1868,o),
(122,1754,o),
(122,1602,cs),
(122,1533,o),
(176,1505,o),
(209,1505,cs),
(243,1505,o),
(259,1512,o),
(264,1536,c),
(297,1722,l),
(297,1722,o),
(346,1799,o),
(458,1799,cs),
(614,1799,o),
(639,1656,o),
(639,1555,cs),
(639,1313,o),
(360,1274,o),
(355,1029,c),
(355,749,ls),
(355,713,o),
(299,701,o),
(259,697,cs),
(237,695,o),
(231,684,o),
(231,667,cs),
(231,649,o),
(244,634,o),
(262,634,cs)
);
}
);
userData = {
RMXScaler = {
height = 50;
weight = 40;
width = 70;
};
};
width = 948;
},
{
layerId = "62CA62AF-CD91-478A-AB8B-28A62CC47DA0";
shapes = (
{
closed = 1;
nodes = (
(706,634,ls),
(725,634,o),
(734,655,o),
(734,667,cs),
(734,691,o),
(728,695,o),
(705,697,cs),
(665,701,o),
(605,705,o),
(605,767,cs),
(605,1064,ls),
(605,1274,o),
(914,1304,o),
(915,1571,cs),
(915,1741,o),
(751,1868,o),
(487,1868,cs),
(312,1868,o),
(98,1755,o),
(95,1592,cs),
(95,1507,o),
(157,1458,o),
(215,1458,cs),
(255,1458,o),
(287,1466,o),
(298,1492,c),
(315,1723,l),
(315,1723,o),
(365,1781,o),
(466,1781,cs),
(581,1781,o),
(631,1710,o),
(631,1548,cs),
(631,1306,o),
(347,1332,o),
(345,1072,cs),
(342,741,ls,{
name = hr00;
}),
(342,711,o),
(288,700,o),
(248,697,cs),
(227,695,o),
(221,684,o),
(221,667,cs,{
name = hr00;
}),
(221,655,o),
(230,634,o),
(249,634,cs)
);
}
);
userData = {
RMXScaler = {
height = 50;
weight = 40;
width = 70;
};
};
width = 1010;
}
);
metricLeft = ordmasculine;
metricRight = ordmasculine;
unicode = 704;
userData = {
RMXScaler = {
source = question;
};
};
}
{
glyphname = secondtonechinese;
layers = (
{
anchors = (
{
name = _top;
pos = (168,994);
},
{
name = top;
pos = (168,1461);
}
);
layerId = "DD6F9F34-BC40-4E8F-B1D3-DF3B42A9710F";
shapes = (
{
closed = 1;
nodes = (
(270,1277,o),
(416,1348,o),
(447,1379,cs),
(468,1400,o),
(485,1429,o),
(485,1461,cs),
(485,1483,o),
(477,1505,o),
(457,1527,cs),
(436,1551,o),
(409,1560,o),
(385,1560,cs),
(352,1560,o),
(321,1544,o),
(300,1524,cs),
(269,1494,o),
(174,1341,o),
(10,1152,c),
(66,1094,l)
);
}
);
width = 495;
},
{
anchors = (
{
name = _top;
pos = (172,994);
},
{
name = top;
pos = (172,1448);
}
);
layerId = "62CA62AF-CD91-478A-AB8B-28A62CC47DA0";
shapes = (
{
closed = 1;
nodes = (
(270,1264,o),
(430,1343,o),
(461,1373,cs),
(481,1392,o),
(494,1425,o),
(494,1460,cs),
(494,1490,o),
(485,1520,o),
(462,1544,cs),
(440,1567,o),
(411,1577,o),
(381,1577,cs),
(343,1577,o),
(305,1561,o),
(284,1541,cs),
(253,1511,o),
(164,1358,o),
(10,1169,c),
(66,1111,l,{
name = hr00;
})
);
}
);
width = 504;
}
);
unicode = 714;
}
{
glyphname = verticallinelowmod;
layers = (
{
layerId = "DD6F9F34-BC40-4E8F-B1D3-DF3B42A9710F";
shapes = (
{
closed = 1;
nodes = (
(235,-199,l),
(361,-199,l),
(361,358,l),
(235,358,l)
);
}
);
width = 600;
},
{
layerId = "62CA62AF-CD91-478A-AB8B-28A62CC47DA0";
shapes = (
{
closed = 1;
nodes = (
(320,-340,l),
(466,-340,l),
(466,286,l),
(320,286,l,{
name = hr00;
})
);
}
);
width = 776;
}
);
unicode = 716;
}
{
glyphname = macroncomb;
kernLeft = macroncomb;
kernRight = macroncomb;
layers = (
{
anchors = (
{
name = _top;
pos = (0,994);
},
{
name = top;
pos = (0,1266);
}
);
layerId = "DD6F9F34-BC40-4E8F-B1D3-DF3B42A9710F";
shapes = (
{
closed = 1;
nodes = (
(294,1156,l),
(294,1297,l),
(-294,1297,l),
(-294,1156,l)
);
}
);
width = 0;
},
{
anchors = (
{
name = _top;
pos = (0,994);
},
{
name = top;
pos = (0,1282);
}
);
layerId = "62CA62AF-CD91-478A-AB8B-28A62CC47DA0";
shapes = (
{
closed = 1;
nodes = (
(295,1182,l),
(295,1333,l),
(-292,1333,l),
(-292,1182,l,{
name = hr00;
})
);
}
);
width = 0;
}
);
unicode = 772;
}
{
glyphname = dieresiscomb;
kernLeft = dieresiscomb;
kernRight = dieresiscomb;
layers = (
{
anchors = (
{
name = _top;
pos = (-1,994);
},
{
name = top;
pos = (0,1369);
}
);
layerId = "DD6F9F34-BC40-4E8F-B1D3-DF3B42A9710F";
shapes = (
{
closed = 1;
nodes = (
(284,1172,o),
(322,1228,o),
(322,1306,cs),
(322,1384,o),
(284,1440,o),
(211,1440,cs),
(137,1440,o),
(100,1384,o),
(100,1306,cs),
(100,1228,o),
(137,1172,o),
(211,1172,cs)
);
},
{
closed = 1;
nodes = (
(-140,1172,o),
(-102,1228,o),
(-102,1306,cs),
(-102,1384,o),
(-140,1440,o),
(-213,1440,cs),
(-287,1440,o),
(-324,1384,o),
(-324,1306,cs),
(-324,1228,o),
(-287,1172,o),
(-213,1172,cs)
);
}
);
width = 0;
},
{
anchors = (
{
name = _top;
pos = (0,994);
},
{
name = top;
pos = (0,1452);
}
);
layerId = "62CA62AF-CD91-478A-AB8B-28A62CC47DA0";
shapes = (
{
closed = 1;
nodes = (
(340,1150,o),
(407,1233,o),
(407,1333,cs),
(407,1434,o),
(340,1517,o),
(238,1517,cs),
(135,1517,o),
(70,1434,o),
(70,1333,cs),
(70,1233,o),
(135,1150,o),
(238,1150,cs,{
name = hr00;
})
);
},
{
closed = 1;
nodes = (
(-137,1150,o),
(-70,1233,o),
(-70,1333,cs),
(-70,1434,o),
(-137,1517,o),
(-239,1517,cs),
(-342,1517,o),
(-407,1434,o),
(-407,1333,cs),
(-407,1233,o),
(-342,1150,o),
(-239,1150,cs)
);
}
);
width = 0;
}
);
unicode = 776;
}
{
glyphname = hookabovecomb;
kernLeft = hookabovecomb;
kernRight = hookabovecomb;
layers = (
{
anchors = (
{
name = _top;
pos = (205,994);
},
{
name = top;
pos = (205,1459);
}
);
background = {
shapes = (
{
closed = 1;
nodes = (
(723,1132,l),
(718,1148,o),
(715,1164,o),
(715,1178,cs),
(715,1210,o),
(728,1236,o),
(741,1248,cs),
(800,1302,o),
(885,1330,o),
(885,1452,cs),
(885,1578,o),
(774,1619,o),
(665,1619,cs),
(595,1619,o),
(545,1604,o),
(507,1586,cs),
(486,1576,o),
(469,1546,o),
(469,1517,cs),
(469,1486,o),
(477,1466,o),
(499,1466,cs),
(511,1466,o),
(554,1489,o),
(615,1489,cs),
(685,1489,o),
(724,1458,o),
(724,1410,c),
(724,1330,o),
(590,1315,o),
(590,1225,c),
(590,1186,o),
(604,1162,o),
(617,1132,c)
);
},
{
closed = 1;
nodes = (
(723,1132,l),
(717,1148,o),
(713,1164,o),
(713,1184,cs),
(713,1210,o),
(722,1235,o),
(757,1261,cs),
(840,1322,o),
(885,1355,o),
(885,1452,cs),
(885,1578,o),
(774,1619,o),
(657,1619,cs),
(560,1619,o),
(467,1586,o),
(467,1515,cs),
(467,1484,o),
(487,1466,o),
(504,1466,cs),
(524,1466,o),
(547,1489,o),
(615,1489,cs),
(685,1489,o),
(724,1458,o),
(724,1410,c),
(724,1330,o),
(590,1315,o),
(590,1225,cs),
(590,1186,o),
(604,1162,o),
(617,1132,c)
);
},
{
closed = 1;
nodes = (
(723,1132,l),
(716,1148,o),
(711,1164,o),
(711,1184,cs),
(711,1210,o),
(720,1235,o),
(757,1261,cs),
(849,1326,o),
(885,1369,o),
(885,1457,cs),
(885,1563,o),
(795,1619,o),
(657,1619,cs),
(604,1619,o),
(551,1600,o),
(513,1580,cs),
(478,1562,o),
(472,1543,o),
(472,1509,cs),
(472,1484,o),
(482,1466,o),
(499,1466,cs),
(519,1466,o),
(547,1489,o),
(615,1489,cs),
(685,1489,o),
(724,1458,o),
(724,1410,cs),
(724,1330,o),
(590,1315,o),
(590,1216,cs),
(590,1186,o),
(603,1161,o),
(622,1132,c)
);
},
{
closed = 0;
nodes = (
(423,1079,l)
);
},
{
closed = 1;
nodes = (
(721,1133,l),
(714,1149,o),
(711,1164,o),
(711,1184,cs),
(711,1209,o),
(719,1235,o),
(742,1252,cs),
(819,1309,o),
(885,1355,o),
(883,1451,cs),
(881,1563,o),
(791,1618,o),
(664,1618,cs),
(595,1618,o),
(545,1603,o),
(510,1587,cs),
(486,1576,o),
(469,1545,o),
(468,1517,cs),
(467,1486,o),
(477,1466,o),
(498,1466,cs),
(511,1466,o),
(554,1488,o),
(614,1488,cs),
(685,1488,o),
(722,1458,o),
(722,1409,c),
(722,1330,o),
(589,1316,o),
(589,1225,c),
(589,1186,o),
(604,1164,o),
(617,1133,c)
);
},
{
closed = 1;
nodes = (
(246,1138,l),
(239,1153,o),
(236,1168,o),
(236,1188,cs),
(236,1213,o),
(244,1238,o),
(266,1255,cs),
(342,1309,o),
(407,1355,o),
(405,1450,cs),
(402,1560,o),
(315,1613,o),
(190,1613,cs),
(123,1613,o),
(76,1599,o),
(41,1583,cs),
(18,1572,o),
(1,1542,o),
(0,1514,cs),
(-1,1484,o),
(9,1464,o),
(29,1464,cs),
(42,1464,o),
(84,1488,o),
(141,1488,cs),
(211,1488,o),
(247,1458,o),
(247,1412,cs),
(247,1331,o),
(117,1317,o),
(117,1228,c),
(117,1190,o),
(131,1168,o),
(144,1138,c)
);
}
);
};
layerId = "DD6F9F34-BC40-4E8F-B1D3-DF3B42A9710F";
shapes = (
{
closed = 1;
nodes = (
(234,1138,l),
(230,1151,o),
(221,1163,o),
(221,1190,cs),
(221,1216,o),
(238,1238,o),
(302,1285,cs),
(367,1332,o),
(405,1369,o),
(405,1454,cs),
(405,1547,o),
(312,1613,o),
(190,1613,cs),
(123,1613,o),
(63,1592,o),
(26,1573,cs),
(18,1569,o),
(9,1563,o),
(7,1546,cs),
(5,1530,o),
(1,1494,o),
(4,1478,cs),
(5,1470,o),
(10,1465,o),
(17,1465,cs),
(34,1465,o),
(74,1489,o),
(138,1489,cs),
(214,1489,o),
(247,1456,o),
(247,1421,cs),
(247,1336,o),
(108,1323,o),
(108,1226,cs),
(108,1194,o),
(118,1167,o),
(136,1138,c)
);
}
);
width = 405;
},
{
anchors = (
{
name = _top;
pos = (210,994);
},
{
name = top;
pos = (210,1459);
}
);
background = {
shapes = (
{
closed = 1;
nodes = (
(298,1121,l),
(294,1137,o),
(292,1152,o),
(292,1167,cs),
(292,1241,o),
(325,1254,o),
(357,1278,cs),
(409,1317,o),
(481,1364,o),
(481,1458,cs),
(481,1561,o),
(398,1619,o),
(197,1619,cs),
(125,1619,o),
(59,1604,o),
(13,1576,cs),
(-10,1562,o),
(-44,1534,o),
(-44,1474,cs),
(-44,1437,o),
(-35,1405,o),
(-13,1405,cs),
(24,1405,o),
(35,1453,o),
(136,1453,cs),
(187,1453,o),
(237,1433,o),
(237,1389,cs),
(237,1321,o),
(147,1300,o),
(147,1222,c),
(147,1179,o),
(164,1138,o),
(178,1121,c)
);
},
{
closed = 1;
nodes = (
(1126,1119,l),
(1121,1136,o),
(1119,1153,o),
(1119,1168,cs),
(1119,1201,o),
(1132,1227,o),
(1146,1238,cs),
(1215,1292,o),
(1302,1322,o),
(1303,1447,cs),
(1304,1576,o),
(1181,1618,o),
(1065,1618,cs),
(987,1618,o),
(934,1602,o),
(892,1584,cs),
(869,1574,o),
(851,1543,o),
(850,1513,cs),
(849,1482,o),
(860,1463,o),
(883,1461,cs),
(896,1460,o),
(943,1485,o),
(1010,1485,cs),
(1086,1485,o),
(1128,1453,o),
(1128,1404,c),
(1128,1322,o),
(983,1308,o),
(983,1214,c),
(983,1175,o),
(997,1151,o),
(1013,1119,c)
);
},
{
closed = 1;
nodes = (
(1145,1119,l),
(1138,1136,o),
(1135,1153,o),
(1135,1176,cs),
(1135,1201,o),
(1145,1227,o),
(1180,1252,cs),
(1246,1299,o),
(1323,1334,o),
(1323,1447,cs),
(1323,1576,o),
(1191,1618,o),
(1065,1618,cs),
(982,1618,o),
(924,1596,o),
(893,1582,cs),
(859,1567,o),
(841,1527,o),
(840,1497,cs),
(839,1460,o),
(850,1437,o),
(873,1435,cs),
(885,1434,o),
(928,1465,o),
(1000,1465,cs),
(1070,1465,o),
(1108,1433,o),
(1108,1384,cs),
(1108,1316,o),
(993,1298,o),
(993,1214,cs),
(993,1175,o),
(1007,1151,o),
(1023,1119,c)
);
},
{
closed = 1;
nodes = (
(1793,1121,l),
(1789,1137,o),
(1787,1152,o),
(1787,1167,cs),
(1787,1241,o),
(1820,1254,o),
(1852,1278,cs),
(1904,1317,o),
(1976,1364,o),
(1976,1458,cs),
(1976,1561,o),
(1893,1619,o),
(1692,1619,cs),
(1620,1619,o),
(1554,1604,o),
(1508,1576,cs),
(1485,1562,o),
(1451,1534,o),
(1451,1474,cs),
(1451,1437,o),
(1460,1405,o),
(1482,1405,cs),
(1519,1405,o),
(1530,1453,o),
(1631,1453,cs),
(1682,1453,o),
(1732,1433,o),
(1732,1389,cs),
(1732,1321,o),
(1642,1300,o),
(1642,1222,cs),
(1642,1179,o),
(1659,1138,o),
(1673,1121,c)
);
},
{
closed = 1;
nodes = (
(829,1119,l),
(822,1136,o),
(819,1153,o),
(819,1176,cs),
(819,1201,o),
(829,1227,o),
(864,1252,cs),
(930,1299,o),
(1007,1339,o),
(1007,1447,cs),
(1007,1548,o),
(913,1618,o),
(749,1618,cs),
(668,1618,o),
(611,1596,o),
(580,1582,cs),
(546,1567,o),
(525,1527,o),
(524,1497,cs),
(523,1460,o),
(534,1437,o),
(557,1435,cs),
(569,1434,o),
(614,1465,o),
(677,1465,cs),
(756,1465,o),
(795,1433,o),
(795,1393,cs),
(795,1316,o),
(674,1298,o),
(674,1214,cs),
(674,1175,o),
(688,1151,o),
(703,1119,c)
);
},
{
closed = 1;
nodes = (
(270,1123,l),
(265,1138,o),
(258,1150,o),
(258,1179,cs),
(258,1205,o),
(268,1239,o),
(332,1275,cs),
(419,1322,o),
(461,1365,o),
(461,1444,cs),
(461,1550,o),
(353,1621,o),
(219,1621,cs),
(127,1621,o),
(55,1591,o),
(25,1573,cs),
(10,1564,o),
(8,1553,o),
(5,1528,cs),
(2,1506,o),
(0,1472,o),
(0,1451,cs),
(0,1443,o),
(4,1438,o),
(13,1438,cs),
(26,1438,o),
(80,1467,o),
(151,1467,cs),
(218,1467,o),
(258,1439,o),
(258,1401,cs),
(258,1316,o),
(125,1314,o),
(125,1209,cs),
(125,1173,o),
(135,1153,o),
(152,1123,c)
);
}
);
};
layerId = "62CA62AF-CD91-478A-AB8B-28A62CC47DA0";
shapes = (
{
closed = 1;
nodes = (
(273,1123,l),
(268,1138,o),
(261,1150,o),
(261,1176,cs),
(261,1205,o),
(271,1239,o),
(332,1275,cs),
(419,1322,o),
(461,1365,o),
(461,1444,cs),
(461,1550,o),
(353,1621,o),
(219,1621,cs),
(127,1621,o),
(55,1591,o),
(25,1573,cs),
(10,1564,o),
(8,1553,o),
(5,1528,cs),
(2,1506,o),
(0,1472,o),
(0,1451,cs),
(0,1443,o),
(4,1438,o),
(13,1438,cs),
(26,1438,o),
(80,1467,o),
(151,1467,cs),
(218,1467,o),
(258,1439,o),
(258,1401,cs),
(258,1316,o),
(128,1314,o),
(128,1204,cs),
(128,1173,o),
(138,1153,o),
(155,1123,c)
);
}
);
width = 491;
}
);
unicode = 777;
}
{
glyphname = hungarumlautcomb;
kernLeft = hungarumlautcomb;
kernRight = hungarumlautcomb;
layers = (
{
anchors = (
{
name = _top;
pos = (438,994);
},
{
name = top;
pos = (438,1613);
}
);
layerId = "DD6F9F34-BC40-4E8F-B1D3-DF3B42A9710F";
shapes = (
{
closed = 1;
nodes = (
(744,1316,o),
(890,1408,o),
(917,1440,cs),
(933,1459,o),
(946,1483,o),
(946,1508,cs),
(946,1531,o),
(936,1553,o),
(908,1573,cs),
(887,1588,o),
(867,1593,o),
(848,1593,cs),
(812,1593,o),
(781,1573,o),
(761,1548,cs),
(735,1516,o),
(658,1363,o),
(517,1165,c),
(581,1121,l)
);
},
{
closed = 1;
nodes = (
(380,1316,o),
(504,1408,o),
(530,1440,cs),
(546,1460,o),
(560,1485,o),
(560,1511,cs),
(560,1533,o),
(550,1554,o),
(524,1573,cs),
(504,1588,o),
(484,1593,o),
(465,1593,cs),
(429,1593,o),
(398,1572,o),
(378,1548,cs),
(352,1517,o),
(294,1363,o),
(153,1165,c),
(217,1121,l)
);
}
);
width = 1024;
},
{
anchors = (
{
name = _top;
pos = (343,994);
},
{
name = top;
pos = (343,1606);
}
);
layerId = "62CA62AF-CD91-478A-AB8B-28A62CC47DA0";
shapes = (
{
closed = 1;
nodes = (
(717,1298,o),
(841,1387,o),
(867,1419,c),
(881,1435,o),
(890,1457,o),
(890,1480,cs),
(890,1508,o),
(877,1536,o),
(846,1558,cs),
(823,1574,o),
(799,1581,o),
(778,1581,cs),
(744,1581,o),
(714,1565,o),
(695,1543,c),
(670,1511,o),
(611,1362,o),
(470,1168,c),
(554,1106,l,{
name = hr00;
})
);
},
{
closed = 1;
nodes = (
(283,1298,o),
(407,1387,o),
(433,1419,cs),
(447,1435,o),
(456,1458,o),
(456,1481,cs),
(456,1508,o),
(443,1536,o),
(412,1558,cs),
(389,1574,o),
(365,1581,o),
(344,1581,cs),
(310,1581,o),
(280,1565,o),
(261,1543,cs),
(235,1512,o),
(177,1362,o),
(36,1168,c),
(120,1106,l)
);
}
);
width = 1024;
}
);
unicode = 779;
}
{
glyphname = dblgravecomb;
kernLeft = hungarumlautcomb;
kernRight = hungarumlautcomb;
layers = (
{
anchors = (
{
name = _top;
pos = (28,994);
},
{
name = top;
pos = (0,1613);
}
);
layerId = "DD6F9F34-BC40-4E8F-B1D3-DF3B42A9710F";
shapes = (
{
closed = 1;
nodes = (
(-87,1165,l),
(-228,1363,o),
(-305,1516,o),
(-331,1548,cs),
(-351,1573,o),
(-382,1593,o),
(-418,1593,cs),
(-437,1593,o),
(-457,1588,o),
(-478,1573,cs),
(-506,1553,o),
(-516,1531,o),
(-516,1508,cs),
(-516,1483,o),
(-503,1459,o),
(-487,1440,cs),
(-460,1408,o),
(-314,1316,o),
(-151,1121,c)
);
},
{
closed = 1;
nodes = (
(277,1165,l),
(136,1363,o),
(78,1517,o),
(52,1548,cs),
(32,1572,o),
(1,1593,o),
(-35,1593,cs),
(-54,1593,o),
(-74,1588,o),
(-94,1573,cs),
(-120,1554,o),
(-130,1533,o),
(-130,1511,cs),
(-130,1485,o),
(-116,1460,o),
(-100,1440,cs),
(-74,1408,o),
(50,1316,o),
(213,1121,c)
);
}
);
width = 0;
},
{
anchors = (
{
name = _top;
pos = (40,994);
},
{
name = top;
pos = (0,1606);
}
);
layerId = "62CA62AF-CD91-478A-AB8B-28A62CC47DA0";
shapes = (
{
closed = 1;
nodes = (
(-117,1168,l),
(-258,1362,o),
(-317,1511,o),
(-342,1543,c),
(-361,1565,o),
(-391,1581,o),
(-425,1581,cs),
(-446,1581,o),
(-470,1574,o),
(-493,1558,cs),
(-524,1536,o),
(-537,1508,o),
(-537,1480,cs),
(-537,1457,o),
(-528,1435,o),
(-514,1419,c),
(-488,1387,o),
(-364,1298,o),
(-201,1106,c,{
name = hr00;
})
);
},
{
closed = 1;
nodes = (
(317,1168,l),
(176,1362,o),
(118,1512,o),
(92,1543,cs),
(73,1565,o),
(43,1581,o),
(9,1581,cs),
(-12,1581,o),
(-36,1574,o),
(-59,1558,cs),
(-90,1536,o),
(-103,1508,o),
(-103,1481,cs),
(-103,1458,o),
(-94,1435,o),
(-80,1419,cs),
(-54,1387,o),
(70,1298,o),
(233,1106,c)
);
}
);
width = 0;
}
);
unicode = 783;
}
{
glyphname = dieresisbelowcomb;
kernLeft = dotbelowcomb;
kernRight = dotbelowcomb;
layers = (
{
anchors = (
{
name = _bottom;
},
{
name = bottom;
pos = (0,-471);
}
);
layerId = "DD6F9F34-BC40-4E8F-B1D3-DF3B42A9710F";
shapes = (
{
closed = 1;
nodes = (
(285,-465,o),
(323,-409,o),
(323,-331,cs),
(323,-253,o),
(285,-197,o),
(212,-197,cs),
(138,-197,o),
(101,-253,o),
(101,-331,cs),
(101,-409,o),
(138,-465,o),
(212,-465,cs)
);
},
{
closed = 1;
nodes = (
(-139,-465,o),
(-101,-409,o),
(-101,-331,cs),
(-101,-253,o),
(-139,-197,o),
(-212,-197,cs),
(-286,-197,o),
(-323,-253,o),
(-323,-331,cs),
(-323,-409,o),
(-286,-465,o),
(-212,-465,cs)
);
}
);
width = 0;
},
{
anchors = (
{
name = _bottom;
},
{
name = bottom;
pos = (0,-563);
}
);
layerId = "62CA62AF-CD91-478A-AB8B-28A62CC47DA0";
shapes = (
{
closed = 1;
nodes = (
(340,-564,o),
(407,-481,o),
(407,-381,cs),
(407,-280,o),
(340,-197,o),
(238,-197,cs),
(135,-197,o),
(70,-280,o),
(70,-381,cs),
(70,-481,o),
(135,-564,o),
(238,-564,cs,{
name = hr00;
})
);
},
{
closed = 1;
nodes = (
(-137,-564,o),
(-70,-481,o),
(-70,-381,cs),
(-70,-280,o),
(-137,-197,o),
(-239,-197,cs),
(-342,-197,o),
(-407,-280,o),
(-407,-381,cs),
(-407,-481,o),
(-342,-564,o),
(-239,-564,cs)
);
}
);
width = 0;
}
);
unicode = 804;
}
{
glyphname = cedillacomb;
kernLeft = cedilla;
kernRight = cedilla;
layers = (
{
anchors = (
{
name = _bottom;
}
);
background = {
shapes = (
{
closed = 1;
nodes = (
(165,-488,o),
(249,-387,o),
(249,-292,cs),
(249,-206,o),
(173,-134,o),
(40,-121,c,{
name = hr03;
}),
(78,18,l),
(-39,18,l,{
name = hr01;
}),
(-74,-182,l),
(32,-183,o),
(82,-232,o),
(82,-281,cs,{
name = hr02;
}),
(82,-339,o),
(32,-374,o),
(-35,-374,cs),
(-97,-374,o),
(-135,-357,o),
(-157,-349,cs),
(-168,-345,o),
(-174,-346,o),
(-179,-356,cs),
(-187,-371,o),
(-201,-394,o),
(-211,-417,cs),
(-214,-425,o),
(-215,-433,o),
(-206,-439,cs),
(-170,-463,o),
(-106,-488,o),
(-21,-488,cs)
);
}
);
};
layerId = "DD6F9F34-BC40-4E8F-B1D3-DF3B42A9710F";
shapes = (
{
closed = 1;
nodes = (
(166,-488,o),
(250,-387,o),
(250,-292,cs),
(250,-206,o),
(174,-134,o),
(41,-121,c,{
name = hr03;
}),
(77,18,l),
(-40,18,l,{
name = hr01;
}),
(-73,-182,l),
(33,-183,o),
(83,-232,o),
(83,-281,cs,{
name = hr02;
}),
(83,-339,o),
(33,-374,o),
(-34,-374,cs),
(-96,-374,o),
(-134,-357,o),
(-156,-349,cs),
(-167,-345,o),
(-173,-346,o),
(-178,-356,cs),
(-186,-371,o),
(-200,-396,o),
(-210,-417,cs),
(-214,-425,o),
(-214,-433,o),
(-205,-439,cs),
(-169,-463,o),
(-105,-488,o),
(-20,-488,cs)
);
}
);
width = 0;
},
{
anchors = (
{
name = _bottom;
pos = (253,0);
}
);
background = {
shapes = (
{
closed = 1;
nodes = (
(442,-498,o),
(533,-404,o),
(533,-289,cs),
(533,-195,o),
(457,-105,o),
(309,-91,c,{
name = hr03;
}),
(339,18,l),
(182,18,l,{
name = hr01;
}),
(149,-192,l),
(230,-192,o),
(298,-220,o),
(298,-284,cs,{
name = hr02;
}),
(298,-344,o),
(245,-374,o),
(179,-374,cs),
(148,-374,o),
(114,-370,o),
(66,-361,cs),
(40,-356,o),
(24,-402,o),
(15,-434,cs),
(11,-448,o),
(20,-457,o),
(35,-462,cs),
(71,-474,o),
(133,-498,o),
(242,-498,cs)
);
},
{
closed = 1;
nodes = (
(426,-498,o),
(531,-411,o),
(531,-284,cs),
(531,-184,o),
(446,-108,o),
(296,-100,c,{
name = hr03;
}),
(333,18,l),
(186,18,l,{
name = hr01;
}),
(148,-192,l),
(287,-194,o),
(326,-230,o),
(326,-279,cs,{
name = hr02;
}),
(326,-335,o),
(279,-374,o),
(201,-374,cs),
(146,-374,o),
(98,-357,o),
(59,-342,cs),
(49,-340,o),
(44,-342,o),
(41,-350,cs),
(33,-368,o),
(18,-405,o),
(12,-417,cs),
(8,-426,o),
(10,-434,o),
(17,-437,cs),
(59,-463,o),
(131,-498,o),
(240,-498,cs)
);
}
);
};
layerId = "62CA62AF-CD91-478A-AB8B-28A62CC47DA0";
shapes = (
{
closed = 1;
nodes = (
(416,-498,o),
(521,-411,o),
(521,-287,cs),
(521,-184,o),
(436,-108,o),
(286,-100,c,{
name = hr03;
}),
(319,18,l),
(172,18,l,{
name = hr01;
}),
(138,-192,l),
(259,-190,o),
(316,-235,o),
(316,-283,cs,{
name = hr02;
}),
(316,-335,o),
(269,-374,o),
(191,-374,cs),
(136,-374,o),
(91,-358,o),
(52,-342,cs),
(42,-338,o),
(38,-342,o),
(34,-350,cs),
(25,-368,o),
(7,-405,o),
(2,-417,cs),
(-2,-426,o),
(0,-432,o),
(8,-437,cs),
(38,-457,o),
(124,-498,o),
(236,-498,cs)
);
}
);
width = 521;
}
);
unicode = 807;
}
{
glyphname = verticallinebelowcomb;
layers = (
{
anchors = (
{
name = _bottom;
pos = (298,0);
},
{
name = bottom;
pos = (298,-591);
}
);
layerId = "DD6F9F34-BC40-4E8F-B1D3-DF3B42A9710F";
shapes = (
{
closed = 1;
nodes = (
(235,-591,l),
(361,-591,l),
(361,-185,l),
(235,-185,l)
);
}
);
width = 596;
},
{
anchors = (
{
name = _bottom;
pos = (393,0);
},
{
name = bottom;
pos = (393,-576);
}
);
layerId = "62CA62AF-CD91-478A-AB8B-28A62CC47DA0";
shapes = (
{
closed = 1;
nodes = (
(320,-576,l),
(466,-576,l),
(466,-156,l),
(320,-156,l,{
name = hr00;
})
);
}
);
width = 786;
}
);
metricRight = "=|";
unicode = 809;
}
{
glyphname = Pi;
lastChange = "2025-06-28 13:46:11 +0000";
layers = (
{
.lastUpdate = 772811154.819;
layerId = "DD6F9F34-BC40-4E8F-B1D3-DF3B42A9710F";
shapes = (
{
closed = 1;
nodes = (
(644,0,ls),
(667,0,o),
(678,36,o),
(678,51,cs),
(678,81,o),
(670,85,o),
(642,88,cs),
(581,95,o),
(490,99,o),
(490,185,cs),
(491,1267,ls),
(491,1311,o),
(721,1326,o),
(785,1331,c),
(846,1324,o),
(1082,1320,o),
(1082,1234,cs),
(1081,152,ls),
(1081,108,o),
(1000,93,o),
(936,88,cs),
(910,86,o),
(903,72,o),
(903,51,cs),
(903,36,o),
(914,0,o),
(937,0,cs),
(1442,0,ls),
(1465,0,o),
(1476,36,o),
(1476,51,cs),
(1476,81,o),
(1468,85,o),
(1440,88,cs),
(1379,95,o),
(1288,99,o),
(1288,185,cs),
(1289,1267,ls),
(1289,1311,o),
(1370,1326,o),
(1434,1331,cs),
(1460,1333,o),
(1467,1347,o),
(1467,1368,cs),
(1467,1383,o),
(1456,1419,o),
(1433,1419,cs),
(130,1419,ls),
(107,1419,o),
(96,1383,o),
(96,1368,cs),
(96,1338,o),
(104,1334,o),
(132,1331,cs),
(193,1324,o),
(284,1320,o),
(284,1234,cs),
(283,152,ls),
(283,108,o),
(202,93,o),
(138,88,cs),
(112,86,o),
(105,72,o),
(105,51,cs),
(105,36,o),
(116,0,o),
(139,0,cs)
);
}
);
width = 1561;
},
{
.lastUpdate = 772811171.501;
layerId = "62CA62AF-CD91-478A-AB8B-28A62CC47DA0";
shapes = (
{
closed = 1;
nodes = (
(779,0,ls),
(802,0,o),
(813,36,o),
(813,51,cs),
(813,81,o),
(805,85,o),
(777,88,cs),
(716,93,o),
(625,99,o),
(625,185,cs),
(626,1267,ls),
(626,1311,o),
(842,1326,o),
(910,1331,c),
(971,1326,o),
(1172,1320,o),
(1172,1234,cs),
(1171,152,ls),
(1171,108,o),
(1090,93,o),
(1026,88,cs),
(1000,85,o),
(993,72,o),
(993,51,cs,{
name = hr00;
}),
(993,36,o),
(1004,0,o),
(1027,0,cs),
(1662,0,ls),
(1685,0,o),
(1696,36,o),
(1696,51,cs),
(1696,81,o),
(1688,85,o),
(1660,88,cs),
(1599,93,o),
(1508,99,o),
(1508,185,cs),
(1509,1267,ls),
(1509,1311,o),
(1586,1326,o),
(1654,1331,cs),
(1680,1334,o),
(1687,1347,o),
(1687,1368,cs),
(1687,1383,o),
(1676,1419,o),
(1653,1419,cs),
(135,1419,ls),
(112,1419,o),
(101,1383,o),
(101,1368,cs),
(101,1338,o),
(109,1334,o),
(137,1331,cs),
(198,1326,o),
(289,1320,o),
(289,1234,cs),
(288,152,ls),
(288,108,o),
(207,93,o),
(143,88,cs),
(117,85,o),
(110,72,o),
(110,51,cs,{
name = hr00;
}),
(110,36,o),
(121,0,o),
(144,0,cs)
);
}
);
width = 1788;
}
);
metricLeft = H;
metricRight = H;
unicode = 928;
}
{
glyphname = Sigma;
layers = (
{
anchors = (
{
name = bottom;
pos = (716,0);
},
{
name = top;
pos = (716,1419);
}
);
layerId = "DD6F9F34-BC40-4E8F-B1D3-DF3B42A9710F";
shapes = (
{
closed = 1;
nodes = (
(1235,0,l),
(1255,1,o),
(1270,14,o),
(1282,41,c),
(1332,449,l),
(1332,472,o),
(1306,483,o),
(1291,483,cs),
(1270,483,o),
(1257,476,o),
(1254,450,cs),
(1249,407,o),
(1138,163,o),
(1050,163,cs),
(292,163,l),
(856,773,l),
(859,777,o),
(861,781,o),
(861,785,cs),
(861,789,o),
(859,793,o),
(856,797,c),
(376,1336,l),
(983,1336,ls),
(1071,1336,o),
(1185,1092,o),
(1190,1049,cs),
(1193,1023,o),
(1206,1016,o),
(1227,1016,cs),
(1242,1016,o),
(1258,1027,o),
(1258,1050,c),
(1229,1378,l),
(1217,1405,o),
(1202,1418,o),
(1182,1419,c),
(140,1419,ls),
(124,1419,o),
(116,1404,o),
(116,1385,cs),
(116,1368,o),
(119,1344,o),
(142,1316,cs),
(662,690,l),
(138,123,ls),
(94,76,o),
(96,53,o),
(96,40,cs),
(96,11,o),
(112,0,o),
(136,0,cs)
);
}
);
width = 1421;
},
{
anchors = (
{
name = bottom;
pos = (764,0);
},
{
name = top;
pos = (764,1419);
}
);
layerId = "62CA62AF-CD91-478A-AB8B-28A62CC47DA0";
shapes = (
{
closed = 1;
nodes = (
(1290,0,l),
(1310,1,o),
(1324,14,o),
(1335,41,c),
(1432,529,l),
(1431,552,o),
(1384,563,o),
(1369,563,cs),
(1348,563,o),
(1332,554,o),
(1321,530,cs),
(1250,376,o),
(1176,250,o),
(1088,250,cs),
(366,250,l),
(831,758,ls),
(846,775,o),
(851,790,o),
(851,805,cs),
(851,818,o),
(847,832,o),
(835,848,cs),
(500,1323,l),
(1028,1323,ls),
(1171,1323,o),
(1212,1174,o),
(1255,1049,cs),
(1264,1023,o),
(1311,1016,o),
(1332,1016,cs),
(1347,1016,o),
(1383,1027,o),
(1383,1050,c),
(1354,1378,l),
(1342,1405,o),
(1327,1418,o),
(1307,1419,c),
(134,1419,ls),
(114,1419,o),
(101,1401,o),
(101,1377,cs),
(101,1366,o),
(103,1350,o),
(111,1340,cs),
(622,654,l),
(147,123,l,{
name = hr00;
}),
(111,69,o),
(105,53,o),
(105,40,cs),
(105,15,o),
(116,0,o),
(139,0,cs)
);
}
);
width = 1500;
}
);
unicode = 931;
}
{
glyphname = daggerdbl;
kernLeft = daggerdbl;
kernRight = daggerdbl;
layers = (
{
layerId = "DD6F9F34-BC40-4E8F-B1D3-DF3B42A9710F";
shapes = (
{
closed = 1;
nodes = (
(550,0,o),
(595,51,o),
(595,117,cs),
(595,143,o),
(542,322,o),
(531,380,c),
(597,363,o),
(763,312,o),
(789,312,cs),
(854,312,o),
(905,346,o),
(905,413,cs),
(905,478,o),
(854,521,o),
(789,521,cs),
(763,521,o),
(596,475,o),
(531,462,c),
(537,493,o),
(566,622,o),
(588,760,c),
(566,896,o),
(537,1039,o),
(531,1071,c),
(596,1058,o),
(763,1012,o),
(789,1012,cs),
(854,1012,o),
(905,1055,o),
(905,1121,cs),
(905,1187,o),
(854,1221,o),
(789,1221,cs),
(763,1221,o),
(597,1168,o),
(531,1152,c),
(542,1212,o),
(595,1413,o),
(595,1440,cs),
(595,1506,o),
(550,1557,o),
(485,1557,cs),
(418,1557,o),
(374,1506,o),
(374,1440,cs),
(374,1413,o),
(425,1206,o),
(436,1149,c),
(381,1161,o),
(205,1221,o),
(179,1221,cs),
(113,1221,o),
(62,1187,o),
(62,1121,cs),
(62,1055,o),
(113,1012,o),
(179,1012,cs),
(205,1012,o),
(383,1063,o),
(437,1073,c),
(433,1047,o),
(412,900,o),
(390,760,c),
(411,622,o),
(432,493,o),
(437,462,c),
(372,475,o),
(204,521,o),
(179,521,cs),
(113,521,o),
(62,478,o),
(62,413,cs),
(62,346,o),
(113,312,o),
(179,312,cs,{
name = hr01;
}),
(204,312,o),
(370,364,o),
(436,380,c,{
name = hr02;
}),
(424,322,o),
(374,143,o),
(374,117,cs),
(374,51,o),
(418,0,o),
(485,0,cs)
);
}
);
width = 967;
},
{
layerId = "62CA62AF-CD91-478A-AB8B-28A62CC47DA0";
shapes = (
{
closed = 1;
nodes = (
(560,0,o),
(605,51,o),
(605,117,cs),
(605,143,o),
(552,322,o),
(541,380,c),
(607,363,o),
(773,312,o),
(799,312,cs),
(864,312,o),
(915,346,o),
(915,413,cs),
(915,478,o),
(864,521,o),
(799,521,cs),
(773,521,o),
(606,475,o),
(541,462,c),
(547,493,o),
(576,622,o),
(598,760,c),
(576,896,o),
(547,1039,o),
(541,1071,c),
(606,1058,o),
(773,1012,o),
(799,1012,cs),
(864,1012,o),
(915,1055,o),
(915,1121,cs),
(915,1187,o),
(864,1221,o),
(799,1221,cs),
(773,1221,o),
(607,1168,o),
(541,1152,c),
(552,1212,o),
(605,1413,o),
(605,1440,cs),
(605,1506,o),
(560,1557,o),
(495,1557,cs),
(428,1557,o),
(384,1506,o),
(384,1440,cs),
(384,1413,o),
(435,1206,o),
(446,1149,c),
(391,1161,o),
(215,1221,o),
(189,1221,cs),
(123,1221,o),
(72,1187,o),
(72,1121,cs),
(72,1055,o),
(123,1012,o),
(189,1012,cs),
(215,1012,o),
(393,1063,o),
(447,1073,c),
(443,1047,o),
(422,900,o),
(400,760,c),
(421,622,o),
(442,493,o),
(447,462,c),
(382,475,o),
(214,521,o),
(189,521,cs),
(123,521,o),
(72,478,o),
(72,413,cs),
(72,346,o),
(123,312,o),
(189,312,cs,{
name = hr01;
}),
(214,312,o),
(380,364,o),
(446,380,c,{
name = hr02;
}),
(434,322,o),
(384,143,o),
(384,117,cs),
(384,51,o),
(428,0,o),
(495,0,cs)
);
}
);
width = 987;
}
);
unicode = 8225;
userData = {
com.typemytype.robofont.guides = (
{
angle = 0;
isGlobal = 0;
magnetic = 5;
x = 0;
y = 1514;
}
);
};
}
{
glyphname = colonsign;
kernLeft = colonmonetary;
kernRight = colonmonetary;
layers = (
{
anchors = (
{
name = bottom;
pos = (722,0);
},
{
name = top;
pos = (752,1419);
}
);
layerId = "DD6F9F34-BC40-4E8F-B1D3-DF3B42A9710F";
shapes = (
{
closed = 1;
nodes = (
(475,-128,l),
(476,-142,o),
(514,-152,o),
(539,-152,cs),
(555,-152,o),
(575,-144,o),
(582,-128,c),
(1184,1525,l),
(1183,1539,o),
(1165,1549,o),
(1140,1549,cs),
(1124,1549,o),
(1084,1541,o),
(1077,1525,c)
);
},
{
closed = 1;
nodes = (
(194,-78,l),
(195,-92,o),
(233,-102,o),
(258,-102,cs),
(274,-102,o),
(294,-94,o),
(301,-78,c),
(903,1575,l),
(902,1589,o),
(884,1599,o),
(859,1599,cs),
(843,1599,o),
(803,1591,o),
(796,1575,c)
);
},
{
closed = 1;
nodes = (
(1000,-30,o),
(1175,80,o),
(1178,108,cs),
(1210,382,l),
(1210,405,o),
(1165,416,o),
(1149,416,cs),
(1127,416,o),
(1117,409,o),
(1112,383,cs),
(1079,210,o),
(978,65,o),
(751,65,cs),
(592,65,o),
(322,152,o),
(322,706,cs),
(322,1289,o),
(558,1353,o),
(729,1353,cs),
(960,1353,o),
(1072,1204,o),
(1119,1036,c),
(1122,1014,o),
(1137,1007,o),
(1154,1007,cs),
(1158,1007,o),
(1161,1008,o),
(1165,1008,cs),
(1181,1008,o),
(1214,1025,o),
(1211,1048,c),
(1189,1361,l),
(1118,1392,o),
(996,1449,o),
(731,1449,cs),
(443,1449,o),
(65,1235,o),
(65,706,cs),
(65,144,o),
(431,-30,o),
(752,-30,cs)
);
}
);
width = 1315;
},
{
anchors = (
{
name = bottom;
pos = (799,0);
},
{
name = top;
pos = (853,1419);
}
);
layerId = "62CA62AF-CD91-478A-AB8B-28A62CC47DA0";
shapes = (
{
closed = 1;
nodes = (
(563,-128,l),
(564,-142,o),
(602,-152,o),
(627,-152,cs),
(643,-152,o),
(663,-144,o),
(670,-128,c),
(1272,1525,l),
(1271,1539,o),
(1253,1549,o),
(1228,1549,cs),
(1212,1549,o),
(1172,1541,o),
(1165,1525,c)
);
},
{
closed = 1;
nodes = (
(282,-78,l),
(283,-92,o),
(321,-102,o),
(346,-102,cs),
(362,-102,o),
(382,-94,o),
(389,-78,c),
(991,1575,l),
(990,1589,o),
(972,1599,o),
(947,1599,cs),
(931,1599,o),
(891,1591,o),
(884,1575,c)
);
},
{
closed = 1;
nodes = (
(1121,-30,o),
(1322,80,o),
(1325,108,cs),
(1353,412,l),
(1353,435,o),
(1298,446,o),
(1282,446,cs),
(1260,446,o),
(1239,439,o),
(1234,413,cs),
(1199,231,o),
(1085,65,o),
(882,65,cs),
(722,65,o),
(461,152,o),
(461,706,cs),
(461,1289,o),
(697,1353,o),
(860,1353,cs),
(1088,1353,o),
(1164,1200,o),
(1195,1029,cs),
(1199,1007,o),
(1244,1000,o),
(1272,1000,cs),
(1278,1000,o),
(1282,1001,o),
(1286,1001,cs),
(1303,1001,o),
(1355,1018,o),
(1352,1041,c),
(1335,1361,l),
(1281,1360,o),
(1187,1449,o),
(862,1449,cs),
(510,1449,o),
(72,1235,o),
(72,706,cs,{
name = hr00;
}),
(72,144,o),
(482,-30,o),
(883,-30,cs)
);
}
);
width = 1464;
}
);
unicode = 8353;
}
{
glyphname = franc;
kernLeft = franc;
kernRight = franc;
layers = (
{
anchors = (
{
name = top;
pos = (694,1419);
}
);
layerId = "DD6F9F34-BC40-4E8F-B1D3-DF3B42A9710F";
shapes = (
{
closed = 1;
nodes = (
(766,287,l),
(780,293,o),
(790,335,o),
(790,360,cs),
(790,376,o),
(782,393,o),
(766,394,c),
(157,394,l),
(143,388,o),
(133,366,o),
(133,341,cs),
(133,325,o),
(141,288,o),
(157,287,c)
);
},
{
closed = 1;
nodes = (
(748,0,ls),
(771,0,o),
(782,36,o),
(782,51,cs),
(782,81,o),
(768,88,o),
(746,88,cs),
(661,88,o),
(524,111,o),
(524,197,cs),
(524,655,l),
(782,655,ls),
(838,655,o),
(878,514,o),
(883,471,cs),
(886,445,o),
(914,438,o),
(935,438,cs),
(950,438,o),
(976,449,o),
(976,472,cs),
(976,915,ls),
(976,938,o),
(950,949,o),
(935,949,cs),
(914,949,o),
(886,942,o),
(883,916,cs),
(878,876,o),
(840,748,o),
(788,741,c),
(524,741,l),
(524,1320,l),
(903,1320,ls),
(1011,1320,o),
(1106,1108,o),
(1111,1069,cs),
(1114,1043,o),
(1133,1036,o),
(1154,1036,cs),
(1169,1036,o),
(1195,1047,o),
(1195,1070,c),
(1158,1418,l),
(134,1419,ls),
(111,1419,o),
(100,1383,o),
(100,1368,cs),
(100,1338,o),
(108,1334,o),
(136,1331,c),
(209,1326,o),
(318,1320,o),
(318,1234,cs),
(317,152,ls),
(317,108,o),
(221,93,o),
(142,88,c),
(116,85,o),
(109,72,o),
(109,51,cs),
(109,36,o),
(120,0,o),
(143,0,cs)
);
}
);
width = 1274;
},
{
anchors = (
{
name = top;
pos = (752,1419);
}
);
layerId = "62CA62AF-CD91-478A-AB8B-28A62CC47DA0";
shapes = (
{
closed = 1;
nodes = (
(858,286,l),
(872,292,o),
(882,334,o),
(882,359,cs),
(882,375,o),
(874,392,o),
(858,393,c),
(169,393,l),
(155,387,o),
(145,365,o),
(145,340,cs),
(145,324,o),
(153,287,o),
(169,286,c)
);
},
{
closed = 1;
nodes = (
(895,0,ls),
(918,0,o),
(929,36,o),
(929,51,cs),
(929,81,o),
(915,88,o),
(893,88,cs),
(808,88,o),
(631,111,o),
(631,197,cs),
(631,650,l),
(894,650,ls),
(950,650,o),
(995,514,o),
(998,471,c),
(1001,445,o),
(1026,438,o),
(1047,438,cs),
(1062,438,o),
(1088,449,o),
(1088,472,cs),
(1088,915,ls),
(1088,938,o),
(1062,949,o),
(1047,949,cs),
(1026,949,o),
(1004,943,o),
(1001,917,cs),
(996,877,o),
(952,753,o),
(900,746,c),
(631,746,l),
(631,1320,l),
(998,1320,ls),
(1106,1320,o),
(1128,1219,o),
(1208,1069,cs),
(1224,1039,o),
(1264,1036,o),
(1285,1036,cs),
(1300,1036,o),
(1322,1047,o),
(1322,1070,c),
(1283,1418,l),
(151,1419,ls),
(128,1419,o),
(117,1383,o),
(117,1368,cs),
(117,1338,o),
(125,1334,o),
(153,1331,c),
(226,1326,o),
(295,1320,o),
(295,1234,cs),
(295,152,ls),
(295,108,o),
(238,93,o),
(159,88,c),
(133,85,o),
(126,72,o),
(126,51,cs,{
name = hr00;
}),
(126,36,o),
(137,0,o),
(160,0,cs)
);
}
);
width = 1413;
}
);
unicode = 8355;
}
{
glyphname = tenge;
layers = (
{
layerId = "DD6F9F34-BC40-4E8F-B1D3-DF3B42A9710F";
shapes = (
{
closed = 1;
nodes = (
(935,0,ls),
(958,0,o),
(969,36,o),
(969,51,cs),
(969,81,o),
(961,85,o),
(933,88,c),
(852,93,o),
(731,99,o),
(731,185,cs),
(732,1033,l),
(945,1033,ls),
(1059,1033,o),
(1094,797,o),
(1099,732,c),
(1102,706,o),
(1115,699,o),
(1136,699,cs),
(1151,699,o),
(1187,710,o),
(1187,733,c),
(1183,864,o),
(1162,1132,o),
(1147,1132,cs),
(110,1132,ls),
(95,1132,o),
(76,864,o),
(70,733,cs),
(69,710,o),
(106,699,o),
(121,699,cs),
(142,699,o),
(155,706,o),
(158,732,c),
(163,797,o),
(198,1033,o),
(312,1033,cs),
(525,1033,l),
(524,182,ls),
(524,108,o),
(413,93,o),
(319,88,c),
(293,85,o),
(286,72,o),
(286,51,cs),
(286,36,o),
(297,0,o),
(320,0,cs)
);
},
{
closed = 1;
nodes = (
(1136,1312,l),
(1150,1318,o),
(1160,1360,o),
(1160,1385,cs),
(1160,1401,o),
(1152,1418,o),
(1136,1419,c),
(112,1419,l),
(98,1413,o),
(88,1391,o),
(88,1366,cs),
(88,1350,o),
(96,1313,o),
(112,1312,c)
);
}
);
width = 1257;
},
{
layerId = "62CA62AF-CD91-478A-AB8B-28A62CC47DA0";
shapes = (
{
closed = 1;
nodes = (
(1075,0,ls),
(1098,0,o),
(1109,36,o),
(1109,51,cs),
(1109,81,o),
(1101,85,o),
(1073,88,c),
(992,93,o),
(871,99,o),
(871,185,cs),
(871,1034,l),
(1028,1034,ls),
(1143,1034,o),
(1177,798,o),
(1182,733,cs),
(1184,707,o),
(1218,700,o),
(1239,700,cs),
(1254,700,o),
(1290,711,o),
(1290,734,c),
(1286,865,o),
(1275,1133,o),
(1260,1133,cs),
(143,1133,ls),
(128,1133,o),
(117,865,o),
(113,734,c),
(113,711,o),
(149,700,o),
(164,700,cs),
(185,700,o),
(218,707,o),
(221,733,c),
(226,798,o),
(261,1034,o),
(375,1034,cs),
(535,1034,l),
(535,182,ls),
(535,108,o),
(423,93,o),
(329,88,c),
(303,85,o),
(296,72,o),
(296,51,cs,{
name = hr00;
}),
(296,36,o),
(307,0,o),
(330,0,cs)
);
},
{
closed = 1;
nodes = (
(1254,1312,l),
(1268,1318,o),
(1278,1360,o),
(1278,1385,cs),
(1278,1401,o),
(1270,1418,o),
(1254,1419,c),
(162,1419,l),
(148,1413,o),
(138,1391,o),
(138,1366,cs),
(138,1350,o),
(146,1313,o),
(162,1312,c)
);
}
);
width = 1401;
}
);
unicode = 8376;
}
{
glyphname = manat;
kernLeft = uni20BC;
kernRight = uni20BC;
layers = (
{
anchors = (
{
name = bottom;
pos = (775,0);
},
{
name = bottomright;
pos = (1529,0);
},
{
name = ogonek;
pos = (1394,1409);
}
);
layerId = "DD6F9F34-BC40-4E8F-B1D3-DF3B42A9710F";
shapes = (
{
closed = 1;
nodes = (
(814,439,l),
(824,425,o),
(890,415,o),
(929,415,cs),
(954,415,o),
(981,423,o),
(983,439,c),
(983,1419,l),
(973,1433,o),
(939,1443,o),
(899,1443,cs),
(874,1443,o),
(816,1435,o),
(814,1419,c)
);
},
{
closed = 1;
nodes = (
(881,1236,l),
(869,1237,o),
(801,1237,o),
(789,1237,cs),
(427,1237,o),
(258,1014,o),
(259,692,cs),
(260,185,ls),
(260,99,o),
(179,93,o),
(118,88,cs),
(90,85,o),
(82,81,o),
(82,51,cs),
(82,36,o),
(93,0,o),
(116,0,cs),
(631,0,ls),
(654,0,o),
(665,36,o),
(665,51,cs),
(665,72,o),
(658,85,o),
(632,88,cs),
(563,93,o),
(477,108,o),
(477,152,cs),
(476,684,ls),
(475,996,o),
(585,1143,o),
(793,1143,cs),
(803,1143,o),
(869,1143,o),
(879,1142,c)
);
},
{
closed = 1;
nodes = (
(934,1143,o),
(993,1143,o),
(1003,1143,cs),
(1211,1143,o),
(1321,996,o),
(1320,684,cs),
(1319,152,ls),
(1319,108,o),
(1233,93,o),
(1164,88,cs),
(1138,86,o),
(1131,72,o),
(1131,51,cs),
(1131,36,o),
(1142,0,o),
(1165,0,cs),
(1680,0,ls),
(1703,0,o),
(1714,36,o),
(1714,51,cs),
(1714,81,o),
(1706,85,o),
(1678,88,cs),
(1617,95,o),
(1536,99,o),
(1536,185,cs),
(1537,692,ls),
(1538,1014,o),
(1369,1237,o),
(1007,1237,cs),
(995,1237,o),
(934,1237,o),
(922,1236,c),
(924,1142,l)
);
}
);
width = 1796;
},
{
anchors = (
{
name = bottom;
pos = (853,0);
},
{
name = bottomright;
pos = (1686,0);
},
{
name = ogonek;
pos = (1535,1409);
}
);
layerId = "62CA62AF-CD91-478A-AB8B-28A62CC47DA0";
shapes = (
{
closed = 1;
nodes = (
(916,439,l),
(927,425,o),
(1002,415,o),
(1046,415,cs),
(1074,415,o),
(1105,423,o),
(1106,439,c),
(1106,1419,l),
(1096,1433,o),
(1057,1443,o),
(1012,1443,cs),
(984,1443,o),
(918,1435,o),
(916,1419,c)
);
},
{
closed = 1;
nodes = (
(988,1250,l),
(977,1251,o),
(930,1251,o),
(919,1251,cs),
(488,1251,o),
(258,1028,o),
(259,706,cs),
(260,185,ls),
(260,99,o),
(179,93,o),
(118,88,cs),
(90,85,o),
(82,81,o),
(82,51,cs),
(82,36,o),
(93,0,o),
(116,0,cs),
(761,0,ls),
(784,0,o),
(795,36,o),
(795,51,cs),
(795,72,o),
(788,86,o),
(762,88,cs),
(693,93,o),
(607,108,o),
(607,152,cs),
(606,698,ls),
(605,1010,o),
(699,1157,o),
(923,1157,cs),
(933,1157,o),
(978,1157,o),
(988,1156,c)
);
},
{
closed = 1;
nodes = (
(1052,1157,o),
(1091,1157,o),
(1101,1157,cs),
(1325,1157,o),
(1419,1010,o),
(1418,698,cs),
(1417,152,ls),
(1417,108,o),
(1331,93,o),
(1262,88,cs),
(1236,86,o),
(1229,72,o),
(1229,51,cs),
(1229,36,o),
(1240,0,o),
(1263,0,cs),
(1908,0,ls),
(1931,0,o),
(1942,36,o),
(1942,51,cs),
(1942,81,o),
(1934,85,o),
(1906,88,cs),
(1845,95,o),
(1764,99,o),
(1764,185,cs),
(1765,706,ls),
(1766,1028,o),
(1536,1251,o),
(1105,1251,cs),
(1094,1251,o),
(1053,1251,o),
(1042,1250,c),
(1042,1156,l)
);
}
);
width = 2024;
}
);
unicode = 8380;
}
{
color = 1;
glyphname = careof;
layers = (
{
anchors = (
{
name = bottom;
pos = (1607.711,0);
},
{
name = center;
pos = (1607.711,480.322);
},
{
name = ogonek;
pos = (2034.879,9.664);
},
{
name = top;
pos = (1607.711,960.644);
},
{
name = topright;
pos = (2121.859,960.644);
}
);
layerId = "DD6F9F34-BC40-4E8F-B1D3-DF3B42A9710F";
shapes = (
{
closed = 1;
nodes = (
(661,441,o),
(774,522,o),
(831,636,cs),
(833,640,o),
(837,646,o),
(837,651,cs),
(837,656,o),
(834,659,o),
(826,663,cs),
(778,685,ls),
(766,691,o),
(764,678,o),
(760,670,cs),
(718,587,o),
(631,541,o),
(534,541,cs),
(432,541,o),
(276,641,o),
(276,943,cs),
(276,1247,o),
(383,1356,o),
(539,1356,cs),
(594,1356,o),
(621,1336,o),
(621,1336,c),
(702,1155,ls),
(721,1113,o),
(743,1109,o),
(781,1109,cs),
(815,1109,o),
(850,1143,o),
(850,1201,cs),
(850,1234,o),
(838,1277,o),
(808,1326,cs),
(748,1425,o),
(635,1449,o),
(525,1449,cs),
(268,1449,o),
(69,1265,o),
(69,952,cs),
(69,639,o),
(215,441,o),
(497,441,cs)
);
},
{
closed = 1;
nodes = (
(752,0,l),
(1423,1419,l),
(1286,1419,l),
(617,0,l)
);
},
{
closed = 1;
nodes = (
(1153,197,o),
(1321,-28,o),
(1611,-28,cs),
(1900,-28,o),
(2072,197,o),
(2072,475,cs),
(2072,754,o),
(1907,980,o),
(1617,980,cs),
(1327,980,o),
(1153,754,o),
(1153,475,cs)
);
},
{
closed = 1;
nodes = (
(1361,734,o),
(1414,887,o),
(1610,887,cs),
(1804,887,o),
(1862,734,o),
(1862,475,cs),
(1862,216,o),
(1808,64,o),
(1613,64,cs),
(1418,64,o),
(1361,216,o),
(1361,475,cs)
);
}
);
width = 2141;
},
{
anchors = (
{
name = bottom;
pos = (1842,0);
},
{
name = center;
pos = (1842,477);
},
{
name = ogonek;
pos = (2343,10);
},
{
name = top;
pos = (1842,955);
},
{
name = topright;
pos = (2449,955);
}
);
layerId = "62CA62AF-CD91-478A-AB8B-28A62CC47DA0";
shapes = (
{
closed = 1;
nodes = (
(767,442,o),
(906,523,o),
(970,636,cs),
(974,643,o),
(976,648,o),
(976,653,cs),
(976,657,o),
(973,661,o),
(967,664,c),
(924,684,l),
(912,687,o),
(905,677,o),
(899,670,cs),
(843,604,o),
(747,571,o),
(646,571,cs),
(524,571,o),
(402,685,o),
(402,941,cs),
(402,1245,o),
(498,1362,o),
(616,1362,cs),
(642,1362,o),
(660,1355,o),
(670,1346,c),
(769,1111,ls),
(779,1087,o),
(821,1053,o),
(868,1053,cs),
(915,1053,o),
(1005,1093,o),
(1005,1195,cs),
(1005,1216,o),
(1003,1231,o),
(992,1258,cs),
(938,1384,o),
(818,1444,o),
(621,1444,cs),
(294,1444,o),
(70,1255,o),
(70,941,cs,{
name = hr00;
}),
(70,639,o),
(237,442,o),
(621,442,cs)
);
},
{
closed = 1;
nodes = (
(879,0,l,{
name = hr00;
}),
(1598,1419,l),
(1451,1419,l),
(734,0,l)
);
},
{
closed = 1;
nodes = (
(1284,140,o),
(1500,-28,o),
(1835,-28,cs),
(2172,-28,o),
(2389,140,o),
(2389,473,cs),
(2389,805,o),
(2178,974,o),
(1842,974,cs),
(1508,974,o),
(1284,805,o),
(1284,473,cs,{
name = hr00;
})
);
},
{
closed = 1;
nodes = (
(1621,729,o),
(1663,882,o),
(1834,882,cs),
(2005,882,o),
(2052,730,o),
(2052,473,cs),
(2052,215,o),
(2008,63,o),
(1838,63,cs),
(1667,63,o),
(1621,215,o),
(1621,473,cs)
);
}
);
width = 2450;
}
);
metricLeft = c;
metricRight = u;
unicode = 8453;
}
{
glyphname = servicemark;
layers = (
{
layerId = "DD6F9F34-BC40-4E8F-B1D3-DF3B42A9710F";
shapes = (
{
closed = 1;
nodes = (
(746,748,o),
(858,818,o),
(858,940,cs),
(858,1034,o),
(735,1108,o),
(619,1155,cs),
(519,1196,o),
(437,1238,o),
(437,1298,cs),
(437,1366,o),
(503,1383,o),
(564,1383,cs),
(638,1383,o),
(730,1353,o),
(747,1252,cs),
(748,1246,o),
(778,1242,o),
(791,1242,cs),
(808,1242,o),
(824,1249,o),
(824,1269,cs),
(824,1271,o),
(824,1274,o),
(823,1276,cs),
(799,1324,o),
(808,1401,o),
(808,1413,cs),
(808,1423,o),
(789,1431,o),
(773,1431,cs),
(767,1431,o),
(762,1431,o),
(756,1428,cs),
(744,1422,o),
(741,1415,o),
(720,1415,cs),
(716,1415,o),
(710,1416,o),
(704,1416,cs),
(681,1416,o),
(629,1439,o),
(554,1439,cs),
(439,1439,o),
(295,1390,o),
(295,1261,cs),
(295,1150,o),
(390,1090,o),
(507,1046,cs),
(621,1003,o),
(685,971,o),
(685,909,cs),
(685,847,o),
(635,814,o),
(559,814,cs),
(493,814,o),
(427,829,o),
(382,901,cs),
(348,955,o),
(340,973,o),
(336,987,cs,{
name = L;
}),
(332,1000,o),
(313,1005,o),
(298,1005,cs),
(281,1005,o),
(256,996,o),
(259,976,c),
(264,945,o),
(272,888,o),
(272,832,cs),
(272,819,o),
(271,807,o),
(271,795,cs),
(271,782,o),
(281,773,o),
(297,773,cs),
(310,773,o),
(326,779,o),
(342,793,cs),
(349,799,o),
(355,801,o),
(361,801,cs),
(375,801,o),
(389,789,o),
(414,782,cs),
(442,774,o),
(491,748,o),
(594,748,cs)
);
},
{
closed = 1;
nodes = (
(1307,749,ls),
(1327,749,o),
(1337,764,o),
(1337,777,cs),
(1337,804,o),
(1330,808,o),
(1305,811,cs),
(1261,816,o),
(1204,820,o),
(1204,898,cs),
(1204,1295,l),
(1426,915,l),
(1471,915,l),
(1698,1366,l),
(1697,868,ls),
(1697,829,o),
(1661,815,o),
(1630,811,cs),
(1607,808,o),
(1600,803,o),
(1600,784,cs),
(1600,771,o),
(1610,749,o),
(1631,749,cs),
(1923,749,ls),
(1944,749,o),
(1954,764,o),
(1954,777,cs),
(1954,804,o),
(1947,808,o),
(1922,811,cs),
(1888,815,o),
(1848,820,o),
(1848,898,cs),
(1849,1308,ls),
(1849,1348,o),
(1895,1361,o),
(1925,1366,c),
(1949,1369,o),
(1955,1380,o),
(1955,1399,cs),
(1955,1413,o),
(1945,1427,o),
(1924,1427,cs),
(1632,1427,l),
(1482,1142,l),
(1471,1142,l),
(1298,1427,l,{
name = hr05;
}),
(1015,1427,l,{
name = hr03;
}),
(994,1426,o),
(984,1413,o),
(984,1399,cs),
(984,1372,o),
(992,1369,o),
(1017,1366,cs),
(1061,1361,o),
(1117,1356,o),
(1117,1279,cs),
(1117,897,ls),
(1117,821,o),
(1066,815,o),
(1022,811,c),
(999,808,o),
(993,796,o),
(993,777,cs),
(993,764,o),
(1002,749,o),
(1023,749,cs)
);
}
);
width = 2199;
},
{
layerId = "62CA62AF-CD91-478A-AB8B-28A62CC47DA0";
shapes = (
{
closed = 1;
nodes = (
(897,655,o),
(1018,728,o),
(1018,868,cs),
(1018,977,o),
(884,1066,o),
(751,1119,cs),
(635,1165,o),
(562,1211,o),
(562,1279,cs),
(562,1358,o),
(618,1377,o),
(688,1377,cs),
(773,1377,o),
(879,1343,o),
(898,1226,cs),
(899,1220,o),
(934,1215,o),
(948,1215,cs),
(968,1215,o),
(987,1223,o),
(987,1246,cs),
(987,1248,o),
(987,1252,o),
(986,1254,cs),
(958,1310,o),
(968,1398,o),
(968,1411,cs),
(968,1423,o),
(946,1432,o),
(928,1432,cs),
(921,1432,o),
(915,1432,o),
(909,1429,cs),
(894,1422,o),
(891,1413,o),
(867,1413,cs),
(862,1413,o),
(856,1416,o),
(848,1415,cs),
(822,1412,o),
(762,1442,o),
(677,1441,cs),
(545,1439,o),
(383,1386,o),
(383,1236,cs),
(383,1110,o),
(487,1034,o),
(623,983,cs),
(754,934,o),
(820,904,o),
(820,833,cs),
(820,761,o),
(769,731,o),
(682,731,cs),
(606,731,o),
(530,740,o),
(479,823,cs),
(440,886,o),
(431,906,o),
(426,922,cs),
(421,938,o),
(399,943,o),
(382,943,cs),
(373,943,o),
(345,933,o),
(348,910,c),
(353,874,o),
(362,809,o),
(362,744,cs),
(362,729,o),
(361,716,o),
(361,702,cs),
(361,688,o),
(373,677,o),
(391,677,cs),
(406,677,o),
(415,683,o),
(432,700,cs),
(440,708,o),
(448,709,o),
(454,709,cs),
(471,709,o),
(486,695,o),
(516,687,cs),
(548,679,o),
(604,655,o),
(723,655,cs)
);
},
{
closed = 1;
nodes = (
(1497,666,ls),
(1520,666,o),
(1531,682,o),
(1531,697,cs),
(1531,727,o),
(1523,731,o),
(1495,734,cs),
(1446,739,o),
(1383,745,o),
(1383,831,cs),
(1383,1263,l),
(1629,850,l),
(1679,850,l),
(1910,1351,l),
(1909,798,ls),
(1909,754,o),
(1868,739,o),
(1834,734,cs),
(1808,730,o),
(1801,726,o),
(1801,705,cs),
(1801,690,o),
(1812,666,o),
(1835,666,cs),
(2184,666,ls),
(2207,666,o),
(2218,682,o),
(2218,697,cs),
(2218,727,o),
(2210,731,o),
(2182,734,cs),
(2145,738,o),
(2100,745,o),
(2100,831,cs),
(2101,1287,ls),
(2101,1331,o),
(2142,1346,o),
(2176,1351,cs),
(2202,1355,o),
(2209,1367,o),
(2209,1388,cs),
(2209,1403,o),
(2198,1419,o),
(2175,1419,c),
(1836,1419,l),
(1697,1102,l),
(1685,1102,l),
(1507,1419,l),
(1173,1419,l),
(1150,1418,o),
(1139,1403,o),
(1139,1388,cs),
(1139,1358,o),
(1147,1354,o),
(1175,1351,cs),
(1224,1346,o),
(1276,1340,o),
(1276,1254,cs),
(1276,830,ls),
(1276,746,o),
(1230,740,o),
(1181,734,cs),
(1155,731,o),
(1148,718,o),
(1148,697,cs),
(1148,682,o),
(1159,666,o),
(1182,666,cs)
);
}
);
width = 2562;
}
);
unicode = 8480;
}
{
glyphname = YturnedSansSerif;
lastChange = "2025-06-28 13:36:43 +0000";
layers = (
{
.lastUpdate = 772810603.775;
anchors = (
{
name = bottom;
pos = (616,0);
},
{
name = bottomright;
pos = (1250,130);
},
{
name = top;
pos = (640,1419);
}
);
layerId = "DD6F9F34-BC40-4E8F-B1D3-DF3B42A9710F";
shapes = (
{
closed = 1;
nodes = (
(335,1419,ls),
(313,1419,o),
(301,1383,o),
(301,1368,cs),
(301,1338,o),
(319,1334,o),
(347,1331,cs),
(414,1324,o),
(519,1340,o),
(519,1254,cs),
(519,852,l),
(144,165,ls),
(99,83,o),
(42,83,o),
(-7,78,cs),
(-35,75,o),
(-43,71,o),
(-43,41,cs),
(-43,26,o),
(-31,0,o),
(-9,0,cs),
(406,0,ls),
(429,0,o),
(440,26,o),
(440,41,cs),
(440,62,o),
(433,75,o),
(407,78,c),
(329,82,o),
(259,87,o),
(255,116,cs),
(255,120,o),
(256,126,o),
(259,132,cs),
(610,820,l),
(554,820,l),
(895,132,ls),
(898,126,o),
(899,121,o),
(899,117,cs),
(899,86,o),
(826,82,o),
(747,78,c),
(721,75,o),
(714,62,o),
(714,41,cs),
(714,26,o),
(725,0,o),
(748,0,cs),
(1270,0,ls),
(1292,0,o),
(1304,26,o),
(1304,41,cs),
(1304,71,o),
(1296,75,o),
(1268,78,cs),
(1219,83,o),
(1162,82,o),
(1117,165,cs),
(726,885,l),
(726,1267,ls),
(726,1338,o),
(824,1326,o),
(891,1331,c),
(916,1334,o),
(934,1347,o),
(934,1368,cs),
(934,1383,o),
(923,1419,o),
(900,1419,cs)
);
}
);
width = 1260;
},
{
.lastUpdate = 772810584.176;
anchors = (
{
name = bottom;
pos = (670,0);
},
{
name = bottomright;
pos = (1474,0);
},
{
name = top;
pos = (744,1419);
}
);
layerId = "62CA62AF-CD91-478A-AB8B-28A62CC47DA0";
shapes = (
{
closed = 1;
nodes = (
(374,1419,ls),
(352,1419,o),
(340,1383,o),
(340,1368,cs),
(340,1338,o),
(358,1334,o),
(386,1331,c),
(453,1326,o),
(558,1340,o),
(558,1254,cs),
(558,884,l),
(153,165,ls),
(108,84,o),
(52,83,o),
(2,78,cs),
(-26,75,o),
(-34,71,o),
(-34,41,cs),
(-34,26,o),
(-22,0,o),
(0,0,cs),
(415,0,ls),
(438,0,o),
(449,26,o),
(449,41,cs),
(449,62,o),
(442,76,o),
(416,78,cs),
(322,86,o),
(265,95,o),
(265,120,cs),
(265,124,o),
(267,131,o),
(273,142,cs),
(637,800,l),
(604,801,l),
(953,157,ls),
(955,153,o),
(972,127,o),
(972,118,cs),
(972,85,o),
(923,85,o),
(793,78,c),
(767,75,o),
(760,62,o),
(760,41,cs),
(760,26,o),
(771,0,o),
(794,0,cs),
(1499,0,ls),
(1521,0,o),
(1533,26,o),
(1533,41,cs),
(1533,71,o),
(1525,75,o),
(1497,78,cs),
(1448,83,o),
(1387,85,o),
(1338,165,cs),
(895,894,l),
(895,1267,ls),
(895,1338,o),
(993,1326,o),
(1060,1331,c),
(1085,1334,o),
(1103,1347,o),
(1103,1368,cs,{
name = hr00;
}),
(1103,1383,o),
(1092,1419,o),
(1069,1419,cs)
);
}
);
width = 1499;
}
);
unicode = 8516;
}
{
glyphname = upArrow;
kernLeft = upArrow;
kernRight = upArrow;
layers = (
{
background = {
shapes = (
{
closed = 1;
nodes = (
(352,540,l),
(346,479,l),
(346,70,l),
(442,70,l),
(442,479,l),
(436,540,l),
(616,362,l),
(682,418,l),
(394,707,l),
(106,418,l),
(170,362,l)
);
}
);
};
layerId = "DD6F9F34-BC40-4E8F-B1D3-DF3B42A9710F";
shapes = (
{
closed = 1;
nodes = (
(744,-5,l),
(744,886,l),
(731,1019,l),
(1087,668,l),
(1230,790,l),
(640,1382,l),
(50,790,l),
(193,668,l),
(549,1019,l),
(536,886,l),
(536,-5,l)
);
}
);
width = 1280;
},
{
layerId = "62CA62AF-CD91-478A-AB8B-28A62CC47DA0";
shapes = (
{
closed = 1;
nodes = (
(744,-5,l),
(744,886,l),
(731,1019,l),
(1087,668,l),
(1230,790,l),
(640,1382,l),
(50,790,l),
(193,668,l),
(549,1019,l),
(536,886,l),
(536,-5,l)
);
}
);
width = 1280;
}
);
unicode = 8593;
}
{
glyphname = leftRightArrow;
kernLeft = leftRightArrow;
kernRight = leftRightArrow;
layers = (
{
layerId = "DD6F9F34-BC40-4E8F-B1D3-DF3B42A9710F";
shapes = (
{
closed = 1;
nodes = (
(764,442,l),
(413,798,l),
(546,785,l),
(1721,785,l),
(1854,798,l),
(1503,442,l),
(1625,299,l),
(2217,889,l),
(1625,1479,l),
(1503,1336,l),
(1854,980,l),
(1721,993,l),
(546,993,l),
(413,980,l),
(764,1336,l),
(642,1479,l),
(50,889,l),
(642,299,l)
);
}
);
width = 2267;
},
{
layerId = "62CA62AF-CD91-478A-AB8B-28A62CC47DA0";
shapes = (
{
closed = 1;
nodes = (
(764,442,l),
(413,798,l),
(546,785,l),
(1721,785,l),
(1854,798,l),
(1503,442,l),
(1625,299,l),
(2217,889,l),
(1625,1479,l),
(1503,1336,l),
(1854,980,l),
(1721,993,l),
(546,993,l),
(413,980,l),
(764,1336,l),
(642,1479,l),
(50,889,l),
(642,299,l)
);
}
);
width = 2267;
}
);
unicode = 8596;
}
{
glyphname = emptyset;
kernLeft = emptyset;
kernRight = emptyset;
layers = (
{
layerId = "DD6F9F34-BC40-4E8F-B1D3-DF3B42A9710F";
shapes = (
{
closed = 1;
nodes = (
(22,241,o),
(240,21,o),
(515,21,c),
(788,21,o),
(1012,241,o),
(1010,516,cs),
(1012,791,o),
(788,1011,o),
(515,1011,cs),
(242,1011,o),
(22,791,o),
(20,516,cs)
);
},
{
closed = 1;
nodes = (
(122,733,o),
(295,913,o),
(513,913,cs),
(733,913,o),
(901,735,o),
(901,518,cs),
(901,301,o),
(736,118,o),
(513,118,cs),
(295,118,o),
(122,298,o),
(122,514,cs)
);
},
{
closed = 1;
nodes = (
(41,10,l),
(120,-39,l),
(978,1041,l),
(897,1091,l)
);
}
);
width = 1030;
},
{
layerId = "62CA62AF-CD91-478A-AB8B-28A62CC47DA0";
shapes = (
{
closed = 1;
nodes = (
(20,248,o),
(249,24,o),
(531,24,c),
(812,24,o),
(1042,250,o),
(1042,531,cs),
(1042,816,o),
(815,1046,o),
(531,1046,cs),
(247,1046,o),
(20,816,o),
(20,528,cs)
);
},
{
closed = 1;
nodes = (
(198,715,o),
(344,870,o),
(529,870,cs),
(713,870,o),
(855,717,o),
(855,534,cs),
(855,349,o),
(715,193,o),
(529,193,cs),
(344,193,o),
(198,347,o),
(198,530,cs)
);
},
{
closed = 1;
nodes = (
(46,21,l),
(134,-48,l),
(1037,1066,l),
(947,1135,l)
);
}
);
width = 1062;
}
);
unicode = 8709;
}
{
glyphname = radical;
kernLeft = radical;
kernRight = radical;
layers = (
{
layerId = "DD6F9F34-BC40-4E8F-B1D3-DF3B42A9710F";
shapes = (
{
closed = 1;
nodes = (
(699,-127,l),
(1330,1801,l),
(1196,1801,l),
(699,187,l),
(382,994,l),
(137,994,ls),
(115,994,o),
(103,978,o),
(103,963,cs),
(103,933,o),
(111,929,o),
(139,926,cs),
(188,921,o),
(221,895,o),
(261,829,c),
(625,-127,l)
);
}
);
width = 1370;
},
{
layerId = "62CA62AF-CD91-478A-AB8B-28A62CC47DA0";
shapes = (
{
closed = 1;
nodes = (
(817,-127,l),
(1398,1801,l),
(1254,1801,l),
(816,187,l),
(519,815,l),
(184,815,ls),
(162,815,o),
(150,799,o),
(150,784,cs),
(150,754,o),
(158,750,o),
(186,747,cs),
(235,742,o),
(268,716,o),
(308,650,c),
(703,-127,l,{
name = hr00;
})
);
}
);
width = 1468;
}
);
unicode = 8730;
}
{
glyphname = integral;
kernLeft = integral;
kernRight = integral;
layers = (
{
layerId = "DD6F9F34-BC40-4E8F-B1D3-DF3B42A9710F";
shapes = (
{
closed = 1;
nodes = (
(470,-453,o),
(605,-210,o),
(605,45,cs),
(605,1107,ls),
(605,1440,o),
(688,1477,o),
(775,1481,c),
(864,1320,l),
(868,1317,o),
(875,1316,o),
(884,1316,cs),
(923,1316,o),
(996,1345,o),
(996,1418,cs),
(996,1487,o),
(938,1573,o),
(810,1573,cs),
(554,1573,o),
(419,1330,o),
(419,1075,cs),
(419,13,ls),
(419,-320,o),
(336,-357,o),
(249,-361,c),
(160,-200,l),
(156,-197,o),
(149,-196,o),
(140,-196,cs),
(101,-196,o),
(28,-225,o),
(28,-298,cs),
(28,-367,o),
(86,-453,o),
(214,-453,cs)
);
}
);
width = 1023;
},
{
layerId = "62CA62AF-CD91-478A-AB8B-28A62CC47DA0";
shapes = (
{
closed = 1;
nodes = (
(625,-448,o),
(802,-170,o),
(802,120,cs),
(802,1107,ls),
(802,1378,o),
(834,1446,o),
(860,1468,c),
(1089,1272,l),
(1089,1270,o),
(1100,1269,o),
(1100,1269,c),
(1161,1268,o),
(1219,1333,o),
(1219,1406,cs),
(1219,1489,o),
(1151,1573,o),
(956,1573,cs),
(662,1573,o),
(486,1305,o),
(486,1025,cs),
(486,18,ls),
(486,-292,o),
(457,-336,o),
(434,-350,c,{
name = hr02;
}),
(198,-147,l),
(198,-145,o),
(187,-144,o),
(187,-144,c,{
name = hr01;
}),
(126,-143,o),
(68,-208,o),
(68,-281,cs),
(68,-364,o),
(136,-448,o),
(331,-448,cs)
);
}
);
width = 1286;
}
);
unicode = 8747;
}
{
glyphname = lozenge;
kernLeft = lozenge;
kernRight = lozenge;
layers = (
{
layerId = "DD6F9F34-BC40-4E8F-B1D3-DF3B42A9710F";
shapes = (
{
closed = 1;
nodes = (
(575,1157,l),
(91,568,l),
(575,-20,l),
(1059,568,l)
);
},
{
closed = 1;
nodes = (
(857,568,l),
(575,217,l),
(297,568,l),
(575,917,l)
);
}
);
width = 1150;
},
{
layerId = "62CA62AF-CD91-478A-AB8B-28A62CC47DA0";
shapes = (
{
closed = 1;
nodes = (
(735,1206,l),
(200,592,l),
(735,-20,l),
(1270,592,l)
);
},
{
closed = 1;
nodes = (
(1060,592,l),
(735,227,l),
(414,592,l),
(735,956,l)
);
}
);
width = 1470;
}
);
unicode = 9674;
}
{
glyphname = Saltillo;
layers = (
{
anchors = (
{
name = bottom;
pos = (329,0);
},
{
name = top;
pos = (330,1419);
}
);
layerId = "DD6F9F34-BC40-4E8F-B1D3-DF3B42A9710F";
shapes = (
{
closed = 1;
nodes = (
(386,176,l),
(456,1419,l),
(199,1419,l),
(265,176,l)
);
}
);
width = 655;
},
{
anchors = (
{
name = bottom;
pos = (331,0);
},
{
name = top;
pos = (332,1419);
}
);
layerId = "62CA62AF-CD91-478A-AB8B-28A62CC47DA0";
shapes = (
{
closed = 1;
nodes = (
(430,176,l),
(500,1419,l),
(163,1419,l),
(229,176,l)
);
}
);
width = 663;
}
);
metricLeft = exclam;
metricRight = "=|";
unicode = 42891;
}
{
color = 1;
glyphname = uniA7AE;
layers = (
{
anchors = (
{
name = bottom;
pos = (628,0);
},
{
name = top;
pos = (624,1419);
}
);
layerId = "DD6F9F34-BC40-4E8F-B1D3-DF3B42A9710F";
shapes = (
{
closed = 1;
nodes = (
(529,99,l),
(276,99,ls),
(162,99,o),
(133,325,o),
(128,390,cs),
(125,416,o),
(112,423,o),
(91,423,cs),
(76,423,o),
(40,412,o),
(40,389,cs),
(44,258,o),
(59,0,o),
(74,0,cs),
(1192,0,ls),
(1207,0,o),
(1221,258,o),
(1227,389,cs),
(1228,412,o),
(1191,423,o),
(1176,423,cs),
(1155,423,o),
(1142,416,o),
(1139,390,cs),
(1134,325,o),
(1104,99,o),
(990,99,cs),
(736,99,l),
(738,1320,l),
(971,1320,ls),
(1085,1320,o),
(1114,1104,o),
(1119,1039,cs),
(1122,1013,o),
(1135,1006,o),
(1156,1006,cs),
(1171,1006,o),
(1207,1017,o),
(1207,1040,cs),
(1203,1171,o),
(1188,1419,o),
(1173,1419,cs),
(95,1419,ls),
(80,1419,o),
(66,1161,o),
(60,1030,cs),
(59,1007,o),
(96,996,o),
(111,996,cs),
(132,996,o),
(145,1003,o),
(148,1029,cs),
(153,1094,o),
(183,1320,o),
(297,1320,cs),
(531,1320,l)
);
}
);
width = 1267;
},
{
anchors = (
{
name = bottom;
pos = (717,0);
},
{
name = top;
pos = (717,1419);
}
);
layerId = "62CA62AF-CD91-478A-AB8B-28A62CC47DA0";
shapes = (
{
closed = 1;
nodes = (
(539,99,l),
(302,99,ls),
(187,99,o),
(155,315,o),
(148,380,cs),
(145,406,o),
(112,413,o),
(91,413,cs),
(76,413,o),
(40,402,o),
(40,379,cs),
(44,248,o),
(55,0,o),
(70,0,cs),
(1357,0,ls),
(1372,0,o),
(1383,258,o),
(1387,389,cs),
(1387,412,o),
(1351,423,o),
(1336,423,cs),
(1315,423,o),
(1282,416,o),
(1279,390,cs),
(1274,325,o),
(1239,99,o),
(1125,99,cs),
(875,99,l),
(875,1320,l),
(1092,1320,ls),
(1207,1320,o),
(1239,1064,o),
(1246,999,cs),
(1249,973,o),
(1282,966,o),
(1303,966,cs),
(1318,966,o),
(1354,977,o),
(1354,1000,cs),
(1350,1131,o),
(1339,1419,o),
(1324,1419,cs),
(77,1419,ls),
(62,1419,o),
(51,1131,o),
(47,1000,cs),
(47,977,o),
(83,966,o),
(98,966,cs),
(119,966,o),
(152,973,o),
(155,999,cs),
(160,1064,o),
(195,1320,o),
(309,1320,cs),
(539,1320,l)
);
}
);
width = 1401;
}
);
unicode = 42926;
}
{
glyphname = fi;
kernLeft = f;
kernRight = idotless;
layers = (
{
anchors = (
{
name = caret_1;
pos = (643,0);
}
);
background = {
shapes = (
{
closed = 1;
nodes = (
(628,0,ls),
(651,0,o),
(662,26,o),
(662,41,cs),
(662,71,o),
(654,75,o),
(626,78,c),
(561,83,o),
(524,89,o),
(524,175,cs),
(524,885,l),
(750,885,ls),
(882,885,o),
(915,864,o),
(915,778,cs),
(914,142,ls),
(914,98,o),
(868,83,o),
(819,78,cs),
(793,75,o),
(786,62,o),
(786,41,cs),
(786,26,o),
(797,0,o),
(820,0,cs),
(1355,0,ls),
(1377,0,o),
(1389,26,o),
(1389,41,cs),
(1389,71,o),
(1381,75,o),
(1353,78,cs),
(1304,83,o),
(1231,89,o),
(1231,175,cs),
(1231,957,ls),
(1231,989,o),
(1212,997,o),
(1201,997,cs),
(1139,997,o),
(1052,992,o),
(863,992,cs,{
name = hr02;
}),
(524,992,l),
(524,1077,ls),
(524,1391,o),
(695,1478,o),
(814,1478,cs),
(847,1478,o),
(856,1473,o),
(871,1468,c),
(1032,1228,l),
(1032,1226,o),
(1043,1225,o),
(1043,1225,c),
(1165,1225,o),
(1201,1302,o),
(1201,1377,cs),
(1201,1471,o),
(1126,1573,o),
(842,1573,cs),
(391,1573,o),
(208,1315,o),
(208,1045,cs),
(208,992,l),
(55,975,l,{
name = hr03;
}),
(41,969,o),
(30,954,o),
(30,929,cs),
(30,913,o),
(38,886,o),
(54,885,c),
(208,885,l),
(208,142,ls),
(208,98,o),
(141,83,o),
(92,78,cs),
(66,75,o),
(59,62,o),
(59,41,cs,{
name = hr01;
}),
(59,26,o),
(70,0,o),
(93,0,cs)
);
}
);
};
layerId = "DD6F9F34-BC40-4E8F-B1D3-DF3B42A9710F";
shapes = (
{
closed = 1;
nodes = (
(523,0,ls),
(546,0,o),
(557,26,o),
(557,41,cs),
(557,71,o),
(549,75,o),
(521,78,cs),
(456,83,o),
(359,89,o),
(359,175,cs),
(359,907,l),
(688,908,l),
(742,908,o),
(837,902,o),
(837,778,cs),
(836,142,ls),
(836,98,o),
(770,83,o),
(721,78,cs),
(695,75,o),
(688,62,o),
(688,41,cs),
(688,26,o),
(699,0,o),
(722,0,cs),
(1147,0,ls),
(1169,0,o),
(1181,26,o),
(1181,41,cs),
(1181,71,o),
(1173,75,o),
(1145,78,cs),
(1096,83,o),
(1023,89,o),
(1023,175,cs),
(1023,957,l),
(1020,989,o),
(1004,997,o),
(993,997,cs),
(961,996,o),
(909,996,o),
(847,994,cs),
(359,994,l),
(359,1107,ls),
(359,1395,o),
(533,1474,o),
(695,1474,cs),
(728,1474,o),
(753,1467,o),
(777,1451,c),
(900,1258,l),
(956,1258,o),
(1040,1252,o),
(1040,1404,cs),
(1040,1497,o),
(917,1573,o),
(737,1573,cs),
(407,1573,o),
(177,1399,o),
(173,1075,cs),
(172,994,l),
(50,984,l,{
name = L;
}),
(36,978,o),
(26,966,o),
(26,941,cs),
(26,925,o),
(34,908,o),
(50,907,c),
(173,907,l),
(173,142,ls),
(173,98,o),
(106,83,o),
(57,78,cs),
(31,75,o),
(24,62,o),
(24,41,cs),
(24,26,o),
(35,0,o),
(58,0,cs)
);
}
);
width = 1193;
},
{
anchors = (
{
name = caret_1;
pos = (723,0);
}
);
layerId = "62CA62AF-CD91-478A-AB8B-28A62CC47DA0";
shapes = (
{
closed = 1;
nodes = (
(604,0,ls),
(627,0,o),
(638,26,o),
(638,41,cs),
(638,71,o),
(630,75,o),
(602,78,c),
(537,83,o),
(500,89,o),
(500,175,cs),
(500,885,l),
(726,885,ls),
(858,885,o),
(891,864,o),
(891,778,cs),
(890,142,ls),
(890,98,o),
(844,83,o),
(795,78,cs),
(769,75,o),
(762,62,o),
(762,41,cs),
(762,26,o),
(773,0,o),
(796,0,cs),
(1331,0,ls),
(1353,0,o),
(1365,26,o),
(1365,41,cs),
(1365,71,o),
(1357,75,o),
(1329,78,cs),
(1280,83,o),
(1207,89,o),
(1207,175,cs),
(1207,957,ls),
(1207,989,o),
(1188,997,o),
(1177,997,cs),
(1115,997,o),
(1028,992,o),
(839,992,cs,{
name = L;
}),
(500,992,l,{
name = L;
}),
(500,1077,ls),
(500,1391,o),
(671,1478,o),
(790,1478,cs),
(823,1478,o),
(832,1473,o),
(847,1468,c),
(1008,1228,l),
(1117,1226,o),
(1177,1270,o),
(1177,1377,cs),
(1177,1471,o),
(1102,1573,o),
(818,1573,cs),
(367,1573,o),
(184,1315,o),
(184,1045,cs),
(184,992,l,{
name = L;
}),
(31,975,l,{
name = hr03;
}),
(17,969,o),
(6,954,o),
(6,929,cs),
(6,913,o),
(14,886,o),
(30,885,c),
(184,885,l),
(184,142,ls),
(184,98,o),
(117,83,o),
(68,78,cs),
(42,75,o),
(35,62,o),
(35,41,cs,{
name = hr01;
}),
(35,26,o),
(46,0,o),
(69,0,cs)
);
}
);
width = 1423;
}
);
unicode = 64257;
}
{
color = 9;
glyphname = Eng.loclNSM;
layers = (
{
layerId = "DD6F9F34-BC40-4E8F-B1D3-DF3B42A9710F";
shapes = (
{
closed = 1;
nodes = (
(1125,-449,o),
(1264,-198,o),
(1264,44,cs),
(1264,1267,ls),
(1264,1311,o),
(1358,1326,o),
(1419,1331,cs),
(1445,1334,o),
(1452,1347,o),
(1452,1368,cs),
(1452,1383,o),
(1441,1419,o),
(1418,1419,cs),
(1013,1419,ls),
(990,1419,o),
(979,1383,o),
(979,1368,cs),
(979,1338,o),
(987,1334,o),
(1015,1331,cs),
(1076,1326,o),
(1167,1320,o),
(1167,1234,cs),
(1167,333,l),
(1155,333,l),
(376,1419,l),
(58,1419,ls),
(35,1419,o),
(24,1383,o),
(24,1368,cs),
(24,1338,o),
(32,1334,o),
(60,1331,cs),
(121,1326,o),
(201,1320,o),
(201,1234,cs),
(201,172,ls),
(201,108,o),
(130,93,o),
(66,88,c),
(40,85,o),
(33,72,o),
(33,51,cs),
(33,36,o),
(44,0,o),
(67,0,cs),
(442,0,ls),
(465,0,o),
(476,36,o),
(476,51,cs),
(476,81,o),
(468,85,o),
(440,88,cs),
(379,93,o),
(298,99,o),
(298,185,cs),
(298,1140,l),
(315,1140,l),
(1156,-7,l),
(1141,-276,o),
(1021,-345,o),
(947,-356,c),
(870,-208,l),
(809,-208,o),
(737,-236,o),
(737,-310,cs),
(737,-379,o),
(785,-449,o),
(913,-449,cs)
);
}
);
width = 1571;
},
{
layerId = "62CA62AF-CD91-478A-AB8B-28A62CC47DA0";
shapes = (
{
closed = 1;
nodes = (
(1398,-449,o),
(1430,-147,o),
(1430,88,cs),
(1430,1239,ls),
(1430,1306,o),
(1544,1325,o),
(1605,1331,cs),
(1631,1334,o),
(1638,1347,o),
(1638,1368,cs),
(1638,1383,o),
(1627,1419,o),
(1604,1419,cs),
(1129,1419,ls),
(1106,1419,o),
(1095,1383,o),
(1095,1368,cs),
(1095,1338,o),
(1103,1334,o),
(1131,1331,cs),
(1192,1326,o),
(1313,1320,o),
(1313,1234,cs),
(1313,483,l),
(1301,483,l),
(542,1419,l),
(84,1419,ls),
(61,1419,o),
(50,1383,o),
(50,1368,cs),
(50,1338,o),
(58,1334,o),
(86,1331,cs),
(147,1326,o),
(247,1320,o),
(247,1234,cs),
(247,172,ls),
(247,108,o),
(126,93,o),
(62,88,c),
(36,85,o),
(29,72,o),
(29,51,cs,{
name = hr00;
}),
(29,36,o),
(40,0,o),
(63,0,cs),
(578,0,ls),
(601,0,o),
(612,36,o),
(612,51,cs),
(612,81,o),
(604,85,o),
(576,88,cs),
(515,93,o),
(374,99,o),
(374,185,cs),
(374,1080,l),
(391,1080,l),
(1309,-55,l),
(1283,-278,o),
(1180,-347,o),
(993,-347,c),
(876,-135,l),
(797,-135,o),
(696,-173,o),
(696,-267,cs),
(696,-384,o),
(803,-449,o),
(976,-449,cs)
);
}
);
width = 1719;
}
);
}
{
glyphname = Ezh.localGAD;
layers = (
{
anchors = (
{
name = bottom;
pos = (711,0);
},
{
name = top;
pos = (711,1419);
}
);
layerId = "DD6F9F34-BC40-4E8F-B1D3-DF3B42A9710F";
shapes = (
{
closed = 1;
nodes = (
(186,1419,l),
(166,1418,o),
(151,1405,o),
(139,1378,c),
(89,970,l),
(89,947,o),
(115,936,o),
(130,936,cs),
(151,936,o),
(164,943,o),
(167,969,cs),
(172,1012,o),
(283,1256,o),
(371,1256,cs),
(1129,1256,l),
(565,646,l),
(562,642,o),
(560,638,o),
(560,634,cs),
(560,630,o),
(562,626,o),
(565,622,c),
(1045,83,l),
(438,83,ls),
(350,83,o),
(236,327,o),
(231,370,cs),
(228,396,o),
(215,403,o),
(194,403,cs),
(179,403,o),
(163,392,o),
(163,369,c),
(192,41,l),
(204,14,o),
(219,1,o),
(239,0,c),
(1281,0,ls),
(1297,0,o),
(1305,15,o),
(1305,34,cs),
(1305,51,o),
(1302,75,o),
(1279,103,cs),
(759,729,l),
(1283,1296,ls),
(1327,1343,o),
(1325,1366,o),
(1325,1379,cs),
(1325,1408,o),
(1309,1419,o),
(1285,1419,cs)
);
}
);
width = 1421;
},
{
anchors = (
{
name = bottom;
pos = (750,0);
},
{
name = top;
pos = (750,1419);
}
);
layerId = "62CA62AF-CD91-478A-AB8B-28A62CC47DA0";
shapes = (
{
closed = 1;
nodes = (
(210,1419,l),
(190,1418,o),
(176,1405,o),
(165,1378,c),
(68,890,l),
(69,867,o),
(116,856,o),
(131,856,cs),
(152,856,o),
(168,865,o),
(179,889,cs),
(250,1043,o),
(324,1169,o),
(412,1169,cs),
(1134,1169,l),
(669,661,ls),
(654,644,o),
(649,629,o),
(649,614,cs),
(649,601,o),
(653,587,o),
(665,571,cs),
(1000,96,l),
(472,96,ls),
(329,96,o),
(288,245,o),
(245,370,cs),
(236,396,o),
(189,403,o),
(168,403,cs),
(153,403,o),
(117,392,o),
(117,369,c),
(146,41,l),
(158,14,o),
(173,1,o),
(193,0,c),
(1366,0,ls),
(1386,0,o),
(1399,18,o),
(1399,42,cs),
(1399,53,o),
(1397,69,o),
(1389,79,cs),
(878,765,l),
(1353,1296,l,{
name = hr00;
}),
(1389,1350,o),
(1395,1366,o),
(1395,1379,cs),
(1395,1404,o),
(1384,1419,o),
(1361,1419,cs)
);
}
);
width = 1500;
}
);
}
{
glyphname = Lslash_part;
layers = (
{
anchors = (
{
name = _Lslash;
pos = (440,828);
}
);
layerId = "DD6F9F34-BC40-4E8F-B1D3-DF3B42A9710F";
shapes = (
{
closed = 1;
nodes = (
(767,899,l),
(771,903,o),
(773,912,o),
(773,923,cs),
(773,940,o),
(769,962,o),
(763,976,cs),
(757,991,o),
(743,1004,o),
(728,999,c),
(115,752,l),
(109,746,o),
(106,735,o),
(106,723,cs),
(106,714,o),
(108,704,o),
(112,694,cs),
(118,679,o),
(139,647,o),
(154,652,c)
);
}
);
width = 879;
},
{
anchors = (
{
name = _Lslash;
pos = (479,828);
}
);
layerId = "62CA62AF-CD91-478A-AB8B-28A62CC47DA0";
shapes = (
{
closed = 1;
nodes = (
(857,899,l),
(861,903,o),
(863,912,o),
(863,923,cs),
(863,940,o),
(859,962,o),
(853,976,cs),
(847,991,o),
(833,1004,o),
(818,999,c),
(105,752,l),
(99,746,o),
(96,735,o),
(96,723,cs),
(96,714,o),
(98,704,o),
(102,694,cs),
(108,679,o),
(129,647,o),
(144,652,c)
);
}
);
width = 959;
}
);
metricLeft = hyphen;
metricRight = hyphen;
}
{
color = 9;
glyphname = a.sc;
kernLeft = a;
kernRight = n;
layers = (
{
anchors = (
{
name = bottom;
pos = (653,0);
},
{
name = ogonek;
pos = (1175,10);
},
{
name = top;
pos = (653,1254);
}
);
background = {
shapes = (
{
closed = 1;
nodes = (
(97,50,o),
(256,-21,o),
(377,-21,cs),
(517,-21,o),
(611,18,o),
(698,109,c),
(698,99,ls),
(698,-28,o),
(770,-19,o),
(822,-19,cs),
(885,-19,o),
(959,17,o),
(994,43,cs),
(998,46,o),
(1000,52,o),
(1000,59,cs),
(1000,79,o),
(983,109,o),
(960,102,cs),
(936,95,o),
(926,94,o),
(907,94,cs),
(885,94,o),
(869,149,o),
(869,201,cs),
(869,689,ls),
(869,848,o),
(819,1014,o),
(518,1014,cs),
(268,1014,o),
(109,900,o),
(109,781,cs),
(109,694,o),
(181,665,o),
(256,665,c),
(376,907,l),
(393,915,o),
(417,924,o),
(474,924,cs),
(633,924,o),
(680,827,o),
(680,753,c),
(680,599,l),
(412,571,o),
(97,508,o),
(97,243,cs,{
name = hr00;
})
);
},
{
closed = 1;
nodes = (
(306,456,o),
(455,495,o),
(679,528,c),
(679,176,l),
(639,136,o),
(559,90,o),
(449,90,cs),
(361,90,o),
(306,164,o),
(306,248,cs)
);
}
);
};
layerId = "DD6F9F34-BC40-4E8F-B1D3-DF3B42A9710F";
shapes = (
{
closed = 1;
nodes = (
(407,0,ls),
(428,0,o),
(439,31,o),
(439,44,cs),
(439,63,o),
(433,74,o),
(408,77,c),
(334,81,o),
(274,75,o),
(274,104,cs),
(274,107,o),
(275,112,o),
(276,115,cs),
(401,464,l),
(348,427,l),
(871,427,l),
(817,462,l),
(942,114,ls),
(943,111,o),
(944,107,o),
(944,102,cs),
(944,76,o),
(892,80,o),
(820,77,c),
(795,74,o),
(789,63,o),
(789,44,cs),
(789,32,o),
(799,0,o),
(820,0,cs),
(1295,0,ls),
(1316,0,o),
(1327,32,o),
(1327,44,cs),
(1327,69,o),
(1320,74,o),
(1293,77,cs),
(1240,82,o),
(1182,67,o),
(1153,145,cs),
(741,1254,l),
(585,1254,l),
(161,144,ls),
(131,66,o),
(65,81,o),
(21,77,cs),
(-3,75,o),
(-13,71,o),
(-13,44,cs),
(-13,21,o),
(-2,0,o),
(18,0,cs)
);
},
{
closed = 1;
nodes = (
(620,1033,l),
(815,470,l),
(843,501,l),
(376,501,l),
(403,471,l)
);
}
);
userData = {
RMXScaler = {
adjustSpace = 10;
height = 87;
width = 92;
};
};
width = 1305;
},
{
anchors = (
{
name = bottom;
pos = (742,0);
},
{
name = ogonek;
pos = (1336,10);
},
{
name = top;
pos = (742,1254);
}
);
layerId = "62CA62AF-CD91-478A-AB8B-28A62CC47DA0";
shapes = (
{
closed = 1;
nodes = (
(423,0,ls),
(444,0,o),
(455,31,o),
(455,44,cs),
(455,63,o),
(449,74,o),
(424,77,c),
(352,80,o),
(289,76,o),
(289,103,cs),
(289,106,o),
(290,110,o),
(292,115,cs),
(421,449,l),
(377,411,l),
(879,410,l),
(835,437,l),
(962,116,ls),
(964,111,o),
(965,107,o),
(965,100,cs),
(965,76,o),
(921,80,o),
(851,77,c),
(826,74,o),
(820,63,o),
(820,44,cs),
(820,32,o),
(830,0,o),
(851,0,cs),
(1447,0,ls),
(1468,0,o),
(1479,32,o),
(1479,44,cs),
(1479,69,o),
(1472,74,o),
(1445,77,cs),
(1402,81,o),
(1327,64,o),
(1295,144,cs),
(853,1254,l),
(623,1254,l),
(176,141,ls),
(147,69,o),
(80,81,o),
(37,77,cs),
(13,75,o),
(3,71,o),
(3,44,cs),
(3,21,o),
(14,0,o),
(34,0,cs)
);
},
{
closed = 1;
nodes = (
(649,1036,l),
(819,487,l),
(848,484,l),
(418,484,l),
(431,489,l)
);
}
);
userData = {
RMXScaler = {
adjustSpace = 10;
height = 87;
width = 92;
};
};
width = 1484;
}
);
userData = {
RMXScaler = {
source = A;
};
};
}
{
glyphname = acutecomb.case;
kernLeft = acutecomb;
kernRight = acutecomb;
layers = (
{
anchors = (
{
name = _top;
pos = (0,994);
},
{
name = top;
pos = (0,1567);
}
);
layerId = "DD6F9F34-BC40-4E8F-B1D3-DF3B42A9710F";
shapes = (
{
closed = 1;
nodes = (
(108,1284,o),
(254,1356,o),
(285,1386,cs),
(306,1407,o),
(323,1436,o),
(323,1468,cs),
(323,1490,o),
(315,1512,o),
(295,1534,cs),
(273,1557,o),
(247,1567,o),
(223,1567,cs),
(190,1567,o),
(159,1551,o),
(138,1531,cs),
(107,1501,o),
(12,1348,o),
(-152,1159,c),
(-96,1101,l)
);
}
);
width = 0;
},
{
anchors = (
{
name = _top;
pos = (73,994);
},
{
name = top;
pos = (73,1461);
}
);
layerId = "62CA62AF-CD91-478A-AB8B-28A62CC47DA0";
shapes = (
{
closed = 1;
nodes = (
(111,1274,o),
(271,1353,o),
(302,1383,cs),
(322,1402,o),
(335,1435,o),
(335,1470,cs),
(335,1500,o),
(326,1530,o),
(303,1554,cs),
(281,1577,o),
(252,1587,o),
(222,1587,cs),
(184,1587,o),
(146,1571,o),
(125,1551,cs),
(94,1521,o),
(5,1368,o),
(-149,1179,c),
(-93,1121,l,{
name = hr00;
})
);
}
);
width = 0;
}
);
}
{
color = 9;
glyphname = ae.sc;
kernLeft = a;
kernRight = e;
layers = (
{
anchors = (
{
name = bottom;
pos = (937,0);
},
{
name = top;
pos = (937,986);
}
);
background = {
shapes = (
{
closed = 1;
nodes = (
(41,50,o),
(200,-21,o),
(321,-21,cs),
(461,-21,o),
(550,18,o),
(637,109,c),
(637,99,ls),
(637,-28,o),
(709,-19,o),
(761,-19,cs),
(822,-19,o),
(904,13,o),
(936,43,c),
(940,46,o),
(942,52,o),
(942,59,cs),
(942,79,o),
(925,109,o),
(902,102,cs),
(878,95,o),
(863,94,o),
(844,94,cs),
(822,94,o),
(806,149,o),
(806,201,cs),
(806,689,ls),
(806,848,o),
(763,1014,o),
(462,1014,cs),
(232,1014,o),
(73,900,o),
(73,781,cs),
(73,694,o),
(125,665,o),
(200,665,c),
(320,907,l),
(320,907,o),
(356,924,o),
(418,924,cs),
(577,924,o),
(619,827,o),
(619,753,c),
(619,599,l),
(351,571,o),
(41,508,o),
(41,243,cs,{
name = hr00;
})
);
},
{
closed = 1;
nodes = (
(250,456,o),
(394,495,o),
(618,528,c),
(618,176,l),
(578,136,o),
(503,90,o),
(393,90,cs),
(305,90,o),
(250,164,o),
(250,248,cs)
);
}
);
};
layerId = "DD6F9F34-BC40-4E8F-B1D3-DF3B42A9710F";
shapes = (
{
closed = 1;
nodes = (
(379,0,ls),
(395,0,o),
(410,23,o),
(410,44,cs),
(410,65,o),
(401,76,o),
(376,77,cs),
(289,79,o),
(228,86,o),
(228,111,cs),
(228,117,o),
(230,124,o),
(234,132,cs),
(449,551,l),
(826,551,l),
(826,132,ls),
(826,92,o),
(744,83,o),
(681,76,cs),
(659,73,o),
(653,63,o),
(653,44,cs),
(653,32,o),
(663,0,o),
(685,0,cs),
(1713,1,l),
(1748,351,l),
(1748,371,o),
(1723,380,o),
(1709,380,cs),
(1689,380,o),
(1667,374,o),
(1663,351,cs),
(1656,307,o),
(1552,88,o),
(1461,88,cs),
(1114,88,ls),
(1073,88,o),
(1032,108,o),
(1032,171,cs),
(1032,576,l),
(1268,576,ls),
(1318,576,o),
(1356,457,o),
(1361,417,cs),
(1364,393,o),
(1395,388,o),
(1412,388,cs),
(1426,388,o),
(1450,398,o),
(1450,418,cs),
(1450,803,ls),
(1450,823,o),
(1427,833,o),
(1412,833,cs),
(1393,833,o),
(1364,827,o),
(1361,804,cs),
(1356,767,o),
(1320,659,o),
(1273,653,c),
(1032,653,l),
(1033,1148,l),
(1395,1148,ls),
(1499,1148,o),
(1574,971,o),
(1585,923,cs),
(1590,901,o),
(1612,895,o),
(1630,895,cs),
(1645,895,o),
(1668,905,o),
(1668,925,c),
(1635,1234,l),
(434,1235,ls),
(416,1235,o),
(402,1218,o),
(402,1199,cs),
(402,1169,o),
(412,1160,o),
(435,1158,cs),
(486,1154,o),
(577,1149,o),
(650,1145,c),
(108,143,ls),
(69,71,o),
(2,81,o),
(-42,77,cs),
(-70,74,o),
(-76,68,o),
(-76,44,cs),
(-76,32,o),
(-65,0,o),
(-45,0,cs)
);
},
{
closed = 1;
nodes = (
(749,1140,l),
(765,1138,o),
(814,1137,o),
(827,1135,c),
(827,628,l),
(491,628,l)
);
}
);
userData = {
RMXScaler = {
adjustSpace = 10;
height = 87;
width = 92;
};
};
width = 1873;
},
{
anchors = (
{
name = bottom;
pos = (1038,0);
},
{
name = top;
pos = (1038,994);
}
);
background = {
shapes = (
{
closed = 1;
nodes = (
(78,50,o),
(255,-24,o),
(376,-24,cs),
(516,-24,o),
(641,21,o),
(728,112,c),
(728,109,ls),
(728,87,o),
(712,-25,o),
(880,-25,cs),
(1043,-25,o),
(1145,22,o),
(1167,37,c),
(1171,40,o),
(1173,47,o),
(1173,55,cs),
(1173,79,o),
(1156,116,o),
(1133,109,cs),
(1109,102,o),
(1094,101,o),
(1075,101,cs),
(1053,101,o),
(1037,141,o),
(1037,193,cs),
(1037,736,ls),
(1037,895,o),
(908,1014,o),
(603,1014,cs),
(451,1014,o),
(128,944,o),
(128,781,cs),
(128,703,o),
(194,645,o),
(287,645,c),
(443,900,l),
(443,900,o),
(475,919,o),
(560,919,cs),
(649,919,o),
(710,890,o),
(710,763,c),
(709,598,l),
(440,570,o),
(78,508,o),
(78,242,cs,{
name = hr00;
})
);
},
{
closed = 1;
nodes = (
(417,460,o),
(574,498,o),
(709,518,c),
(709,196,l),
(683,164,o),
(633,120,o),
(548,120,cs),
(460,120,o),
(417,185,o),
(417,252,cs)
);
}
);
};
layerId = "62CA62AF-CD91-478A-AB8B-28A62CC47DA0";
shapes = (
{
closed = 1;
nodes = (
(458,0,ls),
(475,0,o),
(489,24,o),
(489,44,cs),
(489,67,o),
(477,77,o),
(456,77,cs,{
name = hr02;
}),
(335,77,o),
(295,90,o),
(295,127,cs),
(295,141,o),
(299,156,o),
(310,175,cs),
(467,444,l),
(955,444,l),
(955,132,ls),
(955,92,o),
(873,83,o),
(810,76,cs,{
name = hr03;
}),
(788,73,o),
(782,63,o),
(782,44,cs),
(782,32,o),
(792,0,o),
(814,0,cs),
(2024,0,l),
(2016,311,l),
(2018,331,o),
(1988,340,o),
(1969,340,cs),
(1939,340,o),
(1909,329,o),
(1901,308,cs),
(1885,266,o),
(1877,88,o),
(1735,88,cs),
(1375,88,ls),
(1334,88,o),
(1293,108,o),
(1293,171,cs),
(1293,601,l),
(1546,601,ls),
(1596,601,o),
(1638,489,o),
(1642,448,cs),
(1644,424,o),
(1666,418,o),
(1685,418,cs),
(1699,418,o),
(1723,428,o),
(1723,448,cs),
(1723,833,ls),
(1723,853,o),
(1700,863,o),
(1685,863,cs),
(1664,863,o),
(1648,857,o),
(1645,835,cs),
(1640,798,o),
(1598,694,o),
(1551,688,c),
(1293,688,l),
(1293,1148,l),
(1657,1148,ls),
(1783,1148,o),
(1789,1049,o),
(1848,965,cs),
(1864,942,o),
(1888,935,o),
(1906,935,cs),
(1920,935,o),
(1944,945,o),
(1944,965,c),
(1911,1235,l),
(505,1235,ls),
(483,1235,o),
(474,1209,o),
(474,1199,cs),
(474,1175,o),
(480,1160,o),
(507,1158,cs,{
name = hr04;
}),
(550,1155,o),
(638,1147,o),
(729,1137,c),
(162,143,ls),
(121,71,o),
(30,81,o),
(-13,77,cs),
(-36,75,o),
(-47,72,o),
(-47,44,cs),
(-47,32,o),
(-36,0,o),
(-16,0,cs,{
name = hr01;
})
);
},
{
closed = 1;
nodes = (
(825,1127,l,{
name = hr06;
}),
(881,1120,o),
(922,1113,o),
(955,1107,c),
(955,531,l),
(512,531,l)
);
}
);
userData = {
RMXScaler = {
adjustSpace = 10;
height = 87;
width = 92;
};
};
width = 2075;
}
);
userData = {
RMXScaler = {
source = AE;
};
};
}
{
color = 9;
glyphname = b.sc;
kernLeft = h;
kernRight = o;
layers = (
{
anchors = (
{
name = bottom;
pos = (639,0);
},
{
name = center;
pos = (319,309);
},
{
name = top;
pos = (620,1235);
}
);
layerId = "DD6F9F34-BC40-4E8F-B1D3-DF3B42A9710F";
shapes = (
{
closed = 1;
nodes = (
(710,0,ls),
(948,0,o),
(1192,111,o),
(1192,363,cs),
(1192,591,o),
(984,667,o),
(817,675,c),
(814,669,l),
(967,684,o),
(1113,780,o),
(1113,959,cs),
(1113,1170,o),
(902,1235,o),
(667,1235,cs),
(99,1235,ls),
(78,1235,o),
(68,1203,o),
(68,1190,cs),
(68,1164,o),
(75,1161,o),
(101,1158,c),
(166,1154,o),
(269,1149,o),
(269,1073,cs),
(268,132,ls),
(268,94,o),
(180,81,o),
(107,77,c),
(82,74,o),
(76,63,o),
(76,44,cs),
(76,31,o),
(87,0,o),
(108,0,cs)
);
},
{
closed = 1;
nodes = (
(471,1158,l),
(630,1158,ls),
(786,1158,o),
(900,1100,o),
(900,942,cs),
(900,764,o),
(758,706,o),
(616,706,cs),
(471,706,l)
);
},
{
closed = 1;
nodes = (
(464,89,o),
(471,121,o),
(471,121,cs),
(471,622,l),
(594,622,ls),
(728,622,o),
(972,628,o),
(972,366,cs),
(972,122,o),
(766,89,o),
(640,89,cs)
);
}
);
userData = {
RMXScaler = {
adjustSpace = 10;
height = 87;
width = 92;
};
};
width = 1277;
},
{
anchors = (
{
name = bottom;
pos = (745,0);
},
{
name = center;
pos = (372,309);
},
{
name = top;
pos = (760,1235);
}
);
background = {
shapes = (
{
closed = 1;
nodes = (
(558,0,ls),
(581,0,o),
(592,26,o),
(592,41,cs),
(592,71,o),
(584,75,o),
(556,78,cs),
(507,83,o),
(459,88,o),
(459,165,cs),
(459,340,l),
(584,461,l),
(650,333,o),
(782,0,o),
(822,0,cs),
(1221,0,ls),
(1244,0,o),
(1255,26,o),
(1255,41,cs),
(1255,70,o),
(1244,75,o),
(1222,78,cs),
(1172,85,o),
(1114,132,o),
(1074,198,cs),
(993,332,o),
(889,494,o),
(804,666,c),
(991,837,l),
(1040,876,o),
(1115,906,o),
(1179,906,cs),
(1201,906,o),
(1212,925,o),
(1212,949,cs),
(1212,964,o),
(1201,994,o),
(1178,994,cs),
(721,994,ls),
(698,994,o),
(687,964,o),
(687,949,cs),
(687,928,o),
(691,909,o),
(718,906,c),
(771,903,o),
(842,884,o),
(842,857,cs),
(842,852,o),
(839,847,o),
(833,842,c),
(459,485,l),
(459,1508,ls),
(459,1540,o),
(440,1548,o),
(429,1548,cs),
(347,1548,o),
(188,1546,o),
(-1,1534,cs),
(-17,1533,o),
(-25,1506,o),
(-25,1490,cs),
(-25,1465,o),
(-15,1456,o),
(-1,1450,c),
(53,1436,o),
(148,1453,o),
(148,1329,cs),
(148,132,ls),
(148,95,o),
(101,82,o),
(52,78,c),
(26,75,o),
(19,62,o),
(19,41,cs,{
name = hr00;
}),
(19,26,o),
(30,0,o),
(53,0,cs)
);
}
);
};
layerId = "62CA62AF-CD91-478A-AB8B-28A62CC47DA0";
shapes = (
{
closed = 1;
nodes = (
(858,0,ls),
(1251,0,o),
(1411,126,o),
(1411,368,cs),
(1411,538,o),
(1242,668,o),
(956,664,c),
(957,660,l),
(1156,653,o),
(1320,760,o),
(1320,969,cs),
(1320,1150,o),
(1144,1235,o),
(799,1235,cs),
(143,1235,ls),
(122,1235,o),
(112,1203,o),
(112,1190,cs),
(112,1164,o),
(119,1161,o),
(145,1158,c),
(210,1154,o),
(313,1149,o),
(313,1073,cs),
(312,132,ls),
(312,94,o),
(224,81,o),
(151,77,c),
(126,74,o),
(120,63,o),
(120,44,cs,{
name = hr00;
}),
(120,32,o),
(130,0,o),
(152,0,cs)
);
},
{
closed = 1;
nodes = (
(648,1146,l),
(738,1146,ls),
(894,1146,o),
(997,1088,o),
(997,930,cs),
(997,752,o),
(853,694,o),
(711,694,cs),
(648,694,l)
);
},
{
closed = 1;
nodes = (
(651,88,o),
(648,120,o),
(648,120,c),
(648,610,l),
(719,610,ls),
(852,610,o),
(1049,616,o),
(1049,363,cs),
(1049,123,o),
(913,88,o),
(785,88,cs)
);
}
);
userData = {
RMXScaler = {
adjustSpace = 10;
height = 87;
width = 92;
};
};
width = 1489;
}
);
userData = {
RMXScaler = {
source = B;
};
com.typemytype.robofont.mark = (
0.967,
0.6,
1,
1
);
};
}
{
glyphname = braceleft.case;
kernLeft = braceleft;
kernRight = braceleft;
layers = (
{
layerId = "DD6F9F34-BC40-4E8F-B1D3-DF3B42A9710F";
shapes = (
{
closed = 1;
nodes = (
(815,-199,l),
(815,-112,l),
(702,-112,ls),
(594,-112,o),
(556,-19,o),
(556,57,cs),
(556,454,ls),
(556,609,o),
(386,717,o),
(224,733,c),
(224,738,l),
(396,745,o),
(556,849,o),
(556,1012,cs),
(556,1409,ls),
(556,1485,o),
(594,1578,o),
(702,1578,cs),
(815,1578,l),
(815,1665,l),
(682,1665,ls),
(542,1665,o),
(355,1588,o),
(355,1366,cs),
(355,979,ls),
(355,870,o),
(241,788,o),
(136,788,cs),
(66,788,l),
(66,678,l),
(136,678,ls),
(241,678,o),
(355,596,o),
(355,487,cs),
(355,100,ls),
(355,-122,o),
(542,-199,o),
(682,-199,cs)
);
}
);
width = 881;
},
{
layerId = "62CA62AF-CD91-478A-AB8B-28A62CC47DA0";
shapes = (
{
closed = 1;
nodes = (
(951,-199,l),
(951,-92,l),
(838,-92,ls),
(730,-92,o),
(692,1,o),
(692,77,cs),
(692,454,ls),
(692,617,o),
(524,708,o),
(340,716,c),
(340,747,l,{
name = hr02;
}),
(520,757,o),
(692,852,o),
(692,1012,cs,{
name = hr03;
}),
(692,1389,ls),
(692,1465,o),
(728,1558,o),
(838,1558,cs),
(951,1558,l),
(951,1665,l),
(778,1665,ls),
(598,1665,o),
(361,1588,o),
(361,1366,cs),
(361,979,ls),
(361,870,o),
(247,783,o),
(142,783,cs),
(122,783,l,{
name = hr04;
}),
(122,683,l),
(142,683,ls),
(247,683,o),
(361,596,o),
(361,487,cs,{
name = hr05;
}),
(361,100,ls,{
name = hr01;
}),
(361,-122,o),
(598,-199,o),
(778,-199,cs)
);
}
);
width = 1024;
}
);
}
{
glyphname = bracketright.case;
kernLeft = bracketright;
kernRight = bracketright;
layers = (
{
layerId = "DD6F9F34-BC40-4E8F-B1D3-DF3B42A9710F";
shapes = (
{
closed = 1;
nodes = (
(600,-198,l),
(600,1664,l),
(156,1665,l),
(156,1568,l),
(405,1568,l),
(405,-102,l),
(156,-102,l),
(156,-199,l)
);
}
);
width = 768;
},
{
layerId = "62CA62AF-CD91-478A-AB8B-28A62CC47DA0";
shapes = (
{
closed = 1;
nodes = (
(730,-198,l,{
name = hr00;
}),
(730,1664,l),
(163,1665,l),
(163,1548,l,{
name = L;
}),
(412,1548,l,{
name = L;
}),
(412,-82,l),
(163,-82,l),
(163,-199,l)
);
}
);
width = 915;
}
);
}
{
glyphname = brevecomb_acutecomb.case;
kernLeft = brevecomb;
kernRight = brevecomb;
layers = (
{
anchors = (
{
name = _top;
pos = (0,994);
},
{
name = top;
pos = (0,1553);
}
);
layerId = "DD6F9F34-BC40-4E8F-B1D3-DF3B42A9710F";
shapes = (
{
closed = 1;
nodes = (
(111,1184,o),
(307,1233,o),
(313,1502,c),
(207,1502,l),
(201,1408,o),
(136,1326,o),
(0,1326,cs),
(-136,1326,o),
(-201,1408,o),
(-207,1502,c),
(-313,1502,l),
(-307,1233,o),
(-111,1184,o),
(0,1184,cs)
);
},
{
closed = 1;
nodes = (
(133,1648,o),
(250,1710,o),
(278,1733,cs),
(297,1749,o),
(309,1774,o),
(309,1801,cs),
(309,1819,o),
(303,1839,o),
(286,1857,cs),
(268,1877,o),
(247,1884,o),
(227,1884,cs),
(200,1884,o),
(175,1871,o),
(157,1854,cs),
(131,1830,o),
(55,1702,o),
(-79,1545,c),
(-33,1496,l)
);
}
);
width = 0;
},
{
anchors = (
{
name = _top;
pos = (0,994);
},
{
name = top;
pos = (0,1553);
}
);
layerId = "62CA62AF-CD91-478A-AB8B-28A62CC47DA0";
shapes = (
{
closed = 1;
nodes = (
(158,1180,o),
(344,1247,o),
(332,1501,c),
(207,1501,l),
(201,1387,o),
(136,1366,o),
(0,1366,cs),
(-136,1366,o),
(-201,1390,o),
(-207,1501,c),
(-332,1501,l),
(-344,1247,o),
(-158,1180,o),
(0,1180,cs,{
name = hr00;
})
);
},
{
closed = 1;
nodes = (
(135,1625,o),
(265,1690,o),
(292,1713,cs),
(309,1728,o),
(319,1757,o),
(319,1785,cs),
(319,1809,o),
(311,1833,o),
(293,1853,cs),
(275,1873,o),
(251,1880,o),
(227,1880,cs),
(195,1880,o),
(164,1867,o),
(147,1851,cs),
(121,1827,o),
(49,1702,o),
(-76,1547,c),
(-31,1500,l,{
name = hr00;
})
);
}
);
width = 0;
}
);
}
{
glyphname = brevecomb_tildecomb.case;
kernLeft = brevecomb;
kernRight = brevecomb;
layers = (
{
anchors = (
{
name = _top;
pos = (0,994);
},
{
name = top;
pos = (0,1549);
}
);
layerId = "DD6F9F34-BC40-4E8F-B1D3-DF3B42A9710F";
shapes = (
{
closed = 1;
nodes = (
(111,1184,o),
(307,1233,o),
(313,1502,c),
(207,1502,l),
(201,1408,o),
(136,1326,o),
(0,1326,cs),
(-136,1326,o),
(-201,1408,o),
(-207,1502,c),
(-313,1502,l),
(-307,1233,o),
(-111,1184,o),
(0,1184,cs)
);
},
{
closed = 1;
nodes = (
(174,1605,o),
(274,1693,o),
(274,1768,cs),
(274,1772,o),
(274,1776,o),
(273,1778,cs),
(266,1793,o),
(247,1806,o),
(238,1804,c),
(215,1793,o),
(192,1732,o),
(130,1732,cs),
(107,1732,o),
(81,1739,o),
(47,1759,cs),
(-2,1788,o),
(-41,1825,o),
(-103,1825,cs,{
name = hr03;
}),
(-163,1825,o),
(-233,1772,o),
(-269,1701,cs),
(-271,1697,o),
(-273,1689,o),
(-273,1681,cs),
(-273,1672,o),
(-272,1664,o),
(-269,1658,cs),
(-263,1645,o),
(-247,1633,o),
(-237,1633,cs),
(-236,1633,o),
(-230,1634,o),
(-225,1640,c,{
name = hr01;
}),
(-205,1658,o),
(-197,1699,o),
(-141,1699,cs),
(-121,1699,o),
(-94,1692,o),
(-59,1671,c),
(-7,1645,o),
(33,1605,o),
(97,1605,cs,{
name = hr02;
})
);
}
);
width = 0;
},
{
anchors = (
{
name = _top;
pos = (0,994);
},
{
name = top;
pos = (0,1549);
}
);
layerId = "62CA62AF-CD91-478A-AB8B-28A62CC47DA0";
shapes = (
{
closed = 1;
nodes = (
(158,1180,o),
(344,1247,o),
(332,1501,c),
(207,1501,l),
(201,1387,o),
(136,1366,o),
(0,1366,cs),
(-136,1366,o),
(-201,1390,o),
(-207,1501,c),
(-332,1501,l),
(-344,1247,o),
(-158,1180,o),
(0,1180,cs,{
name = hr00;
})
);
},
{
closed = 1;
nodes = (
(190,1604,o),
(298,1699,o),
(298,1781,cs),
(298,1786,o),
(298,1789,o),
(297,1792,cs),
(291,1809,o),
(268,1822,o),
(258,1820,c),
(234,1810,o),
(209,1742,o),
(141,1742,cs),
(116,1742,o),
(88,1750,o),
(52,1771,cs),
(-3,1803,o),
(-45,1842,o),
(-111,1842,cs,{
name = hr03;
}),
(-177,1842,o),
(-248,1782,o),
(-293,1708,cs),
(-296,1703,o),
(-297,1695,o),
(-297,1686,cs),
(-297,1676,o),
(-296,1667,o),
(-292,1662,cs),
(-282,1649,o),
(-269,1634,o),
(-259,1634,cs),
(-257,1634,o),
(-250,1636,o),
(-245,1642,c,{
name = hr01;
}),
(-223,1662,o),
(-216,1706,o),
(-154,1706,cs),
(-132,1706,o),
(-103,1697,o),
(-64,1675,c),
(-8,1647,o),
(36,1604,o),
(106,1604,cs,{
name = hr02;
})
);
}
);
width = 0;
}
);
}
{
glyphname = circumflexcomb_gravecomb.case;
kernLeft = circumflexcomb;
kernRight = circumflexcomb;
layers = (
{
anchors = (
{
name = _top;
pos = (0,994);
}
);
layerId = "DD6F9F34-BC40-4E8F-B1D3-DF3B42A9710F";
shapes = (
{
closed = 1;
nodes = (
(461,1362,l),
(368,1534,o),
(322,1667,o),
(303,1696,cs),
(291,1715,o),
(269,1733,o),
(246,1738,cs),
(226,1742,o),
(206,1739,o),
(185,1724,cs),
(166,1710,o),
(156,1693,o),
(152,1677,cs),
(146,1651,o),
(155,1626,o),
(167,1607,cs),
(186,1578,o),
(285,1500,o),
(410,1326,c)
);
},
{
closed = 1;
nodes = (
(-224,1140,l),
(-2,1341,l),
(225,1140,l),
(338,1140,l),
(93,1429,l),
(71,1462,o),
(47,1489,o),
(-2,1489,cs),
(-50,1489,o),
(-75,1466,o),
(-97,1438,c),
(-342,1140,l)
);
}
);
width = 0;
},
{
anchors = (
{
name = _top;
pos = (0,994);
}
);
layerId = "62CA62AF-CD91-478A-AB8B-28A62CC47DA0";
shapes = (
{
closed = 1;
nodes = (
(468,1358,l),
(389,1529,o),
(351,1661,o),
(332,1688,cs),
(319,1706,o),
(295,1725,o),
(266,1734,cs),
(243,1741,o),
(219,1737,o),
(199,1724,cs),
(176,1709,o),
(165,1689,o),
(160,1667,cs),
(154,1642,o),
(156,1613,o),
(167,1595,cs),
(184,1567,o),
(291,1478,o),
(416,1325,c,{
name = hr00;
})
);
},
{
closed = 1;
nodes = (
(-222,1140,l),
(0,1321,l),
(227,1140,l),
(370,1140,l),
(127,1439,ls),
(102,1469,o),
(69,1499,o),
(0,1499,cs),
(-68,1499,o),
(-101,1475,o),
(-123,1448,cs),
(-370,1140,l,{
name = hr00;
})
);
}
);
width = 0;
}
);
}
{
glyphname = circumflexcomb_hookabovecomb.case;
kernLeft = circumflexcomb;
kernRight = circumflexcomb;
layers = (
{
anchors = (
{
name = _top;
pos = (0,994);
}
);
background = {
shapes = (
{
closed = 1;
nodes = (
(392,1387,l),
(388,1400,o),
(385,1414,o),
(385,1425,cs),
(385,1452,o),
(396,1472,o),
(407,1482,cs),
(457,1528,o),
(530,1550,o),
(530,1649,cs),
(530,1753,o),
(435,1786,o),
(343,1786,cs),
(284,1786,o),
(241,1774,o),
(209,1758,cs),
(191,1749,o),
(176,1726,o),
(176,1702,cs),
(176,1677,o),
(183,1661,o),
(201,1661,cs),
(212,1661,o),
(248,1679,o),
(301,1679,cs),
(360,1679,o),
(393,1654,o),
(393,1615,c),
(393,1550,o),
(279,1537,o),
(279,1464,c),
(279,1432,o),
(291,1413,o),
(302,1387,c)
);
}
);
};
layerId = "DD6F9F34-BC40-4E8F-B1D3-DF3B42A9710F";
shapes = (
{
closed = 1;
nodes = (
(-224,1140,l),
(-2,1341,l),
(225,1140,l),
(338,1140,l),
(93,1429,l),
(71,1462,o),
(47,1489,o),
(-2,1489,cs),
(-50,1489,o),
(-75,1466,o),
(-97,1438,c),
(-342,1140,l)
);
},
{
closed = 1;
nodes = (
(379,1385,l),
(377,1396,o),
(368,1406,o),
(368,1426,cs),
(368,1450,o),
(383,1467,o),
(440,1507,cs),
(498,1547,o),
(531,1577,o),
(531,1648,cs),
(531,1730,o),
(449,1789,o),
(340,1789,cs),
(281,1789,o),
(227,1770,o),
(194,1753,cs),
(186,1749,o),
(178,1745,o),
(177,1729,cs),
(176,1715,o),
(174,1683,o),
(174,1668,cs),
(174,1661,o),
(178,1657,o),
(184,1657,cs),
(200,1657,o),
(236,1678,o),
(294,1678,cs),
(362,1678,o),
(391,1650,o),
(391,1618,cs),
(391,1546,o),
(268,1535,o),
(268,1453,cs),
(268,1428,o),
(277,1407,o),
(292,1385,c)
);
}
);
width = 0;
},
{
anchors = (
{
name = _top;
pos = (0,994);
}
);
background = {
shapes = (
{
closed = 1;
nodes = (
(393,1386,l),
(390,1399,o),
(387,1412,o),
(387,1425,cs),
(387,1452,o),
(399,1473,o),
(411,1482,cs),
(470,1526,o),
(549,1551,o),
(549,1652,cs),
(549,1757,o),
(442,1791,o),
(339,1791,cs),
(271,1791,o),
(224,1778,o),
(188,1764,cs),
(167,1756,o),
(151,1731,o),
(151,1706,cs),
(151,1680,o),
(159,1664,o),
(179,1664,cs),
(191,1664,o),
(232,1683,o),
(291,1683,cs),
(358,1683,o),
(395,1658,o),
(395,1617,c),
(395,1551,o),
(267,1539,o),
(267,1464,c),
(267,1431,o),
(280,1411,o),
(293,1386,c)
);
}
);
};
layerId = "62CA62AF-CD91-478A-AB8B-28A62CC47DA0";
shapes = (
{
closed = 1;
nodes = (
(-222,1140,l),
(0,1321,l),
(227,1140,l),
(370,1140,l),
(127,1439,ls),
(102,1469,o),
(69,1499,o),
(0,1499,cs),
(-68,1499,o),
(-101,1475,o),
(-123,1448,cs),
(-370,1140,l,{
name = hr00;
})
);
},
{
closed = 1;
nodes = (
(387,1385,l),
(382,1397,o),
(376,1408,o),
(376,1432,cs),
(376,1454,o),
(385,1485,o),
(440,1516,cs),
(514,1557,o),
(549,1593,o),
(549,1661,cs),
(549,1745,o),
(457,1802,o),
(342,1802,cs),
(263,1802,o),
(202,1776,o),
(176,1761,cs),
(163,1754,o),
(162,1744,o),
(159,1724,cs),
(156,1707,o),
(155,1687,o),
(155,1668,cs),
(155,1661,o),
(158,1657,o),
(165,1657,cs),
(177,1657,o),
(224,1682,o),
(284,1682,cs),
(341,1682,o),
(376,1658,o),
(376,1624,cs),
(376,1550,o),
(262,1549,o),
(262,1458,cs),
(262,1427,o),
(270,1410,o),
(285,1385,c)
);
}
);
width = 0;
}
);
}
{
color = 9;
glyphname = commaaccentcomb.loclMAH;
layers = (
{
anchors = (
{
name = _bottom;
pos = (238,0);
},
{
name = bottom;
pos = (238,-563);
}
);
layerId = "DD6F9F34-BC40-4E8F-B1D3-DF3B42A9710F";
shapes = (
{
closed = 1;
nodes = (
(389,-488,o),
(473,-387,o),
(473,-292,cs),
(473,-206,o),
(397,-134,o),
(264,-121,c,{
name = hr03;
}),
(300,0,l),
(183,0,l,{
name = hr01;
}),
(150,-182,l),
(256,-183,o),
(306,-232,o),
(306,-281,cs,{
name = hr02;
}),
(306,-339,o),
(256,-374,o),
(189,-374,cs),
(127,-374,o),
(89,-357,o),
(67,-349,cs),
(56,-345,o),
(50,-346,o),
(45,-356,cs),
(37,-371,o),
(23,-396,o),
(13,-417,cs),
(9,-425,o),
(9,-433,o),
(18,-439,cs),
(54,-463,o),
(118,-488,o),
(203,-488,cs)
);
}
);
width = 600;
},
{
anchors = (
{
name = _bottom;
pos = (243,0);
},
{
name = bottom;
pos = (243,-563);
}
);
layerId = "62CA62AF-CD91-478A-AB8B-28A62CC47DA0";
shapes = (
{
closed = 1;
nodes = (
(416,-498,o),
(521,-411,o),
(521,-287,cs),
(521,-184,o),
(436,-108,o),
(286,-100,c,{
name = hr03;
}),
(319,0,l),
(172,0,l,{
name = hr01;
}),
(138,-192,l),
(259,-190,o),
(316,-235,o),
(316,-283,cs,{
name = hr02;
}),
(316,-335,o),
(269,-374,o),
(191,-374,cs),
(136,-374,o),
(91,-358,o),
(52,-342,cs),
(42,-338,o),
(38,-342,o),
(34,-350,cs),
(25,-368,o),
(7,-405,o),
(2,-417,cs),
(-2,-426,o),
(0,-432,o),
(8,-437,cs),
(38,-457,o),
(124,-498,o),
(236,-498,cs)
);
}
);
width = 521;
}
);
}
{
glyphname = eight.tf;
layers = (
{
layerId = "DD6F9F34-BC40-4E8F-B1D3-DF3B42A9710F";
shapes = (
{
closed = 1;
nodes = (
(1000,-30,o),
(1151,146,o),
(1151,358,cs),
(1151,554,o),
(1014,666,o),
(857,755,c),
(974,818,o),
(1098,935,o),
(1098,1092,cs),
(1098,1286,o),
(978,1450,o),
(672,1450,cs),
(396,1450,o),
(232,1266,o),
(232,1103,cs),
(232,944,o),
(322,831,o),
(447,742,c),
(312,691,o),
(156,567,o),
(156,373,cs),
(156,154,o),
(318,-30,o),
(659,-30,cs)
);
},
{
closed = 1;
nodes = (
(515,927,o),
(434,993,o),
(434,1108,cs),
(434,1261,o),
(511,1355,o),
(669,1355,cs),
(845,1355,o),
(909,1233,o),
(909,1103,cs),
(909,927,o),
(847,848,o),
(765,803,c)
);
},
{
closed = 1;
nodes = (
(410,65,o),
(345,251,o),
(345,362,cs),
(345,531,o),
(424,638,o),
(535,686,c),
(719,602,o),
(951,485,o),
(951,314,cs),
(951,159,o),
(846,65,o),
(661,65,cs)
);
}
);
userData = {
RMXScaler = {
monoWidth = 1306;
};
};
width = 1306;
},
{
layerId = "62CA62AF-CD91-478A-AB8B-28A62CC47DA0";
shapes = (
{
closed = 1;
nodes = (
(983,-30,o),
(1216,141,o),
(1216,358,cs),
(1216,595,o),
(1044,702,o),
(854,800,c),
(993,850,o),
(1135,957,o),
(1135,1112,cs,{
name = hr02;
}),
(1135,1306,o),
(982,1450,o),
(651,1450,cs),
(313,1450,o),
(155,1272,o),
(155,1103,cs),
(155,937,o),
(276,812,o),
(414,715,c),
(290,682,o),
(89,582,o),
(89,373,cs,{
name = hr01;
}),
(89,124,o),
(308,-30,o),
(657,-30,cs)
);
},
{
closed = 1;
nodes = (
(520,961,o),
(434,1040,o),
(434,1158,cs,{
name = hr04;
}),
(434,1301,o),
(514,1355,o),
(648,1355,cs),
(801,1355,o),
(861,1244,o),
(861,1123,cs),
(861,966,o),
(816,882,o),
(763,845,c)
);
},
{
closed = 1;
nodes = (
(490,65,o),
(391,211,o),
(391,382,cs,{
name = hr05;
}),
(391,529,o),
(440,621,o),
(482,668,c),
(769,541,o),
(927,474,o),
(927,303,cs),
(927,148,o),
(826,65,o),
(670,65,cs)
);
}
);
userData = {
RMXScaler = {
monoWidth = 1306;
};
};
width = 1306;
}
);
userData = {
RMXScaler = {
source = eight;
};
};
}
{
glyphname = emdash.case;
kernLeft = hyphen;
kernRight = hyphen;
layers = (
{
layerId = "DD6F9F34-BC40-4E8F-B1D3-DF3B42A9710F";
shapes = (
{
closed = 1;
nodes = (
(1650,496,l),
(1650,622,l),
(106,622,l),
(106,496,l)
);
}
);
width = 1755;
},
{
layerId = "62CA62AF-CD91-478A-AB8B-28A62CC47DA0";
shapes = (
{
closed = 1;
nodes = (
(1805,476,l),
(1805,622,l),
(96,622,l),
(96,476,l,{
name = hr00;
})
);
}
);
width = 1901;
}
);
}
{
glyphname = endash.case;
kernLeft = hyphen;
kernRight = hyphen;
layers = (
{
layerId = "DD6F9F34-BC40-4E8F-B1D3-DF3B42A9710F";
shapes = (
{
closed = 1;
nodes = (
(1212,496,l),
(1212,622,l),
(105,622,l),
(105,496,l)
);
}
);
width = 1317;
},
{
layerId = "62CA62AF-CD91-478A-AB8B-28A62CC47DA0";
shapes = (
{
closed = 1;
nodes = (
(1344,476,l),
(1344,622,l),
(96,622,l),
(96,476,l,{
name = hr00;
})
);
}
);
width = 1440;
}
);
}
{
color = 1;
glyphname = eng.sc;
kernLeft = n;
kernRight = j;
layers = (
{
anchors = (
{
name = bottom;
pos = (257,0);
},
{
name = top;
pos = (696,986);
}
);
background = {
shapes = (
{
pos = (-10,0);
ref = n;
}
);
};
layerId = "DD6F9F34-BC40-4E8F-B1D3-DF3B42A9710F";
shapes = (
{
closed = 1;
nodes = (
(918,-449,o),
(1030,-234,o),
(1030,41,cs),
(1030,766,ls),
(1030,974,o),
(899,1014,o),
(766,1014,cs),
(584,1014,o),
(419,890,o),
(384,855,c),
(384,957,l),
(381,989,o),
(365,997,o),
(354,997,cs),
(299,997,o),
(188,996,o),
(59,988,cs,{
name = L;
}),
(43,987,o),
(35,959,o),
(35,943,cs),
(35,918,o),
(45,909,o),
(59,903,c),
(109,889,o),
(208,902,o),
(208,778,cs),
(208,142,ls),
(208,98,o),
(141,84,o),
(92,78,cs),
(66,75,o),
(59,62,o),
(59,41,cs),
(59,26,o),
(70,0,o),
(93,0,cs),
(508,0,ls),
(530,0,o),
(542,26,o),
(542,41,cs),
(542,71,o),
(534,75,o),
(506,78,cs),
(457,83,o),
(394,89,o),
(394,175,cs),
(394,771,l),
(449,822,o),
(567,896,o),
(692,896,cs),
(810,896,o),
(842,855,o),
(842,778,cs),
(842,0,ls),
(842,-306,o),
(781,-347,o),
(671,-347,c),
(605,-226,l),
(594,-209,o),
(589,-199,o),
(577,-199,cs),
(540,-199,o),
(460,-233,o),
(460,-310,cs),
(460,-379,o),
(508,-449,o),
(636,-449,cs)
);
}
);
width = 1185;
},
{
anchors = (
{
name = bottom;
pos = (257,0);
},
{
name = top;
pos = (773,994);
}
);
background = {
shapes = (
{
ref = n;
}
);
};
layerId = "62CA62AF-CD91-478A-AB8B-28A62CC47DA0";
shapes = (
{
closed = 1;
nodes = (
(1162,-478,o),
(1240,-215,o),
(1240,60,cs),
(1240,716,ls),
(1240,964,o),
(1090,1014,o),
(920,1014,cs),
(742,1014,o),
(554,890,o),
(516,845,c),
(516,957,l,{
name = hr02;
}),
(513,989,o),
(497,997,o),
(486,997,cs),
(408,997,o),
(245,994,o),
(61,983,cs),
(45,982,o),
(37,955,o),
(37,939,cs),
(37,914,o),
(47,905,o),
(61,899,c),
(111,885,o),
(210,902,o),
(210,778,cs),
(210,142,ls),
(210,98,o),
(153,84,o),
(104,78,cs),
(78,75,o),
(71,62,o),
(71,41,cs,{
name = hr01;
}),
(71,26,o),
(82,0,o),
(105,0,cs),
(630,0,ls),
(652,0,o),
(664,26,o),
(664,41,cs),
(664,71,o),
(656,75,o),
(628,78,cs),
(579,83,o),
(525,89,o),
(525,175,cs),
(525,737,l),
(572,788,o),
(690,862,o),
(795,862,cs),
(915,862,o),
(926,760,o),
(926,711,cs),
(926,28,ls),
(926,-324,o),
(843,-376,o),
(772,-376,c),
(668,-191,ls),
(650,-158,o),
(618,-143,o),
(586,-143,cs),
(517,-143,o),
(450,-195,o),
(450,-273,cs),
(450,-355,o),
(570,-478,o),
(743,-478,cs)
);
}
);
width = 1394;
}
);
}
{
color = 1;
glyphname = eth.sc;
kernLeft = eth;
kernRight = eth;
layers = (
{
anchors = (
{
name = bottom;
pos = (545,0);
},
{
name = top;
pos = (545,1549);
}
);
background = {
shapes = (
{
closed = 1;
nodes = (
(772,914,o),
(668,994,o),
(507,994,cs),
(260,994,o),
(80,781,o),
(80,462,cs),
(80,191,o),
(257,-29,o),
(557,-29,cs),
(856,-29,o),
(1006,260,o),
(1006,592,cs),
(1006,945,o),
(848,1448,o),
(198,1579,c),
(187,1487,l),
(776,1359,o),
(794,807,o),
(794,572,cs),
(794,262,o),
(756,66,o),
(554,66,cs),
(353,66,o),
(297,218,o),
(297,462,cs),
(297,731,o),
(366,877,o),
(523,877,cs),
(658,877,o),
(749,839,o),
(802,729,c),
(830,806,l)
);
},
{
closed = 1;
nodes = (
(274,1255,l),
(362,1195,l),
(640,1619,l),
(554,1685,l)
);
}
);
};
layerId = "DD6F9F34-BC40-4E8F-B1D3-DF3B42A9710F";
shapes = (
{
closed = 1;
nodes = (
(70,179,o),
(256,-20,o),
(538,-20,cs),
(859,-20,o),
(1001,267,o),
(1001,611,cs),
(1001,869,o),
(882,1209,o),
(633,1438,c),
(783,1553,l),
(784,1556,o),
(785,1560,o),
(785,1565,cs),
(785,1580,o),
(779,1602,o),
(770,1618,cs),
(765,1627,o),
(757,1634,o),
(749,1634,cs),
(745,1634,o),
(742,1633,o),
(738,1630,cs),
(558,1489,l),
(466,1544,o),
(349,1592,o),
(230,1602,c),
(214,1602,o),
(208,1587,o),
(201,1562,cs),
(199,1554,o),
(198,1544,o),
(198,1535,cs),
(198,1513,o),
(204,1492,o),
(213,1491,cs),
(301,1477,o),
(376,1446,o),
(441,1401,c),
(265,1261,l),
(263,1257,o),
(262,1252,o),
(262,1247,cs),
(262,1234,o),
(267,1219,o),
(275,1204,cs),
(282,1192,o),
(298,1176,o),
(309,1184,c),
(509,1344,l),
(613,1241,o),
(736,1063,o),
(771,889,c),
(723,945,o),
(596,980,o),
(521,980,cs),
(242,980,o),
(70,752,o),
(70,460,cs,{
name = hr00;
})
);
},
{
closed = 1;
nodes = (
(281,659,o),
(347,877,o),
(534,880,cs),
(736,883,o),
(782,794,o),
(782,590,cs),
(782,585,ls),
(782,315,o),
(760,75,o),
(535,75,cs),
(377,75,o),
(281,218,o),
(281,462,cs)
);
}
);
width = 1089;
},
{
anchors = (
{
name = bottom;
pos = (653,0);
},
{
name = top;
pos = (653,1549);
}
);
layerId = "62CA62AF-CD91-478A-AB8B-28A62CC47DA0";
shapes = (
{
closed = 1;
nodes = (
(78,170,o),
(307,-29,o),
(655,-29,cs),
(1052,-29,o),
(1228,258,o),
(1228,602,cs),
(1228,925,o),
(1066,1265,o),
(759,1455,c),
(916,1577,l),
(917,1580,o),
(918,1583,o),
(918,1587,cs),
(918,1603,o),
(908,1625,o),
(894,1641,cs),
(887,1649,o),
(878,1656,o),
(868,1656,cs),
(863,1656,o),
(858,1654,o),
(854,1651,cs),
(667,1506,l),
(553,1561,o),
(457,1596,o),
(310,1606,c),
(290,1606,o),
(283,1591,o),
(275,1566,cs),
(272,1557,o),
(271,1548,o),
(271,1538,cs),
(271,1516,o),
(278,1496,o),
(289,1495,cs),
(398,1485,o),
(462,1450,o),
(536,1405,c),
(360,1263,l),
(358,1259,o),
(358,1255,o),
(358,1251,cs),
(358,1238,o),
(364,1222,o),
(377,1207,cs),
(385,1198,o),
(400,1186,o),
(413,1186,c),
(620,1348,l),
(748,1245,o),
(830,1054,o),
(873,880,c),
(813,936,o),
(727,971,o),
(635,971,cs),
(290,971,o),
(78,762,o),
(78,451,cs,{
name = hr00;
})
);
},
{
closed = 1;
nodes = (
(425,658,o),
(494,853,o),
(651,853,cs),
(829,853,o),
(876,785,o),
(876,581,cs),
(876,576,ls),
(876,306,o),
(850,66,o),
(652,66,cs),
(491,66,o),
(425,177,o),
(425,421,cs)
);
}
);
width = 1306;
}
);
}
{
glyphname = eturned.sc;
layers = (
{
anchors = (
{
name = bottom;
pos = (470,-8);
},
{
name = ogonek;
pos = (94,976);
},
{
name = top;
pos = (470,986);
}
);
layerId = "DD6F9F34-BC40-4E8F-B1D3-DF3B42A9710F";
shapes = (
{
closed = 1;
nodes = (
(288,1015,o),
(183,931,o),
(124,813,cs),
(122,809,o),
(118,803,o),
(118,797,cs),
(118,793,o),
(121,788,o),
(129,785,c),
(179,762,l),
(192,759,o),
(194,770,o),
(198,778,cs),
(241,864,o),
(331,911,o),
(432,911,cs),
(564,911,o),
(704,800,o),
(706,483,c),
(68,483,l),
(68,424,o),
(71,368,o),
(80,317,cs),
(116,111,o),
(218,-28,o),
(470,-28,cs),
(709,-28,o),
(921,152,o),
(921,486,cs),
(921,820,o),
(764,1015,o),
(458,1015,cs)
);
},
{
closed = 1;
nodes = (
(693,113,o),
(614,68,o),
(471,68,cs),
(369,68,o),
(290,159,o),
(290,391,c),
(704,397,l)
);
}
);
width = 990;
},
{
anchors = (
{
name = bottom;
pos = (538,-8);
},
{
name = ogonek;
pos = (120,976);
},
{
name = top;
pos = (524,986);
}
);
layerId = "62CA62AF-CD91-478A-AB8B-28A62CC47DA0";
shapes = (
{
closed = 1;
nodes = (
(318,1015,o),
(183,932,o),
(115,813,cs),
(111,806,o),
(109,801,o),
(109,796,cs),
(109,791,o),
(112,787,o),
(119,784,cs),
(163,763,l),
(176,760,o),
(183,771,o),
(189,778,cs),
(253,853,o),
(333,881,o),
(453,881,cs),
(593,881,o),
(762,786,o),
(762,478,c),
(68,477,l),
(68,422,o),
(69,360,o),
(77,312,cs),
(112,101,o),
(236,-28,o),
(545,-28,cs),
(842,-28,o),
(1102,150,o),
(1102,484,cs,{
name = hr01;
}),
(1102,818,o),
(925,1015,o),
(529,1015,cs)
);
},
{
closed = 1;
nodes = (
(740,148,o),
(647,57,o),
(548,57,cs),
(446,57,o),
(401,153,o),
(401,385,c),
(759,385,l)
);
}
);
width = 1171;
}
);
metricLeft = schwa;
metricRight = schwa;
}
{
color = 9;
glyphname = f.sc;
kernLeft = f;
kernRight = f;
layers = (
{
anchors = (
{
name = bottom;
pos = (583,0);
},
{
name = top;
pos = (583,986);
}
);
layerId = "DD6F9F34-BC40-4E8F-B1D3-DF3B42A9710F";
shapes = (
{
closed = 1;
nodes = (
(710,0,ls),
(731,0,o),
(742,31,o),
(742,44,cs),
(742,71,o),
(729,77,o),
(708,77,cs),
(629,77,o),
(500,97,o),
(500,171,cs),
(500,569,l),
(737,569,ls),
(791,569,o),
(826,444,o),
(831,409,cs),
(834,387,o),
(859,381,o),
(878,381,cs),
(892,381,o),
(916,391,o),
(916,411,cs),
(916,796,ls),
(916,816,o),
(892,826,o),
(878,826,cs),
(859,826,o),
(834,820,o),
(831,797,cs),
(826,759,o),
(790,652,o),
(743,646,c),
(500,646,l),
(500,1148,l),
(847,1148,ls),
(947,1148,o),
(1026,983,o),
(1038,930,cs),
(1043,907,o),
(1062,901,o),
(1082,901,cs),
(1096,901,o),
(1119,911,o),
(1119,931,c),
(1085,1234,l),
(131,1235,ls),
(109,1235,o),
(99,1203,o),
(99,1190,cs),
(99,1164,o),
(106,1161,o),
(132,1158,c),
(197,1154,o),
(295,1149,o),
(295,1073,cs),
(294,132,ls),
(294,94,o),
(210,81,o),
(138,77,c),
(113,74,o),
(107,63,o),
(107,44,cs),
(107,31,o),
(118,0,o),
(139,0,cs)
);
}
);
userData = {
RMXScaler = {
adjustSpace = 10;
height = 87;
width = 92;
};
};
width = 1166;
},
{
anchors = (
{
name = bottom;
pos = (657,0);
},
{
name = top;
pos = (657,994);
}
);
layerId = "62CA62AF-CD91-478A-AB8B-28A62CC47DA0";
shapes = (
{
closed = 1;
nodes = (
(845,0,ls),
(866,0,o),
(877,31,o),
(877,44,cs),
(877,71,o),
(863,77,o),
(843,77,cs),
(764,77,o),
(595,97,o),
(595,171,cs),
(595,564,l),
(837,564,ls),
(889,564,o),
(932,447,o),
(934,410,c),
(937,387,o),
(959,381,o),
(978,381,cs),
(993,381,o),
(1016,391,o),
(1016,411,cs),
(1016,796,ls),
(1016,816,o),
(992,826,o),
(978,826,cs),
(959,826,o),
(940,821,o),
(937,798,cs),
(933,767,o),
(892,657,o),
(843,651,c),
(595,651,l),
(595,1148,l),
(930,1148,ls),
(1042,1148,o),
(1029,1090,o),
(1125,929,cs),
(1141,902,o),
(1182,901,o),
(1201,901,cs),
(1215,901,o),
(1234,911,o),
(1234,931,c),
(1198,1234,l),
(136,1235,ls),
(114,1235,o),
(104,1203,o),
(104,1190,cs),
(104,1164,o),
(111,1161,o),
(137,1158,c),
(203,1154,o),
(260,1149,o),
(260,1074,cs),
(260,132,ls),
(260,94,o),
(215,81,o),
(143,77,c),
(118,74,o),
(112,63,o),
(112,44,cs,{
name = hr00;
}),
(112,32,o),
(122,0,o),
(144,0,cs)
);
}
);
userData = {
RMXScaler = {
adjustSpace = 10;
height = 87;
width = 92;
};
};
width = 1314;
}
);
userData = {
RMXScaler = {
source = F;
};
};
}
{
glyphname = f_f.sc;
kernLeft = f;
kernRight = f;
layers = (
{
anchors = (
{
name = bottom;
pos = (934,0);
},
{
name = bottom_1;
pos = (309,0);
},
{
name = bottom_2;
pos = (1024,0);
},
{
name = caret_1;
pos = (624,0);
},
{
name = top_1;
pos = (456,1889);
},
{
name = top_2;
pos = (987,1889);
}
);
layerId = "DD6F9F34-BC40-4E8F-B1D3-DF3B42A9710F";
shapes = (
{
closed = 1;
nodes = (
(1166,0,ls),
(1189,0,o),
(1200,26,o),
(1200,41,cs),
(1200,71,o),
(1192,75,o),
(1164,78,cs),
(1099,85,o),
(1002,89,o),
(1002,175,cs),
(1002,907,l),
(1212,907,l),
(1226,913,o),
(1236,935,o),
(1236,960,cs),
(1236,976,o),
(1228,993,o),
(1212,994,c),
(1002,994,l),
(1002,1107,ls),
(1002,1421,o),
(1077,1463,o),
(1151,1475,c),
(1271,1309,l),
(1306,1309,o),
(1398,1362,o),
(1389,1441,cs),
(1381,1509,o),
(1315,1573,o),
(1187,1573,cs),
(945,1573,o),
(819,1330,o),
(816,1075,cs),
(815,994,l),
(570,992,l),
(556,907,l),
(816,907,l),
(816,142,ls),
(816,98,o),
(749,84,o),
(700,78,cs),
(674,75,o),
(667,62,o),
(667,41,cs),
(667,26,o),
(678,0,o),
(701,0,cs)
);
},
{
closed = 1;
nodes = (
(562,0,ls),
(585,0,o),
(596,26,o),
(596,41,cs),
(596,71,o),
(588,75,o),
(560,78,cs),
(495,85,o),
(398,89,o),
(398,175,cs),
(398,907,l),
(608,907,l),
(608,994,l),
(398,994,l),
(398,1087,ls),
(398,1401,o),
(476,1443,o),
(550,1455,c),
(670,1289,l),
(705,1289,o),
(797,1342,o),
(788,1421,cs,{
name = L;
}),
(780,1489,o),
(714,1553,o),
(586,1553,cs),
(344,1553,o),
(216,1310,o),
(212,1055,cs),
(211,994,l),
(89,984,l,{
name = L;
}),
(75,978,o),
(65,966,o),
(65,941,cs),
(65,925,o),
(73,908,o),
(89,907,c),
(212,907,l),
(212,142,ls),
(212,98,o),
(145,84,o),
(96,78,cs),
(70,75,o),
(63,62,o),
(63,41,cs),
(63,26,o),
(74,0,o),
(97,0,cs)
);
}
);
width = 1270;
},
{
anchors = (
{
name = bottom;
pos = (1079,0);
},
{
name = bottom_1;
pos = (396,0);
},
{
name = bottom_2;
pos = (1240,0);
},
{
name = caret_1;
pos = (829,0);
},
{
name = top_1;
pos = (577,1889);
},
{
name = top_2;
pos = (1243,1889);
}
);
layerId = "62CA62AF-CD91-478A-AB8B-28A62CC47DA0";
shapes = (
{
closed = 1;
nodes = (
(1536,0,ls),
(1559,0,o),
(1570,26,o),
(1570,41,cs),
(1570,71,o),
(1562,75,o),
(1534,78,c),
(1469,82,o),
(1372,88,o),
(1372,165,cs),
(1372,887,l),
(1604,887,l),
(1618,893,o),
(1628,935,o),
(1628,960,cs),
(1628,976,o),
(1620,993,o),
(1604,994,c),
(1372,994,l),
(1372,1107,ls),
(1372,1396,o),
(1409,1449,o),
(1462,1449,c),
(1621,1275,l),
(1686,1274,o),
(1739,1334,o),
(1739,1416,cs),
(1739,1494,o),
(1673,1563,o),
(1490,1563,cs),
(1196,1563,o),
(1056,1331,o),
(1056,1076,cs),
(1056,994,l),
(733,994,l),
(709,887,l),
(1056,887,l),
(1056,132,ls),
(1056,95,o),
(989,82,o),
(940,78,c),
(914,75,o),
(907,62,o),
(907,41,cs,{
name = hr00;
}),
(907,26,o),
(918,0,o),
(941,0,cs)
);
},
{
closed = 1;
nodes = (
(712,0,ls),
(735,0,o),
(746,26,o),
(746,41,cs),
(746,71,o),
(738,75,o),
(710,78,c),
(645,82,o),
(548,88,o),
(548,165,cs),
(548,887,l),
(780,887,l),
(780,994,l),
(548,994,l),
(548,1093,ls),
(548,1382,o),
(626,1435,o),
(679,1435,c),
(852,1253,l),
(917,1252,o),
(970,1312,o),
(970,1394,cs),
(970,1472,o),
(890,1549,o),
(707,1549,cs),
(413,1549,o),
(232,1317,o),
(232,1062,cs),
(232,994,l),
(79,977,l),
(65,971,o),
(54,956,o),
(54,931,cs),
(54,915,o),
(62,888,o),
(78,887,c),
(232,887,l),
(232,132,ls),
(232,95,o),
(165,82,o),
(116,78,c),
(90,75,o),
(83,62,o),
(83,41,cs,{
name = hr00;
}),
(83,26,o),
(94,0,o),
(117,0,cs)
);
}
);
width = 1629;
}
);
}
{
glyphname = figuredash.case;
kernLeft = figuredash;
kernRight = figuredash;
layers = (
{
layerId = "DD6F9F34-BC40-4E8F-B1D3-DF3B42A9710F";
shapes = (
{
closed = 1;
nodes = (
(1151,496,l),
(1151,622,l),
(106,622,l),
(106,496,l)
);
}
);
width = 1257;
},
{
layerId = "62CA62AF-CD91-478A-AB8B-28A62CC47DA0";
shapes = (
{
closed = 1;
nodes = (
(1340,476,l),
(1340,622,l),
(96,622,l),
(96,476,l,{
name = hr00;
})
);
}
);
width = 1436;
}
);
metricWidth = zero;
}
{
color = 9;
glyphname = germandbls.sc;
kernLeft = h;
kernRight = germandbls;
layers = (
{
anchors = (
{
name = bottom;
pos = (674,0);
},
{
name = top;
pos = (674,1235);
}
);
layerId = "DD6F9F34-BC40-4E8F-B1D3-DF3B42A9710F";
shapes = (
{
closed = 1;
nodes = (
(1175,-19,o),
(1300,148,o),
(1300,363,cs),
(1300,609,o),
(1067,701,o),
(924,701,c),
(1210,1235,l),
(742,1234,ls),
(401,1233,o),
(215,1066,o),
(215,785,cs),
(216,161,ls),
(216,86,o),
(154,81,o),
(96,77,cs),
(70,75,o),
(63,68,o),
(63,44,cs),
(63,32,o),
(73,0,o),
(94,0,cs),
(430,0,l),
(429,779,l),
(429,1050,o),
(553,1152,o),
(746,1152,cs),
(945,1152,l),
(704,713,o),
(698,708,o),
(698,687,cs),
(698,664,o),
(715,625,o),
(763,625,cs),
(982,625,o),
(1080,481,o),
(1080,338,cs),
(1080,154,o),
(994,63,o),
(864,63,cs),
(758,63,o),
(730,122,o),
(730,122,c),
(762,280,l),
(755,316,o),
(710,336,o),
(667,336,cs),
(630,336,o),
(565,307,o),
(565,222,cs),
(565,82,o),
(711,-19,o),
(891,-19,cs)
);
}
);
userData = {
RMXScaler = {
adjustSpace = 10;
height = 87;
width = 92;
};
};
width = 1348;
},
{
anchors = (
{
name = bottom;
pos = (810,0);
},
{
name = top;
pos = (810,1235);
}
);
background = {
shapes = (
{
closed = 1;
nodes = (
(566,0,ls),
(588,0,o),
(600,26,o),
(600,41,cs),
(600,71,o),
(592,75,o),
(564,78,cs),
(515,83,o),
(447,88,o),
(447,165,cs),
(447,727,l),
(494,778,o),
(624,852,o),
(732,852,cs),
(851,852,o),
(851,764,o),
(851,721,cs),
(851,132,ls),
(851,100,o),
(787,81,o),
(745,78,c),
(718,75,o),
(714,62,o),
(714,41,cs),
(714,26,o),
(725,0,o),
(748,0,cs),
(1295,0,ls),
(1318,0,o),
(1329,26,o),
(1329,41,cs),
(1329,70,o),
(1318,75,o),
(1296,78,cs),
(1246,85,o),
(1159,79,o),
(1159,165,cs),
(1159,736,ls),
(1159,968,o),
(1018,1014,o),
(868,1014,cs),
(675,1014,o),
(483,890,o),
(442,845,c),
(447,992,l),
(447,1508,l),
(444,1540,o),
(428,1548,o),
(417,1548,cs),
(336,1548,o),
(177,1546,o),
(-13,1534,cs),
(-29,1533,o),
(-37,1506,o),
(-37,1490,cs),
(-37,1465,o),
(-27,1456,o),
(-13,1450,c),
(41,1436,o),
(136,1453,o),
(136,1329,cs),
(136,132,ls),
(136,95,o),
(69,82,o),
(20,78,c),
(-6,75,o),
(-13,62,o),
(-13,41,cs,{
name = hr00;
}),
(-13,26,o),
(-2,0,o),
(21,0,cs)
);
}
);
};
layerId = "62CA62AF-CD91-478A-AB8B-28A62CC47DA0";
shapes = (
{
closed = 1;
nodes = (
(1328,-15,o),
(1542,86,o),
(1542,318,cs),
(1542,549,o),
(1378,680,o),
(1126,680,c),
(1412,1235,l),
(861,1236,ls),
(451,1237,o),
(234,1066,o),
(234,785,cs),
(235,161,ls),
(235,88,o),
(185,84,o),
(127,77,cs),
(99,74,o),
(91,71,o),
(91,44,cs),
(91,31,o),
(101,0,o),
(122,0,cs),
(579,0,l),
(578,779,l),
(578,1050,o),
(655,1155,o),
(864,1155,cs),
(1047,1155,l),
(808,696,o),
(799,688,o),
(799,663,cs),
(799,638,o),
(815,592,o),
(864,592,cs),
(1136,592,o),
(1209,454,o),
(1209,290,cs),
(1209,183,o),
(1102,67,o),
(997,67,cs),
(892,67,o),
(837,126,o),
(837,126,c),
(869,312,l),
(862,349,o),
(814,350,o),
(774,350,cs),
(737,350,o),
(657,311,o),
(657,226,cs),
(657,83,o),
(837,-15,o),
(988,-15,cs)
);
}
);
userData = {
RMXScaler = {
adjustSpace = 10;
height = 87;
width = 92;
};
};
width = 1620;
}
);
userData = {
RMXScaler = {
source = Germandbls;
};
com.typemytype.robofont.mark = (
0.967,
0.6,
1,
1
);
};
}
{
color = 4;
glyphname = glottalstop.sc;
layers = (
{
anchors = (
{
name = bottom;
pos = (435,0);
},
{
name = top;
pos = (435,1419);
}
);
layerId = "DD6F9F34-BC40-4E8F-B1D3-DF3B42A9710F";
shapes = (
{
closed = 1;
nodes = (
(646,0,ls),
(670,0,o),
(685,20,o),
(685,44,cs),
(685,67,o),
(677,75,o),
(649,78,cs),
(600,83,o),
(527,89,o),
(527,175,cs),
(527,460,l),
(527,739,o),
(895,867,o),
(895,1141,cs),
(895,1325,o),
(783,1528,o),
(478,1528,cs),
(277,1528,o),
(53,1384,o),
(53,1199,cs),
(53,1113,o),
(118,1079,o),
(159,1079,cs),
(200,1079,o),
(219,1087,o),
(226,1117,c),
(266,1347,l),
(266,1347,o),
(325,1443,o),
(462,1443,cs),
(652,1443,o),
(694,1266,o),
(694,1141,cs),
(694,841,o),
(342,792,o),
(342,489,c),
(342,142,ls),
(342,98,o),
(274,83,o),
(225,78,cs),
(199,75,o),
(192,62,o),
(192,41,cs),
(192,19,o),
(207,0,o),
(229,0,cs)
);
}
);
width = 987;
},
{
anchors = (
{
name = bottom;
pos = (489,0);
},
{
name = top;
pos = (489,1419);
}
);
layerId = "62CA62AF-CD91-478A-AB8B-28A62CC47DA0";
shapes = (
{
closed = 1;
nodes = (
(766,0,ls),
(789,0,o),
(800,26,o),
(800,41,cs),
(800,71,o),
(792,75,o),
(764,78,cs),
(715,83,o),
(642,88,o),
(642,165,cs),
(642,532,l),
(644,792,o),
(988,830,o),
(990,1160,cs),
(990,1371,o),
(826,1528,o),
(505,1528,cs),
(295,1528,o),
(45,1393,o),
(45,1200,cs),
(45,1103,o),
(115,1049,o),
(157,1049,cs),
(227,1049,o),
(264,1057,o),
(276,1087,c),
(296,1367,l),
(296,1367,o),
(356,1443,o),
(479,1443,cs),
(663,1443,o),
(686,1257,o),
(686,1132,cs),
(686,832,o),
(335,864,o),
(335,542,cs),
(335,132,ls,{
name = hr00;
}),
(335,95,o),
(269,82,o),
(220,78,cs),
(194,76,o),
(187,62,o),
(187,41,cs,{
name = hr00;
}),
(187,26,o),
(198,0,o),
(221,0,cs)
);
}
);
width = 1071;
}
);
metricLeft = "=|c";
metricRight = p;
}
{
glyphname = guilsinglleft.case;
kernLeft = guillemotleft;
kernRight = guillemotleft;
layers = (
{
layerId = "DD6F9F34-BC40-4E8F-B1D3-DF3B42A9710F";
shapes = (
{
closed = 1;
nodes = (
(641,324,l),
(376,664,l),
(641,1005,l),
(641,1151,l),
(168,724,l),
(168,605,l),
(641,180,l)
);
}
);
width = 850;
},
{
layerId = "62CA62AF-CD91-478A-AB8B-28A62CC47DA0";
shapes = (
{
closed = 1;
nodes = (
(660,344,l),
(405,664,l),
(660,985,l),
(660,1151,l),
(147,724,l),
(147,605,l,{
name = hr00;
}),
(660,180,l)
);
}
);
width = 811;
}
);
}
{
color = 9;
glyphname = i.sc;
kernLeft = i;
kernRight = i;
layers = (
{
anchors = (
{
name = bottom;
pos = (384,0);
},
{
name = ogonek;
pos = (691,10);
},
{
name = top;
pos = (377,1235);
}
);
layerId = "DD6F9F34-BC40-4E8F-B1D3-DF3B42A9710F";
shapes = (
{
closed = 1;
nodes = (
(628,0,ls),
(649,0,o),
(660,31,o),
(660,44,cs),
(660,71,o),
(653,74,o),
(623,77,cs),
(564,83,o),
(487,88,o),
(487,161,cs),
(488,1103,ls),
(488,1139,o),
(556,1153,o),
(621,1158,cs),
(645,1160,o),
(651,1172,o),
(651,1190,cs),
(651,1203,o),
(641,1235,o),
(620,1235,cs),
(140,1235,ls),
(119,1235,o),
(109,1203,o),
(109,1190,cs),
(109,1164,o),
(116,1161,o),
(142,1158,cs),
(201,1152,o),
(282,1148,o),
(282,1073,cs),
(281,132,ls),
(281,90,o),
(218,87,o),
(143,76,cs),
(123,73,o),
(117,62,o),
(117,44,cs),
(117,31,o),
(128,0,o),
(149,0,cs)
);
}
);
userData = {
RMXScaler = {
adjustSpace = 10;
height = 87;
width = 92;
};
};
width = 768;
},
{
anchors = (
{
name = bottom;
pos = (442,0);
},
{
name = ogonek;
pos = (795,10);
},
{
name = top;
pos = (444,1235);
}
);
layerId = "62CA62AF-CD91-478A-AB8B-28A62CC47DA0";
shapes = (
{
closed = 1;
nodes = (
(751,0,ls),
(772,0,o),
(783,31,o),
(783,44,cs),
(783,71,o),
(776,74,o),
(750,76,cs),
(699,80,o),
(610,85,o),
(610,161,cs),
(611,1103,ls),
(611,1141,o),
(681,1153,o),
(744,1158,cs),
(767,1160,o),
(774,1173,o),
(774,1190,cs),
(774,1204,o),
(764,1235,o),
(743,1235,cs),
(133,1235,ls),
(112,1235,o),
(102,1203,o),
(102,1190,cs),
(102,1164,o),
(110,1160,o),
(136,1158,cs),
(189,1154,o),
(275,1149,o),
(275,1073,cs),
(274,132,ls),
(274,93,o),
(203,83,o),
(139,76,cs),
(117,74,o),
(110,63,o),
(110,44,cs,{
name = hr00;
}),
(110,32,o),
(120,0,o),
(142,0,cs)
);
}
);
userData = {
RMXScaler = {
adjustSpace = 10;
height = 87;
width = 92;
};
};
width = 883;
}
);
userData = {
RMXScaler = {
source = I;
};
};
}
{
color = 9;
glyphname = j.sc;
layers = (
{
anchors = (
{
name = bottom;
pos = (507,0);
},
{
name = top;
pos = (507,986);
}
);
layerId = "DD6F9F34-BC40-4E8F-B1D3-DF3B42A9710F";
shapes = (
{
closed = 1;
nodes = (
(535,-26,o),
(792,42,o),
(792,382,cs),
(792,1102,ls),
(792,1142,o),
(858,1154,o),
(913,1158,cs),
(937,1160,o),
(943,1172,o),
(943,1190,cs),
(943,1203,o),
(933,1235,o),
(912,1235,cs),
(456,1235,ls),
(435,1235,o),
(425,1203,o),
(425,1190,cs),
(425,1164,o),
(432,1161,o),
(458,1158,c),
(524,1154,o),
(588,1149,o),
(588,1073,cs),
(587,353,ls),
(587,140,o),
(507,51,o),
(379,51,cs),
(318,51,o),
(268,69,o),
(232,93,c),
(274,386,l),
(274,402,o),
(242,423,o),
(200,423,cs),
(110,423,o),
(50,356,o),
(50,249,cs),
(50,190,o),
(70,123,o),
(129,70,c),
(211,3,o),
(304,-26,o),
(387,-26,cs)
);
}
);
userData = {
RMXScaler = {
adjustSpace = 10;
height = 87;
width = 92;
};
};
width = 1014;
},
{
anchors = (
{
name = bottom;
pos = (587,0);
},
{
name = top;
pos = (587,994);
}
);
layerId = "62CA62AF-CD91-478A-AB8B-28A62CC47DA0";
shapes = (
{
closed = 1;
nodes = (
(656,-26,o),
(942,42,o),
(942,382,cs),
(942,1102,ls),
(942,1141,o),
(1000,1154,o),
(1103,1158,cs),
(1127,1159,o),
(1133,1172,o),
(1133,1190,cs),
(1133,1203,o),
(1123,1235,o),
(1102,1235,cs),
(406,1235,ls),
(385,1235,o),
(375,1203,o),
(375,1190,cs),
(375,1164,o),
(382,1161,o),
(408,1158,c),
(482,1154,o),
(612,1149,o),
(612,1073,cs),
(611,353,ls),
(611,140,o),
(553,51,o),
(424,51,cs),
(381,51,o),
(343,56,o),
(312,64,c),
(369,409,l),
(369,446,o),
(322,493,o),
(245,493,cs),
(112,493,o),
(45,414,o),
(45,289,cs),
(45,214,o),
(74,138,o),
(139,86,cs,{
name = hr00;
}),
(225,17,o),
(340,-26,o),
(432,-26,cs)
);
}
);
userData = {
RMXScaler = {
adjustSpace = 10;
height = 87;
width = 92;
};
};
width = 1173;
}
);
userData = {
RMXScaler = {
source = J;
};
};
}
{
color = 9;
glyphname = k.sc;
kernLeft = h;
kernRight = k;
layers = (
{
anchors = (
{
name = bottom;
pos = (679,0);
},
{
name = top;
pos = (679,986);
}
);
layerId = "DD6F9F34-BC40-4E8F-B1D3-DF3B42A9710F";
shapes = (
{
closed = 1;
nodes = (
(609,0,ls),
(630,0,o),
(640,31,o),
(640,44,cs),
(640,71,o),
(633,74,o),
(604,77,cs),
(547,83,o),
(477,88,o),
(477,161,cs),
(478,1103,ls),
(478,1141,o),
(545,1154,o),
(602,1158,c),
(625,1160,o),
(632,1172,o),
(632,1190,cs),
(632,1203,o),
(622,1235,o),
(601,1235,cs),
(130,1235,ls),
(109,1235,o),
(99,1203,o),
(99,1190,cs),
(99,1164,o),
(106,1161,o),
(132,1158,cs),
(188,1152,o),
(272,1148,o),
(272,1073,cs),
(271,134,ls),
(271,96,o),
(197,81,o),
(138,77,c),
(113,74,o),
(107,63,o),
(107,44,cs),
(107,31,o),
(118,0,o),
(139,0,cs)
);
},
{
closed = 1;
nodes = (
(1313,0,ls),
(1334,0,o),
(1345,18,o),
(1345,30,cs),
(1345,61,o),
(1335,74,o),
(1314,77,cs),
(1265,84,o),
(1193,131,o),
(1136,206,cs),
(1028,348,o),
(839,642,o),
(729,707,c),
(1091,1098,l),
(1140,1134,o),
(1211,1157,o),
(1273,1157,cs),
(1293,1157,o),
(1303,1169,o),
(1303,1189,cs),
(1303,1202,o),
(1293,1235,o),
(1272,1235,cs,{
name = L;
}),
(852,1235,ls,{
name = L;
}),
(831,1235,o),
(821,1203,o),
(821,1189,cs),
(821,1171,o),
(825,1160,o),
(850,1157,cs),
(888,1153,o),
(954,1149,o),
(954,1125,cs),
(954,1121,o),
(953,1117,o),
(947,1110,cs),
(511,609,l),
(644,599,o),
(823,248,o),
(943,82,cs),
(987,21,o),
(1021,0,o),
(1047,0,cs)
);
}
);
userData = {
RMXScaler = {
adjustSpace = 10;
height = 87;
width = 92;
};
};
width = 1358;
},
{
anchors = (
{
name = bottom;
pos = (805,0);
},
{
name = top;
pos = (805,994);
}
);
layerId = "62CA62AF-CD91-478A-AB8B-28A62CC47DA0";
shapes = (
{
closed = 1;
nodes = (
(744,0,ls),
(765,0,o),
(775,31,o),
(775,44,cs),
(775,71,o),
(768,74,o),
(739,77,cs),
(682,83,o),
(612,88,o),
(612,161,cs),
(613,1103,ls),
(613,1142,o),
(693,1155,o),
(737,1158,cs),
(761,1160,o),
(767,1172,o),
(767,1190,cs),
(767,1204,o),
(757,1235,o),
(736,1235,cs),
(135,1235,ls),
(114,1235,o),
(104,1203,o),
(104,1190,cs),
(104,1164,o),
(111,1161,o),
(137,1158,cs),
(193,1152,o),
(277,1148,o),
(277,1073,cs),
(276,144,ls),
(276,106,o),
(202,81,o),
(143,77,c),
(118,74,o),
(112,63,o),
(112,44,cs,{
name = hr00;
}),
(112,32,o),
(122,0,o),
(144,0,cs)
);
},
{
closed = 1;
nodes = (
(1532,0,ls),
(1553,0,o),
(1564,32,o),
(1564,44,cs),
(1564,70,o),
(1557,74,o),
(1534,77,cs),
(1481,83,o),
(1417,143,o),
(1322,277,cs),
(1207,439,o),
(1038,740,o),
(945,769,c),
(1312,1098,ls),
(1353,1135,o),
(1434,1157,o),
(1497,1157,cs),
(1517,1157,o),
(1527,1169,o),
(1527,1189,cs),
(1527,1202,o),
(1517,1235,o),
(1496,1235,cs,{
name = L;
}),
(1034,1235,ls,{
name = L;
}),
(1013,1235,o),
(1004,1203,o),
(1004,1189,cs),
(1004,1171,o),
(1008,1160,o),
(1033,1157,cs),
(1071,1153,o),
(1138,1149,o),
(1138,1126,cs),
(1138,1122,o),
(1136,1117,o),
(1129,1110,cs),
(620,605,l),
(773,625,o),
(898,316,o),
(1022,120,cs),
(1063,55,o),
(1100,0,o),
(1159,0,cs)
);
}
);
userData = {
RMXScaler = {
adjustSpace = 10;
height = 87;
width = 92;
};
};
width = 1609;
}
);
userData = {
RMXScaler = {
source = K;
};
};
}
{
color = 9;
glyphname = m.sc;
kernLeft = n;
kernRight = n;
layers = (
{
anchors = (
{
name = bottom;
pos = (895,0);
},
{
name = top;
pos = (895,986);
}
);
background = {
shapes = (
{
pos = (595,0);
ref = n;
}
);
};
layerId = "DD6F9F34-BC40-4E8F-B1D3-DF3B42A9710F";
shapes = (
{
closed = 1;
nodes = (
(550,0,ls),
(571,0,o),
(582,31,o),
(582,44,cs),
(582,71,o),
(575,74,o),
(549,77,c),
(483,81,o),
(372,86,o),
(372,161,cs),
(372,1114,l),
(406,1114,l),
(850,0,l),
(897,0,l),
(1298,1114,l),
(1331,1114,l),
(1330,132,ls),
(1330,94,o),
(1248,81,o),
(1189,77,c),
(1165,74,o),
(1159,63,o),
(1159,44,cs),
(1159,31,o),
(1169,0,o),
(1190,0,cs),
(1677,0,ls),
(1698,0,o),
(1708,31,o),
(1708,44,cs),
(1708,71,o),
(1701,74,o),
(1672,77,cs),
(1614,83,o),
(1533,88,o),
(1533,161,cs),
(1534,1103,ls),
(1534,1141,o),
(1609,1154,o),
(1667,1158,c),
(1692,1161,o),
(1698,1172,o),
(1698,1190,cs),
(1698,1202,o),
(1688,1235,o),
(1666,1235,cs),
(1243,1235,l),
(1235,1200,o),
(1220,1159,o),
(1198,1099,cs),
(924,340,l),
(875,516,l),
(588,1235,l),
(114,1235,l),
(93,1234,o),
(83,1203,o),
(83,1190,cs),
(83,1164,o),
(90,1161,o),
(116,1158,c),
(181,1154,o),
(283,1149,o),
(283,1074,cs),
(283,160,ls),
(283,87,o),
(194,81,o),
(122,77,c),
(97,74,o),
(91,63,o),
(91,44,cs),
(91,31,o),
(102,0,o),
(123,0,cs)
);
}
);
userData = {
RMXScaler = {
adjustSpace = 10;
height = 87;
width = 92;
};
};
width = 1790;
},
{
anchors = (
{
name = bottom;
pos = (994,0);
},
{
name = top;
pos = (994,994);
}
);
layerId = "62CA62AF-CD91-478A-AB8B-28A62CC47DA0";
shapes = (
{
closed = 1;
nodes = (
(534,0,ls),
(555,0,o),
(566,31,o),
(566,44,cs),
(566,71,o),
(559,74,o),
(533,77,c),
(467,81,o),
(356,86,o),
(356,161,cs),
(356,1114,l),
(391,1114,l),
(883,0,l),
(936,0,l),
(1388,1114,l),
(1412,1114,l),
(1412,132,ls),
(1412,94,o),
(1328,81,o),
(1269,77,c),
(1245,74,o),
(1239,63,o),
(1239,44,cs),
(1239,31,o),
(1249,0,o),
(1270,0,cs),
(1889,0,ls),
(1910,0,o),
(1920,31,o),
(1920,44,cs),
(1920,71,o),
(1913,74,o),
(1884,77,cs),
(1826,83,o),
(1749,88,o),
(1749,161,cs),
(1749,1102,ls),
(1749,1141,o),
(1820,1154,o),
(1882,1158,c),
(1907,1161,o),
(1913,1172,o),
(1913,1190,cs),
(1913,1203,o),
(1903,1235,o),
(1881,1235,cs),
(1325,1235,l),
(1327,1225,o),
(1318,1184,o),
(1317,1182,cs),
(1017,456,l),
(645,1564,l),
(715,1235,l),
(98,1235,l),
(77,1234,o),
(67,1203,o),
(67,1190,cs),
(67,1164,o),
(74,1161,o),
(100,1158,c),
(165,1154,o),
(267,1149,o),
(267,1074,cs),
(267,160,ls),
(267,87,o),
(178,81,o),
(106,77,c),
(81,74,o),
(75,63,o),
(75,44,cs,{
name = hr00;
}),
(75,32,o),
(85,0,o),
(107,0,cs)
);
}
);
userData = {
RMXScaler = {
adjustSpace = 10;
height = 87;
width = 92;
};
};
width = 1987;
}
);
userData = {
RMXScaler = {
source = M;
};
com.typemytype.robofont.mark = (
0.967,
0.6,
1,
1
);
};
}
{
color = 9;
glyphname = o.sc;
kernLeft = o;
kernRight = o;
layers = (
{
anchors = (
{
name = bottom;
pos = (721,0);
},
{
name = center;
pos = (721,493);
},
{
name = ogonek;
pos = (1297,10);
},
{
name = top;
pos = (726,1221);
},
{
name = topleft;
pos = (20,986);
},
{
name = topright;
pos = (1421,986);
}
);
layerId = "DD6F9F34-BC40-4E8F-B1D3-DF3B42A9710F";
shapes = (
{
closed = 1;
nodes = (
(1111,-25,o),
(1344,267,o),
(1344,623,cs),
(1344,980,o),
(1119,1261,o),
(726,1261,cs),
(333,1261,o),
(97,980,o),
(97,623,cs),
(97,266,o),
(326,-25,o),
(718,-25,cs)
);
},
{
closed = 1;
nodes = (
(426,57,o),
(341,273,o),
(341,621,cs),
(341,971,o),
(420,1180,o),
(717,1180,cs),
(1011,1180,o),
(1098,971,o),
(1098,621,cs),
(1098,272,o),
(1017,57,o),
(722,57,cs)
);
}
);
userData = {
RMXScaler = {
adjustSpace = 10;
height = 87;
width = 92;
};
};
width = 1441;
},
{
anchors = (
{
name = bottom;
pos = (798,0);
},
{
name = center;
pos = (798,497);
},
{
name = ogonek;
pos = (1436,10);
},
{
name = top;
pos = (797,1235);
},
{
name = topleft;
pos = (20,994);
},
{
name = topright;
pos = (1576,994);
}
);
layerId = "62CA62AF-CD91-478A-AB8B-28A62CC47DA0";
shapes = (
{
closed = 1;
nodes = (
(1232,-25,o),
(1498,267,o),
(1498,623,cs),
(1498,980,o),
(1231,1261,o),
(796,1261,cs),
(361,1261,o),
(98,980,o),
(98,623,cs,{
name = hr00;
}),
(98,266,o),
(364,-25,o),
(798,-25,cs)
);
},
{
closed = 1;
nodes = (
(584,57,o),
(476,273,o),
(476,621,cs),
(476,971,o),
(579,1180,o),
(796,1180,cs),
(1013,1180,o),
(1119,972,o),
(1119,621,cs),
(1119,272,o),
(1019,57,o),
(802,57,cs)
);
}
);
userData = {
RMXScaler = {
adjustSpace = 10;
height = 87;
width = 92;
};
};
width = 1596;
}
);
userData = {
RMXScaler = {
source = O;
};
};
}
{
glyphname = one.dnom;
kernLeft = one.dnom;
kernRight = one.dnom;
layers = (
{
background = {
shapes = (
{
closed = 1;
nodes = (
(772,0,ls),
(788,0,o),
(801,26,o),
(805,36,cs),
(814,66,o),
(804,69,o),
(783,70,cs),
(735,73,o),
(570,79,o),
(580,135,cs),
(712,958,l),
(591,958,l),
(489,866,o),
(297,846,o),
(240,841,cs),
(212,840,o),
(202,819,o),
(198,798,cs),
(191,766,o),
(214,713,o),
(234,713,cs),
(318,713,o),
(427,758,o),
(498,814,c),
(385,114,ls),
(379,85,o),
(213,75,o),
(158,70,c),
(138,69,o),
(131,51,o),
(127,36,cs),
(124,26,o),
(129,0,o),
(147,0,cs)
);
}
);
};
layerId = "DD6F9F34-BC40-4E8F-B1D3-DF3B42A9710F";
shapes = (
{
closed = 1;
nodes = (
(844,0,l),
(860,0,o),
(872,18,o),
(872,45,cs),
(872,62,o),
(866,69,o),
(845,70,cs),
(796,72,o),
(621,79,o),
(622,135,c),
(631,968,l),
(506,968,l),
(418,876,o),
(233,855,o),
(176,851,cs),
(149,849,o),
(142,829,o),
(141,808,cs),
(139,776,o),
(170,723,o),
(190,723,cs),
(274,723,o),
(366,776,o),
(439,832,c),
(430,114,l),
(430,85,o),
(264,75,o),
(210,70,cs),
(190,69,o),
(184,49,o),
(184,26,cs),
(184,16,o),
(191,0,o),
(209,0,c)
);
}
);
width = 1024;
},
{
background = {
shapes = (
{
closed = 1;
nodes = (
(829,0,ls),
(844,0,o),
(853,17,o),
(853,28,cs),
(853,47,o),
(847,50,o),
(828,51,cs),
(785,53,o),
(681,59,o),
(681,115,cs),
(681,938,l),
(503,938,l),
(441,890,o),
(330,822,o),
(287,820,cs),
(268,819,o),
(262,802,o),
(262,782,cs),
(262,772,o),
(271,762,o),
(286,762,cs),
(314,762,o),
(376,767,o),
(414,774,c),
(414,94,ls),
(414,65,o),
(307,55,o),
(261,51,c),
(244,50,o),
(238,42,o),
(238,28,cs,{
name = hr00;
}),
(238,17,o),
(247,0,o),
(262,0,cs)
);
}
);
};
layerId = "62CA62AF-CD91-478A-AB8B-28A62CC47DA0";
shapes = (
{
closed = 1;
nodes = (
(908,0,l),
(924,0,o),
(932,17,o),
(933,29,cs),
(935,58,o),
(927,76,o),
(907,76,cs),
(863,76,o),
(716,85,o),
(716,142,c),
(716,968,l),
(525,968,l),
(444,876,o),
(214,847,o),
(160,845,cs),
(135,844,o),
(129,823,o),
(129,802,cs),
(129,770,o),
(157,711,o),
(175,711,cs),
(278,711,o),
(392,766,o),
(436,802,c),
(436,142,l),
(436,85,o),
(260,82,o),
(209,76,cs),
(190,75,o),
(186,57,o),
(185,43,cs),
(184,32,o),
(193,0,o),
(210,0,c)
);
}
);
width = 1130;
}
);
}
{
color = 1;
glyphname = oopen.sc;
layers = (
{
anchors = (
{
name = bottom;
pos = (455,0);
},
{
name = top;
pos = (387,994);
}
);
layerId = "DD6F9F34-BC40-4E8F-B1D3-DF3B42A9710F";
shapes = (
{
closed = 1;
nodes = (
(655,-28,o),
(861,161,o),
(861,485,cs),
(861,809,o),
(710,1013,o),
(418,1013,cs),
(248,1013,o),
(131,930,o),
(72,812,cs),
(70,808,o),
(66,802,o),
(66,797,cs),
(66,792,o),
(69,788,o),
(77,784,cs),
(127,761,ls),
(139,755,o),
(142,769,o),
(146,777,cs),
(189,863,o),
(279,909,o),
(380,909,cs),
(485,909,o),
(646,807,o),
(646,495,cs),
(646,180,o),
(536,68,o),
(374,68,cs),
(317,68,o),
(290,89,o),
(290,89,c),
(206,276,ls),
(186,320,o),
(163,324,o),
(124,324,cs),
(89,324,o),
(53,289,o),
(53,229,cs),
(53,194,o),
(65,150,o),
(96,99,cs),
(158,-3,o),
(275,-28,o),
(389,-28,cs)
);
}
);
width = 930;
},
{
anchors = (
{
name = bottom;
pos = (522,0);
},
{
name = top;
pos = (425,994);
}
);
layerId = "62CA62AF-CD91-478A-AB8B-28A62CC47DA0";
shapes = (
{
closed = 1;
nodes = (
(785,-27,o),
(1018,170,o),
(1018,495,cs,{
name = hr00;
}),
(1018,809,o),
(844,1012,o),
(445,1012,cs),
(293,1012,o),
(148,930,o),
(81,812,cs),
(77,805,o),
(75,800,o),
(75,795,cs),
(75,790,o),
(78,786,o),
(85,783,c),
(129,762,l),
(142,759,o),
(149,770,o),
(155,777,cs),
(214,845,o),
(314,878,o),
(419,878,cs),
(546,878,o),
(673,761,o),
(673,495,cs),
(673,180,o),
(573,58,o),
(450,58,cs),
(423,58,o),
(404,66,o),
(394,75,c),
(291,320,ls),
(280,345,o),
(237,380,o),
(188,380,cs),
(139,380,o),
(45,339,o),
(45,232,cs),
(45,210,o),
(47,195,o),
(59,167,cs),
(115,36,o),
(240,-27,o),
(445,-27,cs)
);
}
);
width = 1088;
}
);
metricLeft = "=|c";
metricRight = "=|c";
}
